%TF.GenerationSoftware,KiCad,Pcbnew,8.0.6*%
%TF.CreationDate,2025-04-30T12:18:25-07:00*%
%TF.ProjectId,Media_Macro_Controller,4d656469-615f-44d6-9163-726f5f436f6e,rev?*%
%TF.SameCoordinates,Original*%
%TF.FileFunction,Soldermask,Bot*%
%TF.FilePolarity,Negative*%
%FSLAX46Y46*%
G04 Gerber Fmt 4.6, Leading zero omitted, Abs format (unit mm)*
G04 Created by KiCad (PCBNEW 8.0.6) date 2025-04-30 12:18:25*
%MOMM*%
%LPD*%
G01*
G04 APERTURE LIST*
%ADD10O,1.700000X1.700000*%
%ADD11R,1.700000X1.700000*%
%ADD12C,1.750000*%
%ADD13C,4.000000*%
%ADD14C,2.500000*%
%ADD15C,0.800000*%
%ADD16C,7.000000*%
%ADD17R,2.000000X2.000000*%
%ADD18C,2.000000*%
%ADD19R,2.000000X3.200000*%
%ADD20R,1.600000X1.600000*%
%ADD21O,1.600000X1.600000*%
G04 APERTURE END LIST*
D10*
%TO.C,U2*%
X141595000Y-24035000D03*
X141595000Y-26575000D03*
D11*
X141595000Y-29115000D03*
D10*
X141595000Y-31655000D03*
X141595000Y-34195000D03*
X141595000Y-36735000D03*
X141595000Y-39275000D03*
D11*
X141595000Y-41815000D03*
D10*
X141595000Y-44355000D03*
X141595000Y-46895000D03*
X141595000Y-49435000D03*
X141595000Y-51975000D03*
D11*
X141595000Y-54515000D03*
D10*
X141595000Y-57055000D03*
X141595000Y-59595000D03*
X141595000Y-62135000D03*
X141595000Y-64675000D03*
D11*
X141595000Y-67215000D03*
D10*
X141595000Y-69755000D03*
X141595000Y-72295000D03*
X159375000Y-72295000D03*
X159375000Y-69755000D03*
D11*
X159375000Y-67215000D03*
D10*
X159375000Y-64675000D03*
X159375000Y-62135000D03*
X159375000Y-59595000D03*
X159375000Y-57055000D03*
D11*
X159375000Y-54515000D03*
D10*
X159375000Y-51975000D03*
X159375000Y-49435000D03*
X159375000Y-46895000D03*
X159375000Y-44355000D03*
D11*
X159375000Y-41815000D03*
D10*
X159375000Y-39275000D03*
X159375000Y-36735000D03*
X159375000Y-34195000D03*
X159375000Y-31655000D03*
D11*
X159375000Y-29115000D03*
D10*
X159375000Y-26575000D03*
X159375000Y-24035000D03*
X147945000Y-72065000D03*
D11*
X150485000Y-72065000D03*
D10*
X153025000Y-72065000D03*
%TD*%
D12*
%TO.C,S3*%
X213042500Y-69215000D03*
D13*
X218122500Y-69215000D03*
D12*
X223202500Y-69215000D03*
D14*
X214312500Y-66675000D03*
X220662500Y-64135000D03*
%TD*%
D15*
%TO.C,H3*%
X228003845Y-27165000D03*
X228772690Y-25308845D03*
X228772690Y-29021155D03*
X230628845Y-24540000D03*
D16*
X230628845Y-27165000D03*
D15*
X230628845Y-29790000D03*
X232485000Y-25308845D03*
X232485000Y-29021155D03*
X233253845Y-27165000D03*
%TD*%
D12*
%TO.C,S7*%
X174942500Y-107315000D03*
D13*
X180022500Y-107315000D03*
D12*
X185102500Y-107315000D03*
D14*
X176212500Y-104775000D03*
X182562500Y-102235000D03*
%TD*%
D12*
%TO.C,S5*%
X193992500Y-88265000D03*
D13*
X199072500Y-88265000D03*
D12*
X204152500Y-88265000D03*
D14*
X195262500Y-85725000D03*
X201612500Y-83185000D03*
%TD*%
D15*
%TO.C,H2*%
X138860000Y-117165000D03*
X139628845Y-115308845D03*
X139628845Y-119021155D03*
X141485000Y-114540000D03*
D16*
X141485000Y-117165000D03*
D15*
X141485000Y-119790000D03*
X143341155Y-115308845D03*
X143341155Y-119021155D03*
X144110000Y-117165000D03*
%TD*%
D12*
%TO.C,S8*%
X193992500Y-107315000D03*
D13*
X199072500Y-107315000D03*
D12*
X204152500Y-107315000D03*
D14*
X195262500Y-104775000D03*
X201612500Y-102235000D03*
%TD*%
D12*
%TO.C,S4*%
X174942500Y-88265000D03*
D13*
X180022500Y-88265000D03*
D12*
X185102500Y-88265000D03*
D14*
X176212500Y-85725000D03*
X182562500Y-83185000D03*
%TD*%
D17*
%TO.C,SW1*%
X175985000Y-32915000D03*
D18*
X170985000Y-32915000D03*
X173485000Y-32915000D03*
D19*
X179085000Y-40415000D03*
X167885000Y-40415000D03*
D18*
X170985000Y-47415000D03*
X175985000Y-47415000D03*
%TD*%
D12*
%TO.C,S6*%
X213042500Y-88265000D03*
D13*
X218122500Y-88265000D03*
D12*
X223202500Y-88265000D03*
D14*
X214312500Y-85725000D03*
X220662500Y-83185000D03*
%TD*%
D20*
%TO.C,D10*%
X225485000Y-52665000D03*
D21*
X217865000Y-52665000D03*
%TD*%
D11*
%TO.C,J1*%
X202025000Y-53165000D03*
D10*
X199485000Y-53165000D03*
X196945000Y-53165000D03*
X194405000Y-53165000D03*
%TD*%
D15*
%TO.C,H4*%
X227860000Y-117165000D03*
X228628845Y-115308845D03*
X228628845Y-119021155D03*
X230485000Y-114540000D03*
D16*
X230485000Y-117165000D03*
D15*
X230485000Y-119790000D03*
X232341155Y-115308845D03*
X232341155Y-119021155D03*
X233110000Y-117165000D03*
%TD*%
D12*
%TO.C,S1*%
X174942500Y-69215000D03*
D13*
X180022500Y-69215000D03*
D12*
X185102500Y-69215000D03*
D14*
X176212500Y-66675000D03*
X182562500Y-64135000D03*
%TD*%
D12*
%TO.C,S2*%
X193992500Y-69215000D03*
D13*
X199072500Y-69215000D03*
D12*
X204152500Y-69215000D03*
D14*
X195262500Y-66675000D03*
X201612500Y-64135000D03*
%TD*%
D12*
%TO.C,S9*%
X213042500Y-107315000D03*
D13*
X218122500Y-107315000D03*
D12*
X223202500Y-107315000D03*
D14*
X214312500Y-104775000D03*
X220662500Y-102235000D03*
%TD*%
D20*
%TO.C,D11*%
X177295000Y-52665000D03*
D21*
X169675000Y-52665000D03*
%TD*%
D17*
%TO.C,SW2*%
X225385000Y-32915000D03*
D18*
X220385000Y-32915000D03*
X222885000Y-32915000D03*
D19*
X228485000Y-40415000D03*
X217285000Y-40415000D03*
D18*
X220385000Y-47415000D03*
X225385000Y-47415000D03*
%TD*%
D15*
%TO.C,H1*%
X139235000Y-81165000D03*
X140003845Y-79308845D03*
X140003845Y-83021155D03*
X141860000Y-78540000D03*
D16*
X141860000Y-81165000D03*
D15*
X141860000Y-83790000D03*
X143716155Y-79308845D03*
X143716155Y-83021155D03*
X144485000Y-81165000D03*
%TD*%
D20*
%TO.C,D1*%
X208597500Y-73025000D03*
D21*
X208597500Y-65405000D03*
%TD*%
D20*
%TO.C,D4*%
X189547500Y-92075000D03*
D21*
X189547500Y-84455000D03*
%TD*%
D20*
%TO.C,D7*%
X189547500Y-111125000D03*
D21*
X189547500Y-103505000D03*
%TD*%
D20*
%TO.C,D8*%
X208597500Y-111125000D03*
D21*
X208597500Y-103505000D03*
%TD*%
D20*
%TO.C,D5*%
X208597500Y-92075000D03*
D21*
X208597500Y-84455000D03*
%TD*%
D20*
%TO.C,D2*%
X189547500Y-73025000D03*
D21*
X189547500Y-65405000D03*
%TD*%
D20*
%TO.C,D9*%
X227647500Y-111125000D03*
D21*
X227647500Y-103505000D03*
%TD*%
D20*
%TO.C,D6*%
X227647500Y-92075000D03*
D21*
X227647500Y-84455000D03*
%TD*%
D20*
%TO.C,D3*%
X227647500Y-73025000D03*
D21*
X227647500Y-65405000D03*
%TD*%
M02*
