%TF.GenerationSoftware,KiCad,Pcbnew,8.0.6*%
%TF.CreationDate,2025-04-30T12:18:25-07:00*%
%TF.ProjectId,Media_Macro_Controller,4d656469-615f-44d6-9163-726f5f436f6e,rev?*%
%TF.SameCoordinates,Original*%
%TF.FileFunction,Legend,Top*%
%TF.FilePolarity,Positive*%
%FSLAX46Y46*%
G04 Gerber Fmt 4.6, Leading zero omitted, Abs format (unit mm)*
G04 Created by KiCad (PCBNEW 8.0.6) date 2025-04-30 12:18:25*
%MOMM*%
%LPD*%
G01*
G04 APERTURE LIST*
%ADD10C,0.300000*%
%ADD11C,0.250000*%
%ADD12C,0.150000*%
%ADD13C,0.120000*%
%ADD14C,0.100000*%
G04 APERTURE END LIST*
D10*
X195575225Y-39215828D02*
X195860939Y-39215828D01*
X195860939Y-39215828D02*
X196003796Y-39287257D01*
X196003796Y-39287257D02*
X196146653Y-39430114D01*
X196146653Y-39430114D02*
X196218082Y-39715828D01*
X196218082Y-39715828D02*
X196218082Y-40215828D01*
X196218082Y-40215828D02*
X196146653Y-40501542D01*
X196146653Y-40501542D02*
X196003796Y-40644400D01*
X196003796Y-40644400D02*
X195860939Y-40715828D01*
X195860939Y-40715828D02*
X195575225Y-40715828D01*
X195575225Y-40715828D02*
X195432368Y-40644400D01*
X195432368Y-40644400D02*
X195289510Y-40501542D01*
X195289510Y-40501542D02*
X195218082Y-40215828D01*
X195218082Y-40215828D02*
X195218082Y-39715828D01*
X195218082Y-39715828D02*
X195289510Y-39430114D01*
X195289510Y-39430114D02*
X195432368Y-39287257D01*
X195432368Y-39287257D02*
X195575225Y-39215828D01*
X197075225Y-40715828D02*
X196932368Y-40644400D01*
X196932368Y-40644400D02*
X196860939Y-40501542D01*
X196860939Y-40501542D02*
X196860939Y-39215828D01*
X198218082Y-40644400D02*
X198075225Y-40715828D01*
X198075225Y-40715828D02*
X197789511Y-40715828D01*
X197789511Y-40715828D02*
X197646653Y-40644400D01*
X197646653Y-40644400D02*
X197575225Y-40501542D01*
X197575225Y-40501542D02*
X197575225Y-39930114D01*
X197575225Y-39930114D02*
X197646653Y-39787257D01*
X197646653Y-39787257D02*
X197789511Y-39715828D01*
X197789511Y-39715828D02*
X198075225Y-39715828D01*
X198075225Y-39715828D02*
X198218082Y-39787257D01*
X198218082Y-39787257D02*
X198289511Y-39930114D01*
X198289511Y-39930114D02*
X198289511Y-40072971D01*
X198289511Y-40072971D02*
X197575225Y-40215828D01*
X199575225Y-40715828D02*
X199575225Y-39215828D01*
X199575225Y-40644400D02*
X199432367Y-40715828D01*
X199432367Y-40715828D02*
X199146653Y-40715828D01*
X199146653Y-40715828D02*
X199003796Y-40644400D01*
X199003796Y-40644400D02*
X198932367Y-40572971D01*
X198932367Y-40572971D02*
X198860939Y-40430114D01*
X198860939Y-40430114D02*
X198860939Y-40001542D01*
X198860939Y-40001542D02*
X198932367Y-39858685D01*
X198932367Y-39858685D02*
X199003796Y-39787257D01*
X199003796Y-39787257D02*
X199146653Y-39715828D01*
X199146653Y-39715828D02*
X199432367Y-39715828D01*
X199432367Y-39715828D02*
X199575225Y-39787257D01*
X142839510Y-98980114D02*
X143053796Y-99051542D01*
X143053796Y-99051542D02*
X143125225Y-99122971D01*
X143125225Y-99122971D02*
X143196653Y-99265828D01*
X143196653Y-99265828D02*
X143196653Y-99480114D01*
X143196653Y-99480114D02*
X143125225Y-99622971D01*
X143125225Y-99622971D02*
X143053796Y-99694400D01*
X143053796Y-99694400D02*
X142910939Y-99765828D01*
X142910939Y-99765828D02*
X142339510Y-99765828D01*
X142339510Y-99765828D02*
X142339510Y-98265828D01*
X142339510Y-98265828D02*
X142839510Y-98265828D01*
X142839510Y-98265828D02*
X142982368Y-98337257D01*
X142982368Y-98337257D02*
X143053796Y-98408685D01*
X143053796Y-98408685D02*
X143125225Y-98551542D01*
X143125225Y-98551542D02*
X143125225Y-98694400D01*
X143125225Y-98694400D02*
X143053796Y-98837257D01*
X143053796Y-98837257D02*
X142982368Y-98908685D01*
X142982368Y-98908685D02*
X142839510Y-98980114D01*
X142839510Y-98980114D02*
X142339510Y-98980114D01*
X144482368Y-98765828D02*
X144482368Y-99765828D01*
X143839510Y-98765828D02*
X143839510Y-99551542D01*
X143839510Y-99551542D02*
X143910939Y-99694400D01*
X143910939Y-99694400D02*
X144053796Y-99765828D01*
X144053796Y-99765828D02*
X144268082Y-99765828D01*
X144268082Y-99765828D02*
X144410939Y-99694400D01*
X144410939Y-99694400D02*
X144482368Y-99622971D01*
X145196653Y-99765828D02*
X145196653Y-98765828D01*
X145196653Y-98265828D02*
X145125225Y-98337257D01*
X145125225Y-98337257D02*
X145196653Y-98408685D01*
X145196653Y-98408685D02*
X145268082Y-98337257D01*
X145268082Y-98337257D02*
X145196653Y-98265828D01*
X145196653Y-98265828D02*
X145196653Y-98408685D01*
X146125225Y-99765828D02*
X145982368Y-99694400D01*
X145982368Y-99694400D02*
X145910939Y-99551542D01*
X145910939Y-99551542D02*
X145910939Y-98265828D01*
X146482368Y-98765828D02*
X147053796Y-98765828D01*
X146696653Y-98265828D02*
X146696653Y-99551542D01*
X146696653Y-99551542D02*
X146768082Y-99694400D01*
X146768082Y-99694400D02*
X146910939Y-99765828D01*
X146910939Y-99765828D02*
X147053796Y-99765828D01*
X147625225Y-99694400D02*
X147625225Y-99765828D01*
X147625225Y-99765828D02*
X147553796Y-99908685D01*
X147553796Y-99908685D02*
X147482368Y-99980114D01*
X149410939Y-99765828D02*
X149410939Y-98265828D01*
X149410939Y-98265828D02*
X150268082Y-99765828D01*
X150268082Y-99765828D02*
X150268082Y-98265828D01*
X151196654Y-99765828D02*
X151053797Y-99694400D01*
X151053797Y-99694400D02*
X150982368Y-99622971D01*
X150982368Y-99622971D02*
X150910940Y-99480114D01*
X150910940Y-99480114D02*
X150910940Y-99051542D01*
X150910940Y-99051542D02*
X150982368Y-98908685D01*
X150982368Y-98908685D02*
X151053797Y-98837257D01*
X151053797Y-98837257D02*
X151196654Y-98765828D01*
X151196654Y-98765828D02*
X151410940Y-98765828D01*
X151410940Y-98765828D02*
X151553797Y-98837257D01*
X151553797Y-98837257D02*
X151625226Y-98908685D01*
X151625226Y-98908685D02*
X151696654Y-99051542D01*
X151696654Y-99051542D02*
X151696654Y-99480114D01*
X151696654Y-99480114D02*
X151625226Y-99622971D01*
X151625226Y-99622971D02*
X151553797Y-99694400D01*
X151553797Y-99694400D02*
X151410940Y-99765828D01*
X151410940Y-99765828D02*
X151196654Y-99765828D01*
X152125226Y-98765828D02*
X152696654Y-98765828D01*
X152339511Y-98265828D02*
X152339511Y-99551542D01*
X152339511Y-99551542D02*
X152410940Y-99694400D01*
X152410940Y-99694400D02*
X152553797Y-99765828D01*
X152553797Y-99765828D02*
X152696654Y-99765828D01*
X154839511Y-98980114D02*
X155053797Y-99051542D01*
X155053797Y-99051542D02*
X155125226Y-99122971D01*
X155125226Y-99122971D02*
X155196654Y-99265828D01*
X155196654Y-99265828D02*
X155196654Y-99480114D01*
X155196654Y-99480114D02*
X155125226Y-99622971D01*
X155125226Y-99622971D02*
X155053797Y-99694400D01*
X155053797Y-99694400D02*
X154910940Y-99765828D01*
X154910940Y-99765828D02*
X154339511Y-99765828D01*
X154339511Y-99765828D02*
X154339511Y-98265828D01*
X154339511Y-98265828D02*
X154839511Y-98265828D01*
X154839511Y-98265828D02*
X154982369Y-98337257D01*
X154982369Y-98337257D02*
X155053797Y-98408685D01*
X155053797Y-98408685D02*
X155125226Y-98551542D01*
X155125226Y-98551542D02*
X155125226Y-98694400D01*
X155125226Y-98694400D02*
X155053797Y-98837257D01*
X155053797Y-98837257D02*
X154982369Y-98908685D01*
X154982369Y-98908685D02*
X154839511Y-98980114D01*
X154839511Y-98980114D02*
X154339511Y-98980114D01*
X156053797Y-99765828D02*
X155910940Y-99694400D01*
X155910940Y-99694400D02*
X155839511Y-99622971D01*
X155839511Y-99622971D02*
X155768083Y-99480114D01*
X155768083Y-99480114D02*
X155768083Y-99051542D01*
X155768083Y-99051542D02*
X155839511Y-98908685D01*
X155839511Y-98908685D02*
X155910940Y-98837257D01*
X155910940Y-98837257D02*
X156053797Y-98765828D01*
X156053797Y-98765828D02*
X156268083Y-98765828D01*
X156268083Y-98765828D02*
X156410940Y-98837257D01*
X156410940Y-98837257D02*
X156482369Y-98908685D01*
X156482369Y-98908685D02*
X156553797Y-99051542D01*
X156553797Y-99051542D02*
X156553797Y-99480114D01*
X156553797Y-99480114D02*
X156482369Y-99622971D01*
X156482369Y-99622971D02*
X156410940Y-99694400D01*
X156410940Y-99694400D02*
X156268083Y-99765828D01*
X156268083Y-99765828D02*
X156053797Y-99765828D01*
X157839512Y-98765828D02*
X157839512Y-99765828D01*
X157196654Y-98765828D02*
X157196654Y-99551542D01*
X157196654Y-99551542D02*
X157268083Y-99694400D01*
X157268083Y-99694400D02*
X157410940Y-99765828D01*
X157410940Y-99765828D02*
X157625226Y-99765828D01*
X157625226Y-99765828D02*
X157768083Y-99694400D01*
X157768083Y-99694400D02*
X157839512Y-99622971D01*
X159196655Y-98765828D02*
X159196655Y-99980114D01*
X159196655Y-99980114D02*
X159125226Y-100122971D01*
X159125226Y-100122971D02*
X159053797Y-100194400D01*
X159053797Y-100194400D02*
X158910940Y-100265828D01*
X158910940Y-100265828D02*
X158696655Y-100265828D01*
X158696655Y-100265828D02*
X158553797Y-100194400D01*
X159196655Y-99694400D02*
X159053797Y-99765828D01*
X159053797Y-99765828D02*
X158768083Y-99765828D01*
X158768083Y-99765828D02*
X158625226Y-99694400D01*
X158625226Y-99694400D02*
X158553797Y-99622971D01*
X158553797Y-99622971D02*
X158482369Y-99480114D01*
X158482369Y-99480114D02*
X158482369Y-99051542D01*
X158482369Y-99051542D02*
X158553797Y-98908685D01*
X158553797Y-98908685D02*
X158625226Y-98837257D01*
X158625226Y-98837257D02*
X158768083Y-98765828D01*
X158768083Y-98765828D02*
X159053797Y-98765828D01*
X159053797Y-98765828D02*
X159196655Y-98837257D01*
X159910940Y-99765828D02*
X159910940Y-98265828D01*
X160553798Y-99765828D02*
X160553798Y-98980114D01*
X160553798Y-98980114D02*
X160482369Y-98837257D01*
X160482369Y-98837257D02*
X160339512Y-98765828D01*
X160339512Y-98765828D02*
X160125226Y-98765828D01*
X160125226Y-98765828D02*
X159982369Y-98837257D01*
X159982369Y-98837257D02*
X159910940Y-98908685D01*
X161053798Y-98765828D02*
X161625226Y-98765828D01*
X161268083Y-98265828D02*
X161268083Y-99551542D01*
X161268083Y-99551542D02*
X161339512Y-99694400D01*
X161339512Y-99694400D02*
X161482369Y-99765828D01*
X161482369Y-99765828D02*
X161625226Y-99765828D01*
D11*
X142287568Y-94429619D02*
X142287568Y-93429619D01*
X142287568Y-93429619D02*
X142525663Y-93429619D01*
X142525663Y-93429619D02*
X142668520Y-93477238D01*
X142668520Y-93477238D02*
X142763758Y-93572476D01*
X142763758Y-93572476D02*
X142811377Y-93667714D01*
X142811377Y-93667714D02*
X142858996Y-93858190D01*
X142858996Y-93858190D02*
X142858996Y-94001047D01*
X142858996Y-94001047D02*
X142811377Y-94191523D01*
X142811377Y-94191523D02*
X142763758Y-94286761D01*
X142763758Y-94286761D02*
X142668520Y-94382000D01*
X142668520Y-94382000D02*
X142525663Y-94429619D01*
X142525663Y-94429619D02*
X142287568Y-94429619D01*
X143668520Y-94382000D02*
X143573282Y-94429619D01*
X143573282Y-94429619D02*
X143382806Y-94429619D01*
X143382806Y-94429619D02*
X143287568Y-94382000D01*
X143287568Y-94382000D02*
X143239949Y-94286761D01*
X143239949Y-94286761D02*
X143239949Y-93905809D01*
X143239949Y-93905809D02*
X143287568Y-93810571D01*
X143287568Y-93810571D02*
X143382806Y-93762952D01*
X143382806Y-93762952D02*
X143573282Y-93762952D01*
X143573282Y-93762952D02*
X143668520Y-93810571D01*
X143668520Y-93810571D02*
X143716139Y-93905809D01*
X143716139Y-93905809D02*
X143716139Y-94001047D01*
X143716139Y-94001047D02*
X143239949Y-94096285D01*
X144097092Y-94382000D02*
X144192330Y-94429619D01*
X144192330Y-94429619D02*
X144382806Y-94429619D01*
X144382806Y-94429619D02*
X144478044Y-94382000D01*
X144478044Y-94382000D02*
X144525663Y-94286761D01*
X144525663Y-94286761D02*
X144525663Y-94239142D01*
X144525663Y-94239142D02*
X144478044Y-94143904D01*
X144478044Y-94143904D02*
X144382806Y-94096285D01*
X144382806Y-94096285D02*
X144239949Y-94096285D01*
X144239949Y-94096285D02*
X144144711Y-94048666D01*
X144144711Y-94048666D02*
X144097092Y-93953428D01*
X144097092Y-93953428D02*
X144097092Y-93905809D01*
X144097092Y-93905809D02*
X144144711Y-93810571D01*
X144144711Y-93810571D02*
X144239949Y-93762952D01*
X144239949Y-93762952D02*
X144382806Y-93762952D01*
X144382806Y-93762952D02*
X144478044Y-93810571D01*
X144954235Y-94429619D02*
X144954235Y-93762952D01*
X144954235Y-93429619D02*
X144906616Y-93477238D01*
X144906616Y-93477238D02*
X144954235Y-93524857D01*
X144954235Y-93524857D02*
X145001854Y-93477238D01*
X145001854Y-93477238D02*
X144954235Y-93429619D01*
X144954235Y-93429619D02*
X144954235Y-93524857D01*
X145858996Y-93762952D02*
X145858996Y-94572476D01*
X145858996Y-94572476D02*
X145811377Y-94667714D01*
X145811377Y-94667714D02*
X145763758Y-94715333D01*
X145763758Y-94715333D02*
X145668520Y-94762952D01*
X145668520Y-94762952D02*
X145525663Y-94762952D01*
X145525663Y-94762952D02*
X145430425Y-94715333D01*
X145858996Y-94382000D02*
X145763758Y-94429619D01*
X145763758Y-94429619D02*
X145573282Y-94429619D01*
X145573282Y-94429619D02*
X145478044Y-94382000D01*
X145478044Y-94382000D02*
X145430425Y-94334380D01*
X145430425Y-94334380D02*
X145382806Y-94239142D01*
X145382806Y-94239142D02*
X145382806Y-93953428D01*
X145382806Y-93953428D02*
X145430425Y-93858190D01*
X145430425Y-93858190D02*
X145478044Y-93810571D01*
X145478044Y-93810571D02*
X145573282Y-93762952D01*
X145573282Y-93762952D02*
X145763758Y-93762952D01*
X145763758Y-93762952D02*
X145858996Y-93810571D01*
X146335187Y-93762952D02*
X146335187Y-94429619D01*
X146335187Y-93858190D02*
X146382806Y-93810571D01*
X146382806Y-93810571D02*
X146478044Y-93762952D01*
X146478044Y-93762952D02*
X146620901Y-93762952D01*
X146620901Y-93762952D02*
X146716139Y-93810571D01*
X146716139Y-93810571D02*
X146763758Y-93905809D01*
X146763758Y-93905809D02*
X146763758Y-94429619D01*
X147620901Y-94382000D02*
X147525663Y-94429619D01*
X147525663Y-94429619D02*
X147335187Y-94429619D01*
X147335187Y-94429619D02*
X147239949Y-94382000D01*
X147239949Y-94382000D02*
X147192330Y-94286761D01*
X147192330Y-94286761D02*
X147192330Y-93905809D01*
X147192330Y-93905809D02*
X147239949Y-93810571D01*
X147239949Y-93810571D02*
X147335187Y-93762952D01*
X147335187Y-93762952D02*
X147525663Y-93762952D01*
X147525663Y-93762952D02*
X147620901Y-93810571D01*
X147620901Y-93810571D02*
X147668520Y-93905809D01*
X147668520Y-93905809D02*
X147668520Y-94001047D01*
X147668520Y-94001047D02*
X147192330Y-94096285D01*
X148525663Y-94429619D02*
X148525663Y-93429619D01*
X148525663Y-94382000D02*
X148430425Y-94429619D01*
X148430425Y-94429619D02*
X148239949Y-94429619D01*
X148239949Y-94429619D02*
X148144711Y-94382000D01*
X148144711Y-94382000D02*
X148097092Y-94334380D01*
X148097092Y-94334380D02*
X148049473Y-94239142D01*
X148049473Y-94239142D02*
X148049473Y-93953428D01*
X148049473Y-93953428D02*
X148097092Y-93858190D01*
X148097092Y-93858190D02*
X148144711Y-93810571D01*
X148144711Y-93810571D02*
X148239949Y-93762952D01*
X148239949Y-93762952D02*
X148430425Y-93762952D01*
X148430425Y-93762952D02*
X148525663Y-93810571D01*
X149763759Y-94429619D02*
X149763759Y-93429619D01*
X149763759Y-93810571D02*
X149858997Y-93762952D01*
X149858997Y-93762952D02*
X150049473Y-93762952D01*
X150049473Y-93762952D02*
X150144711Y-93810571D01*
X150144711Y-93810571D02*
X150192330Y-93858190D01*
X150192330Y-93858190D02*
X150239949Y-93953428D01*
X150239949Y-93953428D02*
X150239949Y-94239142D01*
X150239949Y-94239142D02*
X150192330Y-94334380D01*
X150192330Y-94334380D02*
X150144711Y-94382000D01*
X150144711Y-94382000D02*
X150049473Y-94429619D01*
X150049473Y-94429619D02*
X149858997Y-94429619D01*
X149858997Y-94429619D02*
X149763759Y-94382000D01*
X150573283Y-93762952D02*
X150811378Y-94429619D01*
X151049473Y-93762952D02*
X150811378Y-94429619D01*
X150811378Y-94429619D02*
X150716140Y-94667714D01*
X150716140Y-94667714D02*
X150668521Y-94715333D01*
X150668521Y-94715333D02*
X150573283Y-94762952D01*
X152192331Y-94429619D02*
X152192331Y-93429619D01*
X152192331Y-93429619D02*
X152525664Y-94143904D01*
X152525664Y-94143904D02*
X152858997Y-93429619D01*
X152858997Y-93429619D02*
X152858997Y-94429619D01*
X153716140Y-94382000D02*
X153620902Y-94429619D01*
X153620902Y-94429619D02*
X153430426Y-94429619D01*
X153430426Y-94429619D02*
X153335188Y-94382000D01*
X153335188Y-94382000D02*
X153287569Y-94286761D01*
X153287569Y-94286761D02*
X153287569Y-93905809D01*
X153287569Y-93905809D02*
X153335188Y-93810571D01*
X153335188Y-93810571D02*
X153430426Y-93762952D01*
X153430426Y-93762952D02*
X153620902Y-93762952D01*
X153620902Y-93762952D02*
X153716140Y-93810571D01*
X153716140Y-93810571D02*
X153763759Y-93905809D01*
X153763759Y-93905809D02*
X153763759Y-94001047D01*
X153763759Y-94001047D02*
X153287569Y-94096285D01*
X154192331Y-94429619D02*
X154192331Y-93762952D01*
X154192331Y-93953428D02*
X154239950Y-93858190D01*
X154239950Y-93858190D02*
X154287569Y-93810571D01*
X154287569Y-93810571D02*
X154382807Y-93762952D01*
X154382807Y-93762952D02*
X154478045Y-93762952D01*
X154811379Y-94429619D02*
X154811379Y-93762952D01*
X154811379Y-93953428D02*
X154858998Y-93858190D01*
X154858998Y-93858190D02*
X154906617Y-93810571D01*
X154906617Y-93810571D02*
X155001855Y-93762952D01*
X155001855Y-93762952D02*
X155097093Y-93762952D01*
X155430427Y-94429619D02*
X155430427Y-93762952D01*
X155430427Y-93429619D02*
X155382808Y-93477238D01*
X155382808Y-93477238D02*
X155430427Y-93524857D01*
X155430427Y-93524857D02*
X155478046Y-93477238D01*
X155478046Y-93477238D02*
X155430427Y-93429619D01*
X155430427Y-93429619D02*
X155430427Y-93524857D01*
X156335188Y-94382000D02*
X156239950Y-94429619D01*
X156239950Y-94429619D02*
X156049474Y-94429619D01*
X156049474Y-94429619D02*
X155954236Y-94382000D01*
X155954236Y-94382000D02*
X155906617Y-94334380D01*
X155906617Y-94334380D02*
X155858998Y-94239142D01*
X155858998Y-94239142D02*
X155858998Y-93953428D01*
X155858998Y-93953428D02*
X155906617Y-93858190D01*
X155906617Y-93858190D02*
X155954236Y-93810571D01*
X155954236Y-93810571D02*
X156049474Y-93762952D01*
X156049474Y-93762952D02*
X156239950Y-93762952D01*
X156239950Y-93762952D02*
X156335188Y-93810571D01*
X156763760Y-94429619D02*
X156763760Y-93429619D01*
X156858998Y-94048666D02*
X157144712Y-94429619D01*
X157144712Y-93762952D02*
X156763760Y-94143904D01*
X158906617Y-94334380D02*
X158858998Y-94382000D01*
X158858998Y-94382000D02*
X158716141Y-94429619D01*
X158716141Y-94429619D02*
X158620903Y-94429619D01*
X158620903Y-94429619D02*
X158478046Y-94382000D01*
X158478046Y-94382000D02*
X158382808Y-94286761D01*
X158382808Y-94286761D02*
X158335189Y-94191523D01*
X158335189Y-94191523D02*
X158287570Y-94001047D01*
X158287570Y-94001047D02*
X158287570Y-93858190D01*
X158287570Y-93858190D02*
X158335189Y-93667714D01*
X158335189Y-93667714D02*
X158382808Y-93572476D01*
X158382808Y-93572476D02*
X158478046Y-93477238D01*
X158478046Y-93477238D02*
X158620903Y-93429619D01*
X158620903Y-93429619D02*
X158716141Y-93429619D01*
X158716141Y-93429619D02*
X158858998Y-93477238D01*
X158858998Y-93477238D02*
X158906617Y-93524857D01*
X159763760Y-94429619D02*
X159763760Y-93905809D01*
X159763760Y-93905809D02*
X159716141Y-93810571D01*
X159716141Y-93810571D02*
X159620903Y-93762952D01*
X159620903Y-93762952D02*
X159430427Y-93762952D01*
X159430427Y-93762952D02*
X159335189Y-93810571D01*
X159763760Y-94382000D02*
X159668522Y-94429619D01*
X159668522Y-94429619D02*
X159430427Y-94429619D01*
X159430427Y-94429619D02*
X159335189Y-94382000D01*
X159335189Y-94382000D02*
X159287570Y-94286761D01*
X159287570Y-94286761D02*
X159287570Y-94191523D01*
X159287570Y-94191523D02*
X159335189Y-94096285D01*
X159335189Y-94096285D02*
X159430427Y-94048666D01*
X159430427Y-94048666D02*
X159668522Y-94048666D01*
X159668522Y-94048666D02*
X159763760Y-94001047D01*
X160382808Y-94429619D02*
X160287570Y-94382000D01*
X160287570Y-94382000D02*
X160239951Y-94286761D01*
X160239951Y-94286761D02*
X160239951Y-93429619D01*
X161192332Y-94429619D02*
X161192332Y-93429619D01*
X161192332Y-94382000D02*
X161097094Y-94429619D01*
X161097094Y-94429619D02*
X160906618Y-94429619D01*
X160906618Y-94429619D02*
X160811380Y-94382000D01*
X160811380Y-94382000D02*
X160763761Y-94334380D01*
X160763761Y-94334380D02*
X160716142Y-94239142D01*
X160716142Y-94239142D02*
X160716142Y-93953428D01*
X160716142Y-93953428D02*
X160763761Y-93858190D01*
X160763761Y-93858190D02*
X160811380Y-93810571D01*
X160811380Y-93810571D02*
X160906618Y-93762952D01*
X160906618Y-93762952D02*
X161097094Y-93762952D01*
X161097094Y-93762952D02*
X161192332Y-93810571D01*
X162049475Y-94382000D02*
X161954237Y-94429619D01*
X161954237Y-94429619D02*
X161763761Y-94429619D01*
X161763761Y-94429619D02*
X161668523Y-94382000D01*
X161668523Y-94382000D02*
X161620904Y-94286761D01*
X161620904Y-94286761D02*
X161620904Y-93905809D01*
X161620904Y-93905809D02*
X161668523Y-93810571D01*
X161668523Y-93810571D02*
X161763761Y-93762952D01*
X161763761Y-93762952D02*
X161954237Y-93762952D01*
X161954237Y-93762952D02*
X162049475Y-93810571D01*
X162049475Y-93810571D02*
X162097094Y-93905809D01*
X162097094Y-93905809D02*
X162097094Y-94001047D01*
X162097094Y-94001047D02*
X161620904Y-94096285D01*
X162525666Y-94429619D02*
X162525666Y-93762952D01*
X162525666Y-93953428D02*
X162573285Y-93858190D01*
X162573285Y-93858190D02*
X162620904Y-93810571D01*
X162620904Y-93810571D02*
X162716142Y-93762952D01*
X162716142Y-93762952D02*
X162811380Y-93762952D01*
X142325663Y-92107238D02*
X142325663Y-90107238D01*
X142325663Y-90107238D02*
X143468520Y-92107238D01*
X143468520Y-92107238D02*
X143468520Y-90107238D01*
X144420901Y-91059619D02*
X145087568Y-91059619D01*
X145373282Y-92107238D02*
X144420901Y-92107238D01*
X144420901Y-92107238D02*
X144420901Y-90107238D01*
X144420901Y-90107238D02*
X145373282Y-90107238D01*
X145944711Y-90107238D02*
X147087568Y-90107238D01*
X146516139Y-92107238D02*
X146516139Y-90107238D01*
X147754235Y-92107238D02*
X147754235Y-90107238D01*
X147754235Y-90107238D02*
X148230425Y-90107238D01*
X148230425Y-90107238D02*
X148516140Y-90202476D01*
X148516140Y-90202476D02*
X148706616Y-90392952D01*
X148706616Y-90392952D02*
X148801854Y-90583428D01*
X148801854Y-90583428D02*
X148897092Y-90964380D01*
X148897092Y-90964380D02*
X148897092Y-91250095D01*
X148897092Y-91250095D02*
X148801854Y-91631047D01*
X148801854Y-91631047D02*
X148706616Y-91821523D01*
X148706616Y-91821523D02*
X148516140Y-92012000D01*
X148516140Y-92012000D02*
X148230425Y-92107238D01*
X148230425Y-92107238D02*
X147754235Y-92107238D01*
X149754235Y-91059619D02*
X150420902Y-91059619D01*
X150706616Y-92107238D02*
X149754235Y-92107238D01*
X149754235Y-92107238D02*
X149754235Y-90107238D01*
X149754235Y-90107238D02*
X150706616Y-90107238D01*
X152706616Y-91916761D02*
X152611378Y-92012000D01*
X152611378Y-92012000D02*
X152325664Y-92107238D01*
X152325664Y-92107238D02*
X152135188Y-92107238D01*
X152135188Y-92107238D02*
X151849473Y-92012000D01*
X151849473Y-92012000D02*
X151658997Y-91821523D01*
X151658997Y-91821523D02*
X151563759Y-91631047D01*
X151563759Y-91631047D02*
X151468521Y-91250095D01*
X151468521Y-91250095D02*
X151468521Y-90964380D01*
X151468521Y-90964380D02*
X151563759Y-90583428D01*
X151563759Y-90583428D02*
X151658997Y-90392952D01*
X151658997Y-90392952D02*
X151849473Y-90202476D01*
X151849473Y-90202476D02*
X152135188Y-90107238D01*
X152135188Y-90107238D02*
X152325664Y-90107238D01*
X152325664Y-90107238D02*
X152611378Y-90202476D01*
X152611378Y-90202476D02*
X152706616Y-90297714D01*
X153563759Y-92107238D02*
X153563759Y-90107238D01*
X154706616Y-92107238D02*
X153849473Y-90964380D01*
X154706616Y-90107238D02*
X153563759Y-91250095D01*
X157087569Y-92107238D02*
X157087569Y-90107238D01*
X157087569Y-90107238D02*
X157754236Y-91535809D01*
X157754236Y-91535809D02*
X158420902Y-90107238D01*
X158420902Y-90107238D02*
X158420902Y-92107238D01*
X159373283Y-92107238D02*
X159373283Y-90107238D01*
X159563759Y-91345333D02*
X160135188Y-92107238D01*
X160135188Y-90773904D02*
X159373283Y-91535809D01*
X160992331Y-92107238D02*
X160992331Y-90107238D01*
X161944712Y-92107238D02*
X161944712Y-90107238D01*
D12*
X143842618Y-59195390D02*
X143766428Y-59157295D01*
X143766428Y-59157295D02*
X143652142Y-59157295D01*
X143652142Y-59157295D02*
X143537856Y-59195390D01*
X143537856Y-59195390D02*
X143461666Y-59271580D01*
X143461666Y-59271580D02*
X143423571Y-59347771D01*
X143423571Y-59347771D02*
X143385475Y-59500152D01*
X143385475Y-59500152D02*
X143385475Y-59614438D01*
X143385475Y-59614438D02*
X143423571Y-59766819D01*
X143423571Y-59766819D02*
X143461666Y-59843009D01*
X143461666Y-59843009D02*
X143537856Y-59919200D01*
X143537856Y-59919200D02*
X143652142Y-59957295D01*
X143652142Y-59957295D02*
X143728333Y-59957295D01*
X143728333Y-59957295D02*
X143842618Y-59919200D01*
X143842618Y-59919200D02*
X143880714Y-59881104D01*
X143880714Y-59881104D02*
X143880714Y-59614438D01*
X143880714Y-59614438D02*
X143728333Y-59614438D01*
X144223571Y-59957295D02*
X144223571Y-59157295D01*
X144223571Y-59157295D02*
X144528333Y-59157295D01*
X144528333Y-59157295D02*
X144604523Y-59195390D01*
X144604523Y-59195390D02*
X144642618Y-59233485D01*
X144642618Y-59233485D02*
X144680714Y-59309676D01*
X144680714Y-59309676D02*
X144680714Y-59423961D01*
X144680714Y-59423961D02*
X144642618Y-59500152D01*
X144642618Y-59500152D02*
X144604523Y-59538247D01*
X144604523Y-59538247D02*
X144528333Y-59576342D01*
X144528333Y-59576342D02*
X144223571Y-59576342D01*
X145442618Y-59957295D02*
X144985475Y-59957295D01*
X145214047Y-59957295D02*
X145214047Y-59157295D01*
X145214047Y-59157295D02*
X145137856Y-59271580D01*
X145137856Y-59271580D02*
X145061666Y-59347771D01*
X145061666Y-59347771D02*
X144985475Y-59385866D01*
X146204523Y-59957295D02*
X145747380Y-59957295D01*
X145975952Y-59957295D02*
X145975952Y-59157295D01*
X145975952Y-59157295D02*
X145899761Y-59271580D01*
X145899761Y-59271580D02*
X145823571Y-59347771D01*
X145823571Y-59347771D02*
X145747380Y-59385866D01*
X154615476Y-41948723D02*
X154996429Y-41948723D01*
X154539286Y-42177295D02*
X154805953Y-41377295D01*
X154805953Y-41377295D02*
X155072619Y-42177295D01*
X155758333Y-41415390D02*
X155682143Y-41377295D01*
X155682143Y-41377295D02*
X155567857Y-41377295D01*
X155567857Y-41377295D02*
X155453571Y-41415390D01*
X155453571Y-41415390D02*
X155377381Y-41491580D01*
X155377381Y-41491580D02*
X155339286Y-41567771D01*
X155339286Y-41567771D02*
X155301190Y-41720152D01*
X155301190Y-41720152D02*
X155301190Y-41834438D01*
X155301190Y-41834438D02*
X155339286Y-41986819D01*
X155339286Y-41986819D02*
X155377381Y-42063009D01*
X155377381Y-42063009D02*
X155453571Y-42139200D01*
X155453571Y-42139200D02*
X155567857Y-42177295D01*
X155567857Y-42177295D02*
X155644048Y-42177295D01*
X155644048Y-42177295D02*
X155758333Y-42139200D01*
X155758333Y-42139200D02*
X155796429Y-42101104D01*
X155796429Y-42101104D02*
X155796429Y-41834438D01*
X155796429Y-41834438D02*
X155644048Y-41834438D01*
X156139286Y-42177295D02*
X156139286Y-41377295D01*
X156139286Y-41377295D02*
X156596429Y-42177295D01*
X156596429Y-42177295D02*
X156596429Y-41377295D01*
X156977381Y-42177295D02*
X156977381Y-41377295D01*
X156977381Y-41377295D02*
X157167857Y-41377295D01*
X157167857Y-41377295D02*
X157282143Y-41415390D01*
X157282143Y-41415390D02*
X157358333Y-41491580D01*
X157358333Y-41491580D02*
X157396428Y-41567771D01*
X157396428Y-41567771D02*
X157434524Y-41720152D01*
X157434524Y-41720152D02*
X157434524Y-41834438D01*
X157434524Y-41834438D02*
X157396428Y-41986819D01*
X157396428Y-41986819D02*
X157358333Y-42063009D01*
X157358333Y-42063009D02*
X157282143Y-42139200D01*
X157282143Y-42139200D02*
X157167857Y-42177295D01*
X157167857Y-42177295D02*
X156977381Y-42177295D01*
X155765476Y-66815390D02*
X155689286Y-66777295D01*
X155689286Y-66777295D02*
X155575000Y-66777295D01*
X155575000Y-66777295D02*
X155460714Y-66815390D01*
X155460714Y-66815390D02*
X155384524Y-66891580D01*
X155384524Y-66891580D02*
X155346429Y-66967771D01*
X155346429Y-66967771D02*
X155308333Y-67120152D01*
X155308333Y-67120152D02*
X155308333Y-67234438D01*
X155308333Y-67234438D02*
X155346429Y-67386819D01*
X155346429Y-67386819D02*
X155384524Y-67463009D01*
X155384524Y-67463009D02*
X155460714Y-67539200D01*
X155460714Y-67539200D02*
X155575000Y-67577295D01*
X155575000Y-67577295D02*
X155651191Y-67577295D01*
X155651191Y-67577295D02*
X155765476Y-67539200D01*
X155765476Y-67539200D02*
X155803572Y-67501104D01*
X155803572Y-67501104D02*
X155803572Y-67234438D01*
X155803572Y-67234438D02*
X155651191Y-67234438D01*
X156146429Y-67577295D02*
X156146429Y-66777295D01*
X156146429Y-66777295D02*
X156603572Y-67577295D01*
X156603572Y-67577295D02*
X156603572Y-66777295D01*
X156984524Y-67577295D02*
X156984524Y-66777295D01*
X156984524Y-66777295D02*
X157175000Y-66777295D01*
X157175000Y-66777295D02*
X157289286Y-66815390D01*
X157289286Y-66815390D02*
X157365476Y-66891580D01*
X157365476Y-66891580D02*
X157403571Y-66967771D01*
X157403571Y-66967771D02*
X157441667Y-67120152D01*
X157441667Y-67120152D02*
X157441667Y-67234438D01*
X157441667Y-67234438D02*
X157403571Y-67386819D01*
X157403571Y-67386819D02*
X157365476Y-67463009D01*
X157365476Y-67463009D02*
X157289286Y-67539200D01*
X157289286Y-67539200D02*
X157175000Y-67577295D01*
X157175000Y-67577295D02*
X156984524Y-67577295D01*
X154808333Y-23597295D02*
X155075000Y-24397295D01*
X155075000Y-24397295D02*
X155341666Y-23597295D01*
X155874999Y-23978247D02*
X155989285Y-24016342D01*
X155989285Y-24016342D02*
X156027380Y-24054438D01*
X156027380Y-24054438D02*
X156065476Y-24130628D01*
X156065476Y-24130628D02*
X156065476Y-24244914D01*
X156065476Y-24244914D02*
X156027380Y-24321104D01*
X156027380Y-24321104D02*
X155989285Y-24359200D01*
X155989285Y-24359200D02*
X155913095Y-24397295D01*
X155913095Y-24397295D02*
X155608333Y-24397295D01*
X155608333Y-24397295D02*
X155608333Y-23597295D01*
X155608333Y-23597295D02*
X155874999Y-23597295D01*
X155874999Y-23597295D02*
X155951190Y-23635390D01*
X155951190Y-23635390D02*
X155989285Y-23673485D01*
X155989285Y-23673485D02*
X156027380Y-23749676D01*
X156027380Y-23749676D02*
X156027380Y-23825866D01*
X156027380Y-23825866D02*
X155989285Y-23902057D01*
X155989285Y-23902057D02*
X155951190Y-23940152D01*
X155951190Y-23940152D02*
X155874999Y-23978247D01*
X155874999Y-23978247D02*
X155608333Y-23978247D01*
X156408333Y-23597295D02*
X156408333Y-24244914D01*
X156408333Y-24244914D02*
X156446428Y-24321104D01*
X156446428Y-24321104D02*
X156484523Y-24359200D01*
X156484523Y-24359200D02*
X156560714Y-24397295D01*
X156560714Y-24397295D02*
X156713095Y-24397295D01*
X156713095Y-24397295D02*
X156789285Y-24359200D01*
X156789285Y-24359200D02*
X156827380Y-24321104D01*
X156827380Y-24321104D02*
X156865476Y-24244914D01*
X156865476Y-24244914D02*
X156865476Y-23597295D01*
X157208332Y-24359200D02*
X157322618Y-24397295D01*
X157322618Y-24397295D02*
X157513094Y-24397295D01*
X157513094Y-24397295D02*
X157589285Y-24359200D01*
X157589285Y-24359200D02*
X157627380Y-24321104D01*
X157627380Y-24321104D02*
X157665475Y-24244914D01*
X157665475Y-24244914D02*
X157665475Y-24168723D01*
X157665475Y-24168723D02*
X157627380Y-24092533D01*
X157627380Y-24092533D02*
X157589285Y-24054438D01*
X157589285Y-24054438D02*
X157513094Y-24016342D01*
X157513094Y-24016342D02*
X157360713Y-23978247D01*
X157360713Y-23978247D02*
X157284523Y-23940152D01*
X157284523Y-23940152D02*
X157246428Y-23902057D01*
X157246428Y-23902057D02*
X157208332Y-23825866D01*
X157208332Y-23825866D02*
X157208332Y-23749676D01*
X157208332Y-23749676D02*
X157246428Y-23673485D01*
X157246428Y-23673485D02*
X157284523Y-23635390D01*
X157284523Y-23635390D02*
X157360713Y-23597295D01*
X157360713Y-23597295D02*
X157551190Y-23597295D01*
X157551190Y-23597295D02*
X157665475Y-23635390D01*
X155915476Y-28715390D02*
X155839286Y-28677295D01*
X155839286Y-28677295D02*
X155725000Y-28677295D01*
X155725000Y-28677295D02*
X155610714Y-28715390D01*
X155610714Y-28715390D02*
X155534524Y-28791580D01*
X155534524Y-28791580D02*
X155496429Y-28867771D01*
X155496429Y-28867771D02*
X155458333Y-29020152D01*
X155458333Y-29020152D02*
X155458333Y-29134438D01*
X155458333Y-29134438D02*
X155496429Y-29286819D01*
X155496429Y-29286819D02*
X155534524Y-29363009D01*
X155534524Y-29363009D02*
X155610714Y-29439200D01*
X155610714Y-29439200D02*
X155725000Y-29477295D01*
X155725000Y-29477295D02*
X155801191Y-29477295D01*
X155801191Y-29477295D02*
X155915476Y-29439200D01*
X155915476Y-29439200D02*
X155953572Y-29401104D01*
X155953572Y-29401104D02*
X155953572Y-29134438D01*
X155953572Y-29134438D02*
X155801191Y-29134438D01*
X156296429Y-29477295D02*
X156296429Y-28677295D01*
X156296429Y-28677295D02*
X156753572Y-29477295D01*
X156753572Y-29477295D02*
X156753572Y-28677295D01*
X157134524Y-29477295D02*
X157134524Y-28677295D01*
X157134524Y-28677295D02*
X157325000Y-28677295D01*
X157325000Y-28677295D02*
X157439286Y-28715390D01*
X157439286Y-28715390D02*
X157515476Y-28791580D01*
X157515476Y-28791580D02*
X157553571Y-28867771D01*
X157553571Y-28867771D02*
X157591667Y-29020152D01*
X157591667Y-29020152D02*
X157591667Y-29134438D01*
X157591667Y-29134438D02*
X157553571Y-29286819D01*
X157553571Y-29286819D02*
X157515476Y-29363009D01*
X157515476Y-29363009D02*
X157439286Y-29439200D01*
X157439286Y-29439200D02*
X157325000Y-29477295D01*
X157325000Y-29477295D02*
X157134524Y-29477295D01*
X143842618Y-64275390D02*
X143766428Y-64237295D01*
X143766428Y-64237295D02*
X143652142Y-64237295D01*
X143652142Y-64237295D02*
X143537856Y-64275390D01*
X143537856Y-64275390D02*
X143461666Y-64351580D01*
X143461666Y-64351580D02*
X143423571Y-64427771D01*
X143423571Y-64427771D02*
X143385475Y-64580152D01*
X143385475Y-64580152D02*
X143385475Y-64694438D01*
X143385475Y-64694438D02*
X143423571Y-64846819D01*
X143423571Y-64846819D02*
X143461666Y-64923009D01*
X143461666Y-64923009D02*
X143537856Y-64999200D01*
X143537856Y-64999200D02*
X143652142Y-65037295D01*
X143652142Y-65037295D02*
X143728333Y-65037295D01*
X143728333Y-65037295D02*
X143842618Y-64999200D01*
X143842618Y-64999200D02*
X143880714Y-64961104D01*
X143880714Y-64961104D02*
X143880714Y-64694438D01*
X143880714Y-64694438D02*
X143728333Y-64694438D01*
X144223571Y-65037295D02*
X144223571Y-64237295D01*
X144223571Y-64237295D02*
X144528333Y-64237295D01*
X144528333Y-64237295D02*
X144604523Y-64275390D01*
X144604523Y-64275390D02*
X144642618Y-64313485D01*
X144642618Y-64313485D02*
X144680714Y-64389676D01*
X144680714Y-64389676D02*
X144680714Y-64503961D01*
X144680714Y-64503961D02*
X144642618Y-64580152D01*
X144642618Y-64580152D02*
X144604523Y-64618247D01*
X144604523Y-64618247D02*
X144528333Y-64656342D01*
X144528333Y-64656342D02*
X144223571Y-64656342D01*
X145442618Y-65037295D02*
X144985475Y-65037295D01*
X145214047Y-65037295D02*
X145214047Y-64237295D01*
X145214047Y-64237295D02*
X145137856Y-64351580D01*
X145137856Y-64351580D02*
X145061666Y-64427771D01*
X145061666Y-64427771D02*
X144985475Y-64465866D01*
X145709285Y-64237295D02*
X146204523Y-64237295D01*
X146204523Y-64237295D02*
X145937857Y-64542057D01*
X145937857Y-64542057D02*
X146052142Y-64542057D01*
X146052142Y-64542057D02*
X146128333Y-64580152D01*
X146128333Y-64580152D02*
X146166428Y-64618247D01*
X146166428Y-64618247D02*
X146204523Y-64694438D01*
X146204523Y-64694438D02*
X146204523Y-64884914D01*
X146204523Y-64884914D02*
X146166428Y-64961104D01*
X146166428Y-64961104D02*
X146128333Y-64999200D01*
X146128333Y-64999200D02*
X146052142Y-65037295D01*
X146052142Y-65037295D02*
X145823571Y-65037295D01*
X145823571Y-65037295D02*
X145747380Y-64999200D01*
X145747380Y-64999200D02*
X145709285Y-64961104D01*
X152032142Y-36868723D02*
X152413095Y-36868723D01*
X151955952Y-37097295D02*
X152222619Y-36297295D01*
X152222619Y-36297295D02*
X152489285Y-37097295D01*
X152755952Y-37097295D02*
X152755952Y-36297295D01*
X152755952Y-36297295D02*
X152946428Y-36297295D01*
X152946428Y-36297295D02*
X153060714Y-36335390D01*
X153060714Y-36335390D02*
X153136904Y-36411580D01*
X153136904Y-36411580D02*
X153174999Y-36487771D01*
X153174999Y-36487771D02*
X153213095Y-36640152D01*
X153213095Y-36640152D02*
X153213095Y-36754438D01*
X153213095Y-36754438D02*
X153174999Y-36906819D01*
X153174999Y-36906819D02*
X153136904Y-36983009D01*
X153136904Y-36983009D02*
X153060714Y-37059200D01*
X153060714Y-37059200D02*
X152946428Y-37097295D01*
X152946428Y-37097295D02*
X152755952Y-37097295D01*
X154013095Y-37021104D02*
X153974999Y-37059200D01*
X153974999Y-37059200D02*
X153860714Y-37097295D01*
X153860714Y-37097295D02*
X153784523Y-37097295D01*
X153784523Y-37097295D02*
X153670237Y-37059200D01*
X153670237Y-37059200D02*
X153594047Y-36983009D01*
X153594047Y-36983009D02*
X153555952Y-36906819D01*
X153555952Y-36906819D02*
X153517856Y-36754438D01*
X153517856Y-36754438D02*
X153517856Y-36640152D01*
X153517856Y-36640152D02*
X153555952Y-36487771D01*
X153555952Y-36487771D02*
X153594047Y-36411580D01*
X153594047Y-36411580D02*
X153670237Y-36335390D01*
X153670237Y-36335390D02*
X153784523Y-36297295D01*
X153784523Y-36297295D02*
X153860714Y-36297295D01*
X153860714Y-36297295D02*
X153974999Y-36335390D01*
X153974999Y-36335390D02*
X154013095Y-36373485D01*
X154165476Y-37173485D02*
X154774999Y-37173485D01*
X154851190Y-36297295D02*
X155117857Y-37097295D01*
X155117857Y-37097295D02*
X155384523Y-36297295D01*
X156108333Y-37097295D02*
X155841666Y-36716342D01*
X155651190Y-37097295D02*
X155651190Y-36297295D01*
X155651190Y-36297295D02*
X155955952Y-36297295D01*
X155955952Y-36297295D02*
X156032142Y-36335390D01*
X156032142Y-36335390D02*
X156070237Y-36373485D01*
X156070237Y-36373485D02*
X156108333Y-36449676D01*
X156108333Y-36449676D02*
X156108333Y-36563961D01*
X156108333Y-36563961D02*
X156070237Y-36640152D01*
X156070237Y-36640152D02*
X156032142Y-36678247D01*
X156032142Y-36678247D02*
X155955952Y-36716342D01*
X155955952Y-36716342D02*
X155651190Y-36716342D01*
X156451190Y-36678247D02*
X156717856Y-36678247D01*
X156832142Y-37097295D02*
X156451190Y-37097295D01*
X156451190Y-37097295D02*
X156451190Y-36297295D01*
X156451190Y-36297295D02*
X156832142Y-36297295D01*
X157441666Y-36678247D02*
X157175000Y-36678247D01*
X157175000Y-37097295D02*
X157175000Y-36297295D01*
X157175000Y-36297295D02*
X157555952Y-36297295D01*
X143873571Y-36335390D02*
X143797381Y-36297295D01*
X143797381Y-36297295D02*
X143683095Y-36297295D01*
X143683095Y-36297295D02*
X143568809Y-36335390D01*
X143568809Y-36335390D02*
X143492619Y-36411580D01*
X143492619Y-36411580D02*
X143454524Y-36487771D01*
X143454524Y-36487771D02*
X143416428Y-36640152D01*
X143416428Y-36640152D02*
X143416428Y-36754438D01*
X143416428Y-36754438D02*
X143454524Y-36906819D01*
X143454524Y-36906819D02*
X143492619Y-36983009D01*
X143492619Y-36983009D02*
X143568809Y-37059200D01*
X143568809Y-37059200D02*
X143683095Y-37097295D01*
X143683095Y-37097295D02*
X143759286Y-37097295D01*
X143759286Y-37097295D02*
X143873571Y-37059200D01*
X143873571Y-37059200D02*
X143911667Y-37021104D01*
X143911667Y-37021104D02*
X143911667Y-36754438D01*
X143911667Y-36754438D02*
X143759286Y-36754438D01*
X144254524Y-37097295D02*
X144254524Y-36297295D01*
X144254524Y-36297295D02*
X144559286Y-36297295D01*
X144559286Y-36297295D02*
X144635476Y-36335390D01*
X144635476Y-36335390D02*
X144673571Y-36373485D01*
X144673571Y-36373485D02*
X144711667Y-36449676D01*
X144711667Y-36449676D02*
X144711667Y-36563961D01*
X144711667Y-36563961D02*
X144673571Y-36640152D01*
X144673571Y-36640152D02*
X144635476Y-36678247D01*
X144635476Y-36678247D02*
X144559286Y-36716342D01*
X144559286Y-36716342D02*
X144254524Y-36716342D01*
X145397381Y-36563961D02*
X145397381Y-37097295D01*
X145206905Y-36259200D02*
X145016428Y-36830628D01*
X145016428Y-36830628D02*
X145511667Y-36830628D01*
X143873571Y-46465390D02*
X143797381Y-46427295D01*
X143797381Y-46427295D02*
X143683095Y-46427295D01*
X143683095Y-46427295D02*
X143568809Y-46465390D01*
X143568809Y-46465390D02*
X143492619Y-46541580D01*
X143492619Y-46541580D02*
X143454524Y-46617771D01*
X143454524Y-46617771D02*
X143416428Y-46770152D01*
X143416428Y-46770152D02*
X143416428Y-46884438D01*
X143416428Y-46884438D02*
X143454524Y-47036819D01*
X143454524Y-47036819D02*
X143492619Y-47113009D01*
X143492619Y-47113009D02*
X143568809Y-47189200D01*
X143568809Y-47189200D02*
X143683095Y-47227295D01*
X143683095Y-47227295D02*
X143759286Y-47227295D01*
X143759286Y-47227295D02*
X143873571Y-47189200D01*
X143873571Y-47189200D02*
X143911667Y-47151104D01*
X143911667Y-47151104D02*
X143911667Y-46884438D01*
X143911667Y-46884438D02*
X143759286Y-46884438D01*
X144254524Y-47227295D02*
X144254524Y-46427295D01*
X144254524Y-46427295D02*
X144559286Y-46427295D01*
X144559286Y-46427295D02*
X144635476Y-46465390D01*
X144635476Y-46465390D02*
X144673571Y-46503485D01*
X144673571Y-46503485D02*
X144711667Y-46579676D01*
X144711667Y-46579676D02*
X144711667Y-46693961D01*
X144711667Y-46693961D02*
X144673571Y-46770152D01*
X144673571Y-46770152D02*
X144635476Y-46808247D01*
X144635476Y-46808247D02*
X144559286Y-46846342D01*
X144559286Y-46846342D02*
X144254524Y-46846342D01*
X144978333Y-46427295D02*
X145511667Y-46427295D01*
X145511667Y-46427295D02*
X145168809Y-47227295D01*
X143842618Y-71895390D02*
X143766428Y-71857295D01*
X143766428Y-71857295D02*
X143652142Y-71857295D01*
X143652142Y-71857295D02*
X143537856Y-71895390D01*
X143537856Y-71895390D02*
X143461666Y-71971580D01*
X143461666Y-71971580D02*
X143423571Y-72047771D01*
X143423571Y-72047771D02*
X143385475Y-72200152D01*
X143385475Y-72200152D02*
X143385475Y-72314438D01*
X143385475Y-72314438D02*
X143423571Y-72466819D01*
X143423571Y-72466819D02*
X143461666Y-72543009D01*
X143461666Y-72543009D02*
X143537856Y-72619200D01*
X143537856Y-72619200D02*
X143652142Y-72657295D01*
X143652142Y-72657295D02*
X143728333Y-72657295D01*
X143728333Y-72657295D02*
X143842618Y-72619200D01*
X143842618Y-72619200D02*
X143880714Y-72581104D01*
X143880714Y-72581104D02*
X143880714Y-72314438D01*
X143880714Y-72314438D02*
X143728333Y-72314438D01*
X144223571Y-72657295D02*
X144223571Y-71857295D01*
X144223571Y-71857295D02*
X144528333Y-71857295D01*
X144528333Y-71857295D02*
X144604523Y-71895390D01*
X144604523Y-71895390D02*
X144642618Y-71933485D01*
X144642618Y-71933485D02*
X144680714Y-72009676D01*
X144680714Y-72009676D02*
X144680714Y-72123961D01*
X144680714Y-72123961D02*
X144642618Y-72200152D01*
X144642618Y-72200152D02*
X144604523Y-72238247D01*
X144604523Y-72238247D02*
X144528333Y-72276342D01*
X144528333Y-72276342D02*
X144223571Y-72276342D01*
X145442618Y-72657295D02*
X144985475Y-72657295D01*
X145214047Y-72657295D02*
X145214047Y-71857295D01*
X145214047Y-71857295D02*
X145137856Y-71971580D01*
X145137856Y-71971580D02*
X145061666Y-72047771D01*
X145061666Y-72047771D02*
X144985475Y-72085866D01*
X146166428Y-71857295D02*
X145785476Y-71857295D01*
X145785476Y-71857295D02*
X145747380Y-72238247D01*
X145747380Y-72238247D02*
X145785476Y-72200152D01*
X145785476Y-72200152D02*
X145861666Y-72162057D01*
X145861666Y-72162057D02*
X146052142Y-72162057D01*
X146052142Y-72162057D02*
X146128333Y-72200152D01*
X146128333Y-72200152D02*
X146166428Y-72238247D01*
X146166428Y-72238247D02*
X146204523Y-72314438D01*
X146204523Y-72314438D02*
X146204523Y-72504914D01*
X146204523Y-72504914D02*
X146166428Y-72581104D01*
X146166428Y-72581104D02*
X146128333Y-72619200D01*
X146128333Y-72619200D02*
X146052142Y-72657295D01*
X146052142Y-72657295D02*
X145861666Y-72657295D01*
X145861666Y-72657295D02*
X145785476Y-72619200D01*
X145785476Y-72619200D02*
X145747380Y-72581104D01*
X155072618Y-69355390D02*
X154996428Y-69317295D01*
X154996428Y-69317295D02*
X154882142Y-69317295D01*
X154882142Y-69317295D02*
X154767856Y-69355390D01*
X154767856Y-69355390D02*
X154691666Y-69431580D01*
X154691666Y-69431580D02*
X154653571Y-69507771D01*
X154653571Y-69507771D02*
X154615475Y-69660152D01*
X154615475Y-69660152D02*
X154615475Y-69774438D01*
X154615475Y-69774438D02*
X154653571Y-69926819D01*
X154653571Y-69926819D02*
X154691666Y-70003009D01*
X154691666Y-70003009D02*
X154767856Y-70079200D01*
X154767856Y-70079200D02*
X154882142Y-70117295D01*
X154882142Y-70117295D02*
X154958333Y-70117295D01*
X154958333Y-70117295D02*
X155072618Y-70079200D01*
X155072618Y-70079200D02*
X155110714Y-70041104D01*
X155110714Y-70041104D02*
X155110714Y-69774438D01*
X155110714Y-69774438D02*
X154958333Y-69774438D01*
X155453571Y-70117295D02*
X155453571Y-69317295D01*
X155453571Y-69317295D02*
X155758333Y-69317295D01*
X155758333Y-69317295D02*
X155834523Y-69355390D01*
X155834523Y-69355390D02*
X155872618Y-69393485D01*
X155872618Y-69393485D02*
X155910714Y-69469676D01*
X155910714Y-69469676D02*
X155910714Y-69583961D01*
X155910714Y-69583961D02*
X155872618Y-69660152D01*
X155872618Y-69660152D02*
X155834523Y-69698247D01*
X155834523Y-69698247D02*
X155758333Y-69736342D01*
X155758333Y-69736342D02*
X155453571Y-69736342D01*
X156672618Y-70117295D02*
X156215475Y-70117295D01*
X156444047Y-70117295D02*
X156444047Y-69317295D01*
X156444047Y-69317295D02*
X156367856Y-69431580D01*
X156367856Y-69431580D02*
X156291666Y-69507771D01*
X156291666Y-69507771D02*
X156215475Y-69545866D01*
X156939285Y-69317295D02*
X157472619Y-69317295D01*
X157472619Y-69317295D02*
X157129761Y-70117295D01*
X155072618Y-46495390D02*
X154996428Y-46457295D01*
X154996428Y-46457295D02*
X154882142Y-46457295D01*
X154882142Y-46457295D02*
X154767856Y-46495390D01*
X154767856Y-46495390D02*
X154691666Y-46571580D01*
X154691666Y-46571580D02*
X154653571Y-46647771D01*
X154653571Y-46647771D02*
X154615475Y-46800152D01*
X154615475Y-46800152D02*
X154615475Y-46914438D01*
X154615475Y-46914438D02*
X154653571Y-47066819D01*
X154653571Y-47066819D02*
X154691666Y-47143009D01*
X154691666Y-47143009D02*
X154767856Y-47219200D01*
X154767856Y-47219200D02*
X154882142Y-47257295D01*
X154882142Y-47257295D02*
X154958333Y-47257295D01*
X154958333Y-47257295D02*
X155072618Y-47219200D01*
X155072618Y-47219200D02*
X155110714Y-47181104D01*
X155110714Y-47181104D02*
X155110714Y-46914438D01*
X155110714Y-46914438D02*
X154958333Y-46914438D01*
X155453571Y-47257295D02*
X155453571Y-46457295D01*
X155453571Y-46457295D02*
X155758333Y-46457295D01*
X155758333Y-46457295D02*
X155834523Y-46495390D01*
X155834523Y-46495390D02*
X155872618Y-46533485D01*
X155872618Y-46533485D02*
X155910714Y-46609676D01*
X155910714Y-46609676D02*
X155910714Y-46723961D01*
X155910714Y-46723961D02*
X155872618Y-46800152D01*
X155872618Y-46800152D02*
X155834523Y-46838247D01*
X155834523Y-46838247D02*
X155758333Y-46876342D01*
X155758333Y-46876342D02*
X155453571Y-46876342D01*
X156215475Y-46533485D02*
X156253571Y-46495390D01*
X156253571Y-46495390D02*
X156329761Y-46457295D01*
X156329761Y-46457295D02*
X156520237Y-46457295D01*
X156520237Y-46457295D02*
X156596428Y-46495390D01*
X156596428Y-46495390D02*
X156634523Y-46533485D01*
X156634523Y-46533485D02*
X156672618Y-46609676D01*
X156672618Y-46609676D02*
X156672618Y-46685866D01*
X156672618Y-46685866D02*
X156634523Y-46800152D01*
X156634523Y-46800152D02*
X156177380Y-47257295D01*
X156177380Y-47257295D02*
X156672618Y-47257295D01*
X157358333Y-46457295D02*
X157205952Y-46457295D01*
X157205952Y-46457295D02*
X157129761Y-46495390D01*
X157129761Y-46495390D02*
X157091666Y-46533485D01*
X157091666Y-46533485D02*
X157015476Y-46647771D01*
X157015476Y-46647771D02*
X156977380Y-46800152D01*
X156977380Y-46800152D02*
X156977380Y-47104914D01*
X156977380Y-47104914D02*
X157015476Y-47181104D01*
X157015476Y-47181104D02*
X157053571Y-47219200D01*
X157053571Y-47219200D02*
X157129761Y-47257295D01*
X157129761Y-47257295D02*
X157282142Y-47257295D01*
X157282142Y-47257295D02*
X157358333Y-47219200D01*
X157358333Y-47219200D02*
X157396428Y-47181104D01*
X157396428Y-47181104D02*
X157434523Y-47104914D01*
X157434523Y-47104914D02*
X157434523Y-46914438D01*
X157434523Y-46914438D02*
X157396428Y-46838247D01*
X157396428Y-46838247D02*
X157358333Y-46800152D01*
X157358333Y-46800152D02*
X157282142Y-46762057D01*
X157282142Y-46762057D02*
X157129761Y-46762057D01*
X157129761Y-46762057D02*
X157053571Y-46800152D01*
X157053571Y-46800152D02*
X157015476Y-46838247D01*
X157015476Y-46838247D02*
X156977380Y-46914438D01*
X148269200Y-70224524D02*
X148307295Y-70110238D01*
X148307295Y-70110238D02*
X148307295Y-69919762D01*
X148307295Y-69919762D02*
X148269200Y-69843571D01*
X148269200Y-69843571D02*
X148231104Y-69805476D01*
X148231104Y-69805476D02*
X148154914Y-69767381D01*
X148154914Y-69767381D02*
X148078723Y-69767381D01*
X148078723Y-69767381D02*
X148002533Y-69805476D01*
X148002533Y-69805476D02*
X147964438Y-69843571D01*
X147964438Y-69843571D02*
X147926342Y-69919762D01*
X147926342Y-69919762D02*
X147888247Y-70072143D01*
X147888247Y-70072143D02*
X147850152Y-70148333D01*
X147850152Y-70148333D02*
X147812057Y-70186428D01*
X147812057Y-70186428D02*
X147735866Y-70224524D01*
X147735866Y-70224524D02*
X147659676Y-70224524D01*
X147659676Y-70224524D02*
X147583485Y-70186428D01*
X147583485Y-70186428D02*
X147545390Y-70148333D01*
X147545390Y-70148333D02*
X147507295Y-70072143D01*
X147507295Y-70072143D02*
X147507295Y-69881666D01*
X147507295Y-69881666D02*
X147545390Y-69767381D01*
X147507295Y-69500714D02*
X148307295Y-69310238D01*
X148307295Y-69310238D02*
X147735866Y-69157857D01*
X147735866Y-69157857D02*
X148307295Y-69005476D01*
X148307295Y-69005476D02*
X147507295Y-68815000D01*
X148231104Y-68053094D02*
X148269200Y-68091190D01*
X148269200Y-68091190D02*
X148307295Y-68205475D01*
X148307295Y-68205475D02*
X148307295Y-68281666D01*
X148307295Y-68281666D02*
X148269200Y-68395952D01*
X148269200Y-68395952D02*
X148193009Y-68472142D01*
X148193009Y-68472142D02*
X148116819Y-68510237D01*
X148116819Y-68510237D02*
X147964438Y-68548333D01*
X147964438Y-68548333D02*
X147850152Y-68548333D01*
X147850152Y-68548333D02*
X147697771Y-68510237D01*
X147697771Y-68510237D02*
X147621580Y-68472142D01*
X147621580Y-68472142D02*
X147545390Y-68395952D01*
X147545390Y-68395952D02*
X147507295Y-68281666D01*
X147507295Y-68281666D02*
X147507295Y-68205475D01*
X147507295Y-68205475D02*
X147545390Y-68091190D01*
X147545390Y-68091190D02*
X147583485Y-68053094D01*
X148307295Y-67329285D02*
X148307295Y-67710237D01*
X148307295Y-67710237D02*
X147507295Y-67710237D01*
X148307295Y-67062618D02*
X147507295Y-67062618D01*
X148307295Y-66605475D02*
X147850152Y-66948333D01*
X147507295Y-66605475D02*
X147964438Y-67062618D01*
X153448809Y-31217295D02*
X153944047Y-31217295D01*
X153944047Y-31217295D02*
X153677381Y-31522057D01*
X153677381Y-31522057D02*
X153791666Y-31522057D01*
X153791666Y-31522057D02*
X153867857Y-31560152D01*
X153867857Y-31560152D02*
X153905952Y-31598247D01*
X153905952Y-31598247D02*
X153944047Y-31674438D01*
X153944047Y-31674438D02*
X153944047Y-31864914D01*
X153944047Y-31864914D02*
X153905952Y-31941104D01*
X153905952Y-31941104D02*
X153867857Y-31979200D01*
X153867857Y-31979200D02*
X153791666Y-32017295D01*
X153791666Y-32017295D02*
X153563095Y-32017295D01*
X153563095Y-32017295D02*
X153486904Y-31979200D01*
X153486904Y-31979200D02*
X153448809Y-31941104D01*
X154172619Y-31217295D02*
X154439286Y-32017295D01*
X154439286Y-32017295D02*
X154705952Y-31217295D01*
X154896428Y-31217295D02*
X155391666Y-31217295D01*
X155391666Y-31217295D02*
X155125000Y-31522057D01*
X155125000Y-31522057D02*
X155239285Y-31522057D01*
X155239285Y-31522057D02*
X155315476Y-31560152D01*
X155315476Y-31560152D02*
X155353571Y-31598247D01*
X155353571Y-31598247D02*
X155391666Y-31674438D01*
X155391666Y-31674438D02*
X155391666Y-31864914D01*
X155391666Y-31864914D02*
X155353571Y-31941104D01*
X155353571Y-31941104D02*
X155315476Y-31979200D01*
X155315476Y-31979200D02*
X155239285Y-32017295D01*
X155239285Y-32017295D02*
X155010714Y-32017295D01*
X155010714Y-32017295D02*
X154934523Y-31979200D01*
X154934523Y-31979200D02*
X154896428Y-31941104D01*
X155544048Y-32093485D02*
X156153571Y-32093485D01*
X156344048Y-31598247D02*
X156610714Y-31598247D01*
X156725000Y-32017295D02*
X156344048Y-32017295D01*
X156344048Y-32017295D02*
X156344048Y-31217295D01*
X156344048Y-31217295D02*
X156725000Y-31217295D01*
X157067858Y-32017295D02*
X157067858Y-31217295D01*
X157067858Y-31217295D02*
X157525001Y-32017295D01*
X157525001Y-32017295D02*
X157525001Y-31217295D01*
X155534523Y-33757295D02*
X156029761Y-33757295D01*
X156029761Y-33757295D02*
X155763095Y-34062057D01*
X155763095Y-34062057D02*
X155877380Y-34062057D01*
X155877380Y-34062057D02*
X155953571Y-34100152D01*
X155953571Y-34100152D02*
X155991666Y-34138247D01*
X155991666Y-34138247D02*
X156029761Y-34214438D01*
X156029761Y-34214438D02*
X156029761Y-34404914D01*
X156029761Y-34404914D02*
X155991666Y-34481104D01*
X155991666Y-34481104D02*
X155953571Y-34519200D01*
X155953571Y-34519200D02*
X155877380Y-34557295D01*
X155877380Y-34557295D02*
X155648809Y-34557295D01*
X155648809Y-34557295D02*
X155572618Y-34519200D01*
X155572618Y-34519200D02*
X155534523Y-34481104D01*
X156258333Y-33757295D02*
X156525000Y-34557295D01*
X156525000Y-34557295D02*
X156791666Y-33757295D01*
X156982142Y-33757295D02*
X157477380Y-33757295D01*
X157477380Y-33757295D02*
X157210714Y-34062057D01*
X157210714Y-34062057D02*
X157324999Y-34062057D01*
X157324999Y-34062057D02*
X157401190Y-34100152D01*
X157401190Y-34100152D02*
X157439285Y-34138247D01*
X157439285Y-34138247D02*
X157477380Y-34214438D01*
X157477380Y-34214438D02*
X157477380Y-34404914D01*
X157477380Y-34404914D02*
X157439285Y-34481104D01*
X157439285Y-34481104D02*
X157401190Y-34519200D01*
X157401190Y-34519200D02*
X157324999Y-34557295D01*
X157324999Y-34557295D02*
X157096428Y-34557295D01*
X157096428Y-34557295D02*
X157020237Y-34519200D01*
X157020237Y-34519200D02*
X156982142Y-34481104D01*
X143873571Y-49035390D02*
X143797381Y-48997295D01*
X143797381Y-48997295D02*
X143683095Y-48997295D01*
X143683095Y-48997295D02*
X143568809Y-49035390D01*
X143568809Y-49035390D02*
X143492619Y-49111580D01*
X143492619Y-49111580D02*
X143454524Y-49187771D01*
X143454524Y-49187771D02*
X143416428Y-49340152D01*
X143416428Y-49340152D02*
X143416428Y-49454438D01*
X143416428Y-49454438D02*
X143454524Y-49606819D01*
X143454524Y-49606819D02*
X143492619Y-49683009D01*
X143492619Y-49683009D02*
X143568809Y-49759200D01*
X143568809Y-49759200D02*
X143683095Y-49797295D01*
X143683095Y-49797295D02*
X143759286Y-49797295D01*
X143759286Y-49797295D02*
X143873571Y-49759200D01*
X143873571Y-49759200D02*
X143911667Y-49721104D01*
X143911667Y-49721104D02*
X143911667Y-49454438D01*
X143911667Y-49454438D02*
X143759286Y-49454438D01*
X144254524Y-49797295D02*
X144254524Y-48997295D01*
X144254524Y-48997295D02*
X144559286Y-48997295D01*
X144559286Y-48997295D02*
X144635476Y-49035390D01*
X144635476Y-49035390D02*
X144673571Y-49073485D01*
X144673571Y-49073485D02*
X144711667Y-49149676D01*
X144711667Y-49149676D02*
X144711667Y-49263961D01*
X144711667Y-49263961D02*
X144673571Y-49340152D01*
X144673571Y-49340152D02*
X144635476Y-49378247D01*
X144635476Y-49378247D02*
X144559286Y-49416342D01*
X144559286Y-49416342D02*
X144254524Y-49416342D01*
X145168809Y-49340152D02*
X145092619Y-49302057D01*
X145092619Y-49302057D02*
X145054524Y-49263961D01*
X145054524Y-49263961D02*
X145016428Y-49187771D01*
X145016428Y-49187771D02*
X145016428Y-49149676D01*
X145016428Y-49149676D02*
X145054524Y-49073485D01*
X145054524Y-49073485D02*
X145092619Y-49035390D01*
X145092619Y-49035390D02*
X145168809Y-48997295D01*
X145168809Y-48997295D02*
X145321190Y-48997295D01*
X145321190Y-48997295D02*
X145397381Y-49035390D01*
X145397381Y-49035390D02*
X145435476Y-49073485D01*
X145435476Y-49073485D02*
X145473571Y-49149676D01*
X145473571Y-49149676D02*
X145473571Y-49187771D01*
X145473571Y-49187771D02*
X145435476Y-49263961D01*
X145435476Y-49263961D02*
X145397381Y-49302057D01*
X145397381Y-49302057D02*
X145321190Y-49340152D01*
X145321190Y-49340152D02*
X145168809Y-49340152D01*
X145168809Y-49340152D02*
X145092619Y-49378247D01*
X145092619Y-49378247D02*
X145054524Y-49416342D01*
X145054524Y-49416342D02*
X145016428Y-49492533D01*
X145016428Y-49492533D02*
X145016428Y-49644914D01*
X145016428Y-49644914D02*
X145054524Y-49721104D01*
X145054524Y-49721104D02*
X145092619Y-49759200D01*
X145092619Y-49759200D02*
X145168809Y-49797295D01*
X145168809Y-49797295D02*
X145321190Y-49797295D01*
X145321190Y-49797295D02*
X145397381Y-49759200D01*
X145397381Y-49759200D02*
X145435476Y-49721104D01*
X145435476Y-49721104D02*
X145473571Y-49644914D01*
X145473571Y-49644914D02*
X145473571Y-49492533D01*
X145473571Y-49492533D02*
X145435476Y-49416342D01*
X145435476Y-49416342D02*
X145397381Y-49378247D01*
X145397381Y-49378247D02*
X145321190Y-49340152D01*
X155072618Y-71895390D02*
X154996428Y-71857295D01*
X154996428Y-71857295D02*
X154882142Y-71857295D01*
X154882142Y-71857295D02*
X154767856Y-71895390D01*
X154767856Y-71895390D02*
X154691666Y-71971580D01*
X154691666Y-71971580D02*
X154653571Y-72047771D01*
X154653571Y-72047771D02*
X154615475Y-72200152D01*
X154615475Y-72200152D02*
X154615475Y-72314438D01*
X154615475Y-72314438D02*
X154653571Y-72466819D01*
X154653571Y-72466819D02*
X154691666Y-72543009D01*
X154691666Y-72543009D02*
X154767856Y-72619200D01*
X154767856Y-72619200D02*
X154882142Y-72657295D01*
X154882142Y-72657295D02*
X154958333Y-72657295D01*
X154958333Y-72657295D02*
X155072618Y-72619200D01*
X155072618Y-72619200D02*
X155110714Y-72581104D01*
X155110714Y-72581104D02*
X155110714Y-72314438D01*
X155110714Y-72314438D02*
X154958333Y-72314438D01*
X155453571Y-72657295D02*
X155453571Y-71857295D01*
X155453571Y-71857295D02*
X155758333Y-71857295D01*
X155758333Y-71857295D02*
X155834523Y-71895390D01*
X155834523Y-71895390D02*
X155872618Y-71933485D01*
X155872618Y-71933485D02*
X155910714Y-72009676D01*
X155910714Y-72009676D02*
X155910714Y-72123961D01*
X155910714Y-72123961D02*
X155872618Y-72200152D01*
X155872618Y-72200152D02*
X155834523Y-72238247D01*
X155834523Y-72238247D02*
X155758333Y-72276342D01*
X155758333Y-72276342D02*
X155453571Y-72276342D01*
X156672618Y-72657295D02*
X156215475Y-72657295D01*
X156444047Y-72657295D02*
X156444047Y-71857295D01*
X156444047Y-71857295D02*
X156367856Y-71971580D01*
X156367856Y-71971580D02*
X156291666Y-72047771D01*
X156291666Y-72047771D02*
X156215475Y-72085866D01*
X157358333Y-71857295D02*
X157205952Y-71857295D01*
X157205952Y-71857295D02*
X157129761Y-71895390D01*
X157129761Y-71895390D02*
X157091666Y-71933485D01*
X157091666Y-71933485D02*
X157015476Y-72047771D01*
X157015476Y-72047771D02*
X156977380Y-72200152D01*
X156977380Y-72200152D02*
X156977380Y-72504914D01*
X156977380Y-72504914D02*
X157015476Y-72581104D01*
X157015476Y-72581104D02*
X157053571Y-72619200D01*
X157053571Y-72619200D02*
X157129761Y-72657295D01*
X157129761Y-72657295D02*
X157282142Y-72657295D01*
X157282142Y-72657295D02*
X157358333Y-72619200D01*
X157358333Y-72619200D02*
X157396428Y-72581104D01*
X157396428Y-72581104D02*
X157434523Y-72504914D01*
X157434523Y-72504914D02*
X157434523Y-72314438D01*
X157434523Y-72314438D02*
X157396428Y-72238247D01*
X157396428Y-72238247D02*
X157358333Y-72200152D01*
X157358333Y-72200152D02*
X157282142Y-72162057D01*
X157282142Y-72162057D02*
X157129761Y-72162057D01*
X157129761Y-72162057D02*
X157053571Y-72200152D01*
X157053571Y-72200152D02*
X157015476Y-72238247D01*
X157015476Y-72238247D02*
X156977380Y-72314438D01*
X155765476Y-54115390D02*
X155689286Y-54077295D01*
X155689286Y-54077295D02*
X155575000Y-54077295D01*
X155575000Y-54077295D02*
X155460714Y-54115390D01*
X155460714Y-54115390D02*
X155384524Y-54191580D01*
X155384524Y-54191580D02*
X155346429Y-54267771D01*
X155346429Y-54267771D02*
X155308333Y-54420152D01*
X155308333Y-54420152D02*
X155308333Y-54534438D01*
X155308333Y-54534438D02*
X155346429Y-54686819D01*
X155346429Y-54686819D02*
X155384524Y-54763009D01*
X155384524Y-54763009D02*
X155460714Y-54839200D01*
X155460714Y-54839200D02*
X155575000Y-54877295D01*
X155575000Y-54877295D02*
X155651191Y-54877295D01*
X155651191Y-54877295D02*
X155765476Y-54839200D01*
X155765476Y-54839200D02*
X155803572Y-54801104D01*
X155803572Y-54801104D02*
X155803572Y-54534438D01*
X155803572Y-54534438D02*
X155651191Y-54534438D01*
X156146429Y-54877295D02*
X156146429Y-54077295D01*
X156146429Y-54077295D02*
X156603572Y-54877295D01*
X156603572Y-54877295D02*
X156603572Y-54077295D01*
X156984524Y-54877295D02*
X156984524Y-54077295D01*
X156984524Y-54077295D02*
X157175000Y-54077295D01*
X157175000Y-54077295D02*
X157289286Y-54115390D01*
X157289286Y-54115390D02*
X157365476Y-54191580D01*
X157365476Y-54191580D02*
X157403571Y-54267771D01*
X157403571Y-54267771D02*
X157441667Y-54420152D01*
X157441667Y-54420152D02*
X157441667Y-54534438D01*
X157441667Y-54534438D02*
X157403571Y-54686819D01*
X157403571Y-54686819D02*
X157365476Y-54763009D01*
X157365476Y-54763009D02*
X157289286Y-54839200D01*
X157289286Y-54839200D02*
X157175000Y-54877295D01*
X157175000Y-54877295D02*
X156984524Y-54877295D01*
X143835476Y-41415390D02*
X143759286Y-41377295D01*
X143759286Y-41377295D02*
X143645000Y-41377295D01*
X143645000Y-41377295D02*
X143530714Y-41415390D01*
X143530714Y-41415390D02*
X143454524Y-41491580D01*
X143454524Y-41491580D02*
X143416429Y-41567771D01*
X143416429Y-41567771D02*
X143378333Y-41720152D01*
X143378333Y-41720152D02*
X143378333Y-41834438D01*
X143378333Y-41834438D02*
X143416429Y-41986819D01*
X143416429Y-41986819D02*
X143454524Y-42063009D01*
X143454524Y-42063009D02*
X143530714Y-42139200D01*
X143530714Y-42139200D02*
X143645000Y-42177295D01*
X143645000Y-42177295D02*
X143721191Y-42177295D01*
X143721191Y-42177295D02*
X143835476Y-42139200D01*
X143835476Y-42139200D02*
X143873572Y-42101104D01*
X143873572Y-42101104D02*
X143873572Y-41834438D01*
X143873572Y-41834438D02*
X143721191Y-41834438D01*
X144216429Y-42177295D02*
X144216429Y-41377295D01*
X144216429Y-41377295D02*
X144673572Y-42177295D01*
X144673572Y-42177295D02*
X144673572Y-41377295D01*
X145054524Y-42177295D02*
X145054524Y-41377295D01*
X145054524Y-41377295D02*
X145245000Y-41377295D01*
X145245000Y-41377295D02*
X145359286Y-41415390D01*
X145359286Y-41415390D02*
X145435476Y-41491580D01*
X145435476Y-41491580D02*
X145473571Y-41567771D01*
X145473571Y-41567771D02*
X145511667Y-41720152D01*
X145511667Y-41720152D02*
X145511667Y-41834438D01*
X145511667Y-41834438D02*
X145473571Y-41986819D01*
X145473571Y-41986819D02*
X145435476Y-42063009D01*
X145435476Y-42063009D02*
X145359286Y-42139200D01*
X145359286Y-42139200D02*
X145245000Y-42177295D01*
X145245000Y-42177295D02*
X145054524Y-42177295D01*
X155072618Y-38875390D02*
X154996428Y-38837295D01*
X154996428Y-38837295D02*
X154882142Y-38837295D01*
X154882142Y-38837295D02*
X154767856Y-38875390D01*
X154767856Y-38875390D02*
X154691666Y-38951580D01*
X154691666Y-38951580D02*
X154653571Y-39027771D01*
X154653571Y-39027771D02*
X154615475Y-39180152D01*
X154615475Y-39180152D02*
X154615475Y-39294438D01*
X154615475Y-39294438D02*
X154653571Y-39446819D01*
X154653571Y-39446819D02*
X154691666Y-39523009D01*
X154691666Y-39523009D02*
X154767856Y-39599200D01*
X154767856Y-39599200D02*
X154882142Y-39637295D01*
X154882142Y-39637295D02*
X154958333Y-39637295D01*
X154958333Y-39637295D02*
X155072618Y-39599200D01*
X155072618Y-39599200D02*
X155110714Y-39561104D01*
X155110714Y-39561104D02*
X155110714Y-39294438D01*
X155110714Y-39294438D02*
X154958333Y-39294438D01*
X155453571Y-39637295D02*
X155453571Y-38837295D01*
X155453571Y-38837295D02*
X155758333Y-38837295D01*
X155758333Y-38837295D02*
X155834523Y-38875390D01*
X155834523Y-38875390D02*
X155872618Y-38913485D01*
X155872618Y-38913485D02*
X155910714Y-38989676D01*
X155910714Y-38989676D02*
X155910714Y-39103961D01*
X155910714Y-39103961D02*
X155872618Y-39180152D01*
X155872618Y-39180152D02*
X155834523Y-39218247D01*
X155834523Y-39218247D02*
X155758333Y-39256342D01*
X155758333Y-39256342D02*
X155453571Y-39256342D01*
X156215475Y-38913485D02*
X156253571Y-38875390D01*
X156253571Y-38875390D02*
X156329761Y-38837295D01*
X156329761Y-38837295D02*
X156520237Y-38837295D01*
X156520237Y-38837295D02*
X156596428Y-38875390D01*
X156596428Y-38875390D02*
X156634523Y-38913485D01*
X156634523Y-38913485D02*
X156672618Y-38989676D01*
X156672618Y-38989676D02*
X156672618Y-39065866D01*
X156672618Y-39065866D02*
X156634523Y-39180152D01*
X156634523Y-39180152D02*
X156177380Y-39637295D01*
X156177380Y-39637295D02*
X156672618Y-39637295D01*
X157129761Y-39180152D02*
X157053571Y-39142057D01*
X157053571Y-39142057D02*
X157015476Y-39103961D01*
X157015476Y-39103961D02*
X156977380Y-39027771D01*
X156977380Y-39027771D02*
X156977380Y-38989676D01*
X156977380Y-38989676D02*
X157015476Y-38913485D01*
X157015476Y-38913485D02*
X157053571Y-38875390D01*
X157053571Y-38875390D02*
X157129761Y-38837295D01*
X157129761Y-38837295D02*
X157282142Y-38837295D01*
X157282142Y-38837295D02*
X157358333Y-38875390D01*
X157358333Y-38875390D02*
X157396428Y-38913485D01*
X157396428Y-38913485D02*
X157434523Y-38989676D01*
X157434523Y-38989676D02*
X157434523Y-39027771D01*
X157434523Y-39027771D02*
X157396428Y-39103961D01*
X157396428Y-39103961D02*
X157358333Y-39142057D01*
X157358333Y-39142057D02*
X157282142Y-39180152D01*
X157282142Y-39180152D02*
X157129761Y-39180152D01*
X157129761Y-39180152D02*
X157053571Y-39218247D01*
X157053571Y-39218247D02*
X157015476Y-39256342D01*
X157015476Y-39256342D02*
X156977380Y-39332533D01*
X156977380Y-39332533D02*
X156977380Y-39484914D01*
X156977380Y-39484914D02*
X157015476Y-39561104D01*
X157015476Y-39561104D02*
X157053571Y-39599200D01*
X157053571Y-39599200D02*
X157129761Y-39637295D01*
X157129761Y-39637295D02*
X157282142Y-39637295D01*
X157282142Y-39637295D02*
X157358333Y-39599200D01*
X157358333Y-39599200D02*
X157396428Y-39561104D01*
X157396428Y-39561104D02*
X157434523Y-39484914D01*
X157434523Y-39484914D02*
X157434523Y-39332533D01*
X157434523Y-39332533D02*
X157396428Y-39256342D01*
X157396428Y-39256342D02*
X157358333Y-39218247D01*
X157358333Y-39218247D02*
X157282142Y-39180152D01*
X143873571Y-51575390D02*
X143797381Y-51537295D01*
X143797381Y-51537295D02*
X143683095Y-51537295D01*
X143683095Y-51537295D02*
X143568809Y-51575390D01*
X143568809Y-51575390D02*
X143492619Y-51651580D01*
X143492619Y-51651580D02*
X143454524Y-51727771D01*
X143454524Y-51727771D02*
X143416428Y-51880152D01*
X143416428Y-51880152D02*
X143416428Y-51994438D01*
X143416428Y-51994438D02*
X143454524Y-52146819D01*
X143454524Y-52146819D02*
X143492619Y-52223009D01*
X143492619Y-52223009D02*
X143568809Y-52299200D01*
X143568809Y-52299200D02*
X143683095Y-52337295D01*
X143683095Y-52337295D02*
X143759286Y-52337295D01*
X143759286Y-52337295D02*
X143873571Y-52299200D01*
X143873571Y-52299200D02*
X143911667Y-52261104D01*
X143911667Y-52261104D02*
X143911667Y-51994438D01*
X143911667Y-51994438D02*
X143759286Y-51994438D01*
X144254524Y-52337295D02*
X144254524Y-51537295D01*
X144254524Y-51537295D02*
X144559286Y-51537295D01*
X144559286Y-51537295D02*
X144635476Y-51575390D01*
X144635476Y-51575390D02*
X144673571Y-51613485D01*
X144673571Y-51613485D02*
X144711667Y-51689676D01*
X144711667Y-51689676D02*
X144711667Y-51803961D01*
X144711667Y-51803961D02*
X144673571Y-51880152D01*
X144673571Y-51880152D02*
X144635476Y-51918247D01*
X144635476Y-51918247D02*
X144559286Y-51956342D01*
X144559286Y-51956342D02*
X144254524Y-51956342D01*
X145092619Y-52337295D02*
X145245000Y-52337295D01*
X145245000Y-52337295D02*
X145321190Y-52299200D01*
X145321190Y-52299200D02*
X145359286Y-52261104D01*
X145359286Y-52261104D02*
X145435476Y-52146819D01*
X145435476Y-52146819D02*
X145473571Y-51994438D01*
X145473571Y-51994438D02*
X145473571Y-51689676D01*
X145473571Y-51689676D02*
X145435476Y-51613485D01*
X145435476Y-51613485D02*
X145397381Y-51575390D01*
X145397381Y-51575390D02*
X145321190Y-51537295D01*
X145321190Y-51537295D02*
X145168809Y-51537295D01*
X145168809Y-51537295D02*
X145092619Y-51575390D01*
X145092619Y-51575390D02*
X145054524Y-51613485D01*
X145054524Y-51613485D02*
X145016428Y-51689676D01*
X145016428Y-51689676D02*
X145016428Y-51880152D01*
X145016428Y-51880152D02*
X145054524Y-51956342D01*
X145054524Y-51956342D02*
X145092619Y-51994438D01*
X145092619Y-51994438D02*
X145168809Y-52032533D01*
X145168809Y-52032533D02*
X145321190Y-52032533D01*
X145321190Y-52032533D02*
X145397381Y-51994438D01*
X145397381Y-51994438D02*
X145435476Y-51956342D01*
X145435476Y-51956342D02*
X145473571Y-51880152D01*
X153349200Y-70110238D02*
X153387295Y-69995952D01*
X153387295Y-69995952D02*
X153387295Y-69805476D01*
X153387295Y-69805476D02*
X153349200Y-69729285D01*
X153349200Y-69729285D02*
X153311104Y-69691190D01*
X153311104Y-69691190D02*
X153234914Y-69653095D01*
X153234914Y-69653095D02*
X153158723Y-69653095D01*
X153158723Y-69653095D02*
X153082533Y-69691190D01*
X153082533Y-69691190D02*
X153044438Y-69729285D01*
X153044438Y-69729285D02*
X153006342Y-69805476D01*
X153006342Y-69805476D02*
X152968247Y-69957857D01*
X152968247Y-69957857D02*
X152930152Y-70034047D01*
X152930152Y-70034047D02*
X152892057Y-70072142D01*
X152892057Y-70072142D02*
X152815866Y-70110238D01*
X152815866Y-70110238D02*
X152739676Y-70110238D01*
X152739676Y-70110238D02*
X152663485Y-70072142D01*
X152663485Y-70072142D02*
X152625390Y-70034047D01*
X152625390Y-70034047D02*
X152587295Y-69957857D01*
X152587295Y-69957857D02*
X152587295Y-69767380D01*
X152587295Y-69767380D02*
X152625390Y-69653095D01*
X152587295Y-69386428D02*
X153387295Y-69195952D01*
X153387295Y-69195952D02*
X152815866Y-69043571D01*
X152815866Y-69043571D02*
X153387295Y-68891190D01*
X153387295Y-68891190D02*
X152587295Y-68700714D01*
X153387295Y-68395951D02*
X152587295Y-68395951D01*
X152587295Y-68395951D02*
X152587295Y-68205475D01*
X152587295Y-68205475D02*
X152625390Y-68091189D01*
X152625390Y-68091189D02*
X152701580Y-68014999D01*
X152701580Y-68014999D02*
X152777771Y-67976904D01*
X152777771Y-67976904D02*
X152930152Y-67938808D01*
X152930152Y-67938808D02*
X153044438Y-67938808D01*
X153044438Y-67938808D02*
X153196819Y-67976904D01*
X153196819Y-67976904D02*
X153273009Y-68014999D01*
X153273009Y-68014999D02*
X153349200Y-68091189D01*
X153349200Y-68091189D02*
X153387295Y-68205475D01*
X153387295Y-68205475D02*
X153387295Y-68395951D01*
X153387295Y-67595951D02*
X152587295Y-67595951D01*
X152587295Y-67062618D02*
X152587295Y-66910237D01*
X152587295Y-66910237D02*
X152625390Y-66834047D01*
X152625390Y-66834047D02*
X152701580Y-66757856D01*
X152701580Y-66757856D02*
X152853961Y-66719761D01*
X152853961Y-66719761D02*
X153120628Y-66719761D01*
X153120628Y-66719761D02*
X153273009Y-66757856D01*
X153273009Y-66757856D02*
X153349200Y-66834047D01*
X153349200Y-66834047D02*
X153387295Y-66910237D01*
X153387295Y-66910237D02*
X153387295Y-67062618D01*
X153387295Y-67062618D02*
X153349200Y-67138809D01*
X153349200Y-67138809D02*
X153273009Y-67214999D01*
X153273009Y-67214999D02*
X153120628Y-67253095D01*
X153120628Y-67253095D02*
X152853961Y-67253095D01*
X152853961Y-67253095D02*
X152701580Y-67214999D01*
X152701580Y-67214999D02*
X152625390Y-67138809D01*
X152625390Y-67138809D02*
X152587295Y-67062618D01*
X143873571Y-38875390D02*
X143797381Y-38837295D01*
X143797381Y-38837295D02*
X143683095Y-38837295D01*
X143683095Y-38837295D02*
X143568809Y-38875390D01*
X143568809Y-38875390D02*
X143492619Y-38951580D01*
X143492619Y-38951580D02*
X143454524Y-39027771D01*
X143454524Y-39027771D02*
X143416428Y-39180152D01*
X143416428Y-39180152D02*
X143416428Y-39294438D01*
X143416428Y-39294438D02*
X143454524Y-39446819D01*
X143454524Y-39446819D02*
X143492619Y-39523009D01*
X143492619Y-39523009D02*
X143568809Y-39599200D01*
X143568809Y-39599200D02*
X143683095Y-39637295D01*
X143683095Y-39637295D02*
X143759286Y-39637295D01*
X143759286Y-39637295D02*
X143873571Y-39599200D01*
X143873571Y-39599200D02*
X143911667Y-39561104D01*
X143911667Y-39561104D02*
X143911667Y-39294438D01*
X143911667Y-39294438D02*
X143759286Y-39294438D01*
X144254524Y-39637295D02*
X144254524Y-38837295D01*
X144254524Y-38837295D02*
X144559286Y-38837295D01*
X144559286Y-38837295D02*
X144635476Y-38875390D01*
X144635476Y-38875390D02*
X144673571Y-38913485D01*
X144673571Y-38913485D02*
X144711667Y-38989676D01*
X144711667Y-38989676D02*
X144711667Y-39103961D01*
X144711667Y-39103961D02*
X144673571Y-39180152D01*
X144673571Y-39180152D02*
X144635476Y-39218247D01*
X144635476Y-39218247D02*
X144559286Y-39256342D01*
X144559286Y-39256342D02*
X144254524Y-39256342D01*
X145435476Y-38837295D02*
X145054524Y-38837295D01*
X145054524Y-38837295D02*
X145016428Y-39218247D01*
X145016428Y-39218247D02*
X145054524Y-39180152D01*
X145054524Y-39180152D02*
X145130714Y-39142057D01*
X145130714Y-39142057D02*
X145321190Y-39142057D01*
X145321190Y-39142057D02*
X145397381Y-39180152D01*
X145397381Y-39180152D02*
X145435476Y-39218247D01*
X145435476Y-39218247D02*
X145473571Y-39294438D01*
X145473571Y-39294438D02*
X145473571Y-39484914D01*
X145473571Y-39484914D02*
X145435476Y-39561104D01*
X145435476Y-39561104D02*
X145397381Y-39599200D01*
X145397381Y-39599200D02*
X145321190Y-39637295D01*
X145321190Y-39637295D02*
X145130714Y-39637295D01*
X145130714Y-39637295D02*
X145054524Y-39599200D01*
X145054524Y-39599200D02*
X145016428Y-39561104D01*
X143873571Y-23635390D02*
X143797381Y-23597295D01*
X143797381Y-23597295D02*
X143683095Y-23597295D01*
X143683095Y-23597295D02*
X143568809Y-23635390D01*
X143568809Y-23635390D02*
X143492619Y-23711580D01*
X143492619Y-23711580D02*
X143454524Y-23787771D01*
X143454524Y-23787771D02*
X143416428Y-23940152D01*
X143416428Y-23940152D02*
X143416428Y-24054438D01*
X143416428Y-24054438D02*
X143454524Y-24206819D01*
X143454524Y-24206819D02*
X143492619Y-24283009D01*
X143492619Y-24283009D02*
X143568809Y-24359200D01*
X143568809Y-24359200D02*
X143683095Y-24397295D01*
X143683095Y-24397295D02*
X143759286Y-24397295D01*
X143759286Y-24397295D02*
X143873571Y-24359200D01*
X143873571Y-24359200D02*
X143911667Y-24321104D01*
X143911667Y-24321104D02*
X143911667Y-24054438D01*
X143911667Y-24054438D02*
X143759286Y-24054438D01*
X144254524Y-24397295D02*
X144254524Y-23597295D01*
X144254524Y-23597295D02*
X144559286Y-23597295D01*
X144559286Y-23597295D02*
X144635476Y-23635390D01*
X144635476Y-23635390D02*
X144673571Y-23673485D01*
X144673571Y-23673485D02*
X144711667Y-23749676D01*
X144711667Y-23749676D02*
X144711667Y-23863961D01*
X144711667Y-23863961D02*
X144673571Y-23940152D01*
X144673571Y-23940152D02*
X144635476Y-23978247D01*
X144635476Y-23978247D02*
X144559286Y-24016342D01*
X144559286Y-24016342D02*
X144254524Y-24016342D01*
X145206905Y-23597295D02*
X145283095Y-23597295D01*
X145283095Y-23597295D02*
X145359286Y-23635390D01*
X145359286Y-23635390D02*
X145397381Y-23673485D01*
X145397381Y-23673485D02*
X145435476Y-23749676D01*
X145435476Y-23749676D02*
X145473571Y-23902057D01*
X145473571Y-23902057D02*
X145473571Y-24092533D01*
X145473571Y-24092533D02*
X145435476Y-24244914D01*
X145435476Y-24244914D02*
X145397381Y-24321104D01*
X145397381Y-24321104D02*
X145359286Y-24359200D01*
X145359286Y-24359200D02*
X145283095Y-24397295D01*
X145283095Y-24397295D02*
X145206905Y-24397295D01*
X145206905Y-24397295D02*
X145130714Y-24359200D01*
X145130714Y-24359200D02*
X145092619Y-24321104D01*
X145092619Y-24321104D02*
X145054524Y-24244914D01*
X145054524Y-24244914D02*
X145016428Y-24092533D01*
X145016428Y-24092533D02*
X145016428Y-23902057D01*
X145016428Y-23902057D02*
X145054524Y-23749676D01*
X145054524Y-23749676D02*
X145092619Y-23673485D01*
X145092619Y-23673485D02*
X145130714Y-23635390D01*
X145130714Y-23635390D02*
X145206905Y-23597295D01*
X143873571Y-33795390D02*
X143797381Y-33757295D01*
X143797381Y-33757295D02*
X143683095Y-33757295D01*
X143683095Y-33757295D02*
X143568809Y-33795390D01*
X143568809Y-33795390D02*
X143492619Y-33871580D01*
X143492619Y-33871580D02*
X143454524Y-33947771D01*
X143454524Y-33947771D02*
X143416428Y-34100152D01*
X143416428Y-34100152D02*
X143416428Y-34214438D01*
X143416428Y-34214438D02*
X143454524Y-34366819D01*
X143454524Y-34366819D02*
X143492619Y-34443009D01*
X143492619Y-34443009D02*
X143568809Y-34519200D01*
X143568809Y-34519200D02*
X143683095Y-34557295D01*
X143683095Y-34557295D02*
X143759286Y-34557295D01*
X143759286Y-34557295D02*
X143873571Y-34519200D01*
X143873571Y-34519200D02*
X143911667Y-34481104D01*
X143911667Y-34481104D02*
X143911667Y-34214438D01*
X143911667Y-34214438D02*
X143759286Y-34214438D01*
X144254524Y-34557295D02*
X144254524Y-33757295D01*
X144254524Y-33757295D02*
X144559286Y-33757295D01*
X144559286Y-33757295D02*
X144635476Y-33795390D01*
X144635476Y-33795390D02*
X144673571Y-33833485D01*
X144673571Y-33833485D02*
X144711667Y-33909676D01*
X144711667Y-33909676D02*
X144711667Y-34023961D01*
X144711667Y-34023961D02*
X144673571Y-34100152D01*
X144673571Y-34100152D02*
X144635476Y-34138247D01*
X144635476Y-34138247D02*
X144559286Y-34176342D01*
X144559286Y-34176342D02*
X144254524Y-34176342D01*
X144978333Y-33757295D02*
X145473571Y-33757295D01*
X145473571Y-33757295D02*
X145206905Y-34062057D01*
X145206905Y-34062057D02*
X145321190Y-34062057D01*
X145321190Y-34062057D02*
X145397381Y-34100152D01*
X145397381Y-34100152D02*
X145435476Y-34138247D01*
X145435476Y-34138247D02*
X145473571Y-34214438D01*
X145473571Y-34214438D02*
X145473571Y-34404914D01*
X145473571Y-34404914D02*
X145435476Y-34481104D01*
X145435476Y-34481104D02*
X145397381Y-34519200D01*
X145397381Y-34519200D02*
X145321190Y-34557295D01*
X145321190Y-34557295D02*
X145092619Y-34557295D01*
X145092619Y-34557295D02*
X145016428Y-34519200D01*
X145016428Y-34519200D02*
X144978333Y-34481104D01*
X143835476Y-66815390D02*
X143759286Y-66777295D01*
X143759286Y-66777295D02*
X143645000Y-66777295D01*
X143645000Y-66777295D02*
X143530714Y-66815390D01*
X143530714Y-66815390D02*
X143454524Y-66891580D01*
X143454524Y-66891580D02*
X143416429Y-66967771D01*
X143416429Y-66967771D02*
X143378333Y-67120152D01*
X143378333Y-67120152D02*
X143378333Y-67234438D01*
X143378333Y-67234438D02*
X143416429Y-67386819D01*
X143416429Y-67386819D02*
X143454524Y-67463009D01*
X143454524Y-67463009D02*
X143530714Y-67539200D01*
X143530714Y-67539200D02*
X143645000Y-67577295D01*
X143645000Y-67577295D02*
X143721191Y-67577295D01*
X143721191Y-67577295D02*
X143835476Y-67539200D01*
X143835476Y-67539200D02*
X143873572Y-67501104D01*
X143873572Y-67501104D02*
X143873572Y-67234438D01*
X143873572Y-67234438D02*
X143721191Y-67234438D01*
X144216429Y-67577295D02*
X144216429Y-66777295D01*
X144216429Y-66777295D02*
X144673572Y-67577295D01*
X144673572Y-67577295D02*
X144673572Y-66777295D01*
X145054524Y-67577295D02*
X145054524Y-66777295D01*
X145054524Y-66777295D02*
X145245000Y-66777295D01*
X145245000Y-66777295D02*
X145359286Y-66815390D01*
X145359286Y-66815390D02*
X145435476Y-66891580D01*
X145435476Y-66891580D02*
X145473571Y-66967771D01*
X145473571Y-66967771D02*
X145511667Y-67120152D01*
X145511667Y-67120152D02*
X145511667Y-67234438D01*
X145511667Y-67234438D02*
X145473571Y-67386819D01*
X145473571Y-67386819D02*
X145435476Y-67463009D01*
X145435476Y-67463009D02*
X145359286Y-67539200D01*
X145359286Y-67539200D02*
X145245000Y-67577295D01*
X145245000Y-67577295D02*
X145054524Y-67577295D01*
X143835476Y-28715390D02*
X143759286Y-28677295D01*
X143759286Y-28677295D02*
X143645000Y-28677295D01*
X143645000Y-28677295D02*
X143530714Y-28715390D01*
X143530714Y-28715390D02*
X143454524Y-28791580D01*
X143454524Y-28791580D02*
X143416429Y-28867771D01*
X143416429Y-28867771D02*
X143378333Y-29020152D01*
X143378333Y-29020152D02*
X143378333Y-29134438D01*
X143378333Y-29134438D02*
X143416429Y-29286819D01*
X143416429Y-29286819D02*
X143454524Y-29363009D01*
X143454524Y-29363009D02*
X143530714Y-29439200D01*
X143530714Y-29439200D02*
X143645000Y-29477295D01*
X143645000Y-29477295D02*
X143721191Y-29477295D01*
X143721191Y-29477295D02*
X143835476Y-29439200D01*
X143835476Y-29439200D02*
X143873572Y-29401104D01*
X143873572Y-29401104D02*
X143873572Y-29134438D01*
X143873572Y-29134438D02*
X143721191Y-29134438D01*
X144216429Y-29477295D02*
X144216429Y-28677295D01*
X144216429Y-28677295D02*
X144673572Y-29477295D01*
X144673572Y-29477295D02*
X144673572Y-28677295D01*
X145054524Y-29477295D02*
X145054524Y-28677295D01*
X145054524Y-28677295D02*
X145245000Y-28677295D01*
X145245000Y-28677295D02*
X145359286Y-28715390D01*
X145359286Y-28715390D02*
X145435476Y-28791580D01*
X145435476Y-28791580D02*
X145473571Y-28867771D01*
X145473571Y-28867771D02*
X145511667Y-29020152D01*
X145511667Y-29020152D02*
X145511667Y-29134438D01*
X145511667Y-29134438D02*
X145473571Y-29286819D01*
X145473571Y-29286819D02*
X145435476Y-29363009D01*
X145435476Y-29363009D02*
X145359286Y-29439200D01*
X145359286Y-29439200D02*
X145245000Y-29477295D01*
X145245000Y-29477295D02*
X145054524Y-29477295D01*
X155072618Y-59195390D02*
X154996428Y-59157295D01*
X154996428Y-59157295D02*
X154882142Y-59157295D01*
X154882142Y-59157295D02*
X154767856Y-59195390D01*
X154767856Y-59195390D02*
X154691666Y-59271580D01*
X154691666Y-59271580D02*
X154653571Y-59347771D01*
X154653571Y-59347771D02*
X154615475Y-59500152D01*
X154615475Y-59500152D02*
X154615475Y-59614438D01*
X154615475Y-59614438D02*
X154653571Y-59766819D01*
X154653571Y-59766819D02*
X154691666Y-59843009D01*
X154691666Y-59843009D02*
X154767856Y-59919200D01*
X154767856Y-59919200D02*
X154882142Y-59957295D01*
X154882142Y-59957295D02*
X154958333Y-59957295D01*
X154958333Y-59957295D02*
X155072618Y-59919200D01*
X155072618Y-59919200D02*
X155110714Y-59881104D01*
X155110714Y-59881104D02*
X155110714Y-59614438D01*
X155110714Y-59614438D02*
X154958333Y-59614438D01*
X155453571Y-59957295D02*
X155453571Y-59157295D01*
X155453571Y-59157295D02*
X155758333Y-59157295D01*
X155758333Y-59157295D02*
X155834523Y-59195390D01*
X155834523Y-59195390D02*
X155872618Y-59233485D01*
X155872618Y-59233485D02*
X155910714Y-59309676D01*
X155910714Y-59309676D02*
X155910714Y-59423961D01*
X155910714Y-59423961D02*
X155872618Y-59500152D01*
X155872618Y-59500152D02*
X155834523Y-59538247D01*
X155834523Y-59538247D02*
X155758333Y-59576342D01*
X155758333Y-59576342D02*
X155453571Y-59576342D01*
X156215475Y-59233485D02*
X156253571Y-59195390D01*
X156253571Y-59195390D02*
X156329761Y-59157295D01*
X156329761Y-59157295D02*
X156520237Y-59157295D01*
X156520237Y-59157295D02*
X156596428Y-59195390D01*
X156596428Y-59195390D02*
X156634523Y-59233485D01*
X156634523Y-59233485D02*
X156672618Y-59309676D01*
X156672618Y-59309676D02*
X156672618Y-59385866D01*
X156672618Y-59385866D02*
X156634523Y-59500152D01*
X156634523Y-59500152D02*
X156177380Y-59957295D01*
X156177380Y-59957295D02*
X156672618Y-59957295D01*
X157167857Y-59157295D02*
X157244047Y-59157295D01*
X157244047Y-59157295D02*
X157320238Y-59195390D01*
X157320238Y-59195390D02*
X157358333Y-59233485D01*
X157358333Y-59233485D02*
X157396428Y-59309676D01*
X157396428Y-59309676D02*
X157434523Y-59462057D01*
X157434523Y-59462057D02*
X157434523Y-59652533D01*
X157434523Y-59652533D02*
X157396428Y-59804914D01*
X157396428Y-59804914D02*
X157358333Y-59881104D01*
X157358333Y-59881104D02*
X157320238Y-59919200D01*
X157320238Y-59919200D02*
X157244047Y-59957295D01*
X157244047Y-59957295D02*
X157167857Y-59957295D01*
X157167857Y-59957295D02*
X157091666Y-59919200D01*
X157091666Y-59919200D02*
X157053571Y-59881104D01*
X157053571Y-59881104D02*
X157015476Y-59804914D01*
X157015476Y-59804914D02*
X156977380Y-59652533D01*
X156977380Y-59652533D02*
X156977380Y-59462057D01*
X156977380Y-59462057D02*
X157015476Y-59309676D01*
X157015476Y-59309676D02*
X157053571Y-59233485D01*
X157053571Y-59233485D02*
X157091666Y-59195390D01*
X157091666Y-59195390D02*
X157167857Y-59157295D01*
X155072618Y-61735390D02*
X154996428Y-61697295D01*
X154996428Y-61697295D02*
X154882142Y-61697295D01*
X154882142Y-61697295D02*
X154767856Y-61735390D01*
X154767856Y-61735390D02*
X154691666Y-61811580D01*
X154691666Y-61811580D02*
X154653571Y-61887771D01*
X154653571Y-61887771D02*
X154615475Y-62040152D01*
X154615475Y-62040152D02*
X154615475Y-62154438D01*
X154615475Y-62154438D02*
X154653571Y-62306819D01*
X154653571Y-62306819D02*
X154691666Y-62383009D01*
X154691666Y-62383009D02*
X154767856Y-62459200D01*
X154767856Y-62459200D02*
X154882142Y-62497295D01*
X154882142Y-62497295D02*
X154958333Y-62497295D01*
X154958333Y-62497295D02*
X155072618Y-62459200D01*
X155072618Y-62459200D02*
X155110714Y-62421104D01*
X155110714Y-62421104D02*
X155110714Y-62154438D01*
X155110714Y-62154438D02*
X154958333Y-62154438D01*
X155453571Y-62497295D02*
X155453571Y-61697295D01*
X155453571Y-61697295D02*
X155758333Y-61697295D01*
X155758333Y-61697295D02*
X155834523Y-61735390D01*
X155834523Y-61735390D02*
X155872618Y-61773485D01*
X155872618Y-61773485D02*
X155910714Y-61849676D01*
X155910714Y-61849676D02*
X155910714Y-61963961D01*
X155910714Y-61963961D02*
X155872618Y-62040152D01*
X155872618Y-62040152D02*
X155834523Y-62078247D01*
X155834523Y-62078247D02*
X155758333Y-62116342D01*
X155758333Y-62116342D02*
X155453571Y-62116342D01*
X156672618Y-62497295D02*
X156215475Y-62497295D01*
X156444047Y-62497295D02*
X156444047Y-61697295D01*
X156444047Y-61697295D02*
X156367856Y-61811580D01*
X156367856Y-61811580D02*
X156291666Y-61887771D01*
X156291666Y-61887771D02*
X156215475Y-61925866D01*
X157053571Y-62497295D02*
X157205952Y-62497295D01*
X157205952Y-62497295D02*
X157282142Y-62459200D01*
X157282142Y-62459200D02*
X157320238Y-62421104D01*
X157320238Y-62421104D02*
X157396428Y-62306819D01*
X157396428Y-62306819D02*
X157434523Y-62154438D01*
X157434523Y-62154438D02*
X157434523Y-61849676D01*
X157434523Y-61849676D02*
X157396428Y-61773485D01*
X157396428Y-61773485D02*
X157358333Y-61735390D01*
X157358333Y-61735390D02*
X157282142Y-61697295D01*
X157282142Y-61697295D02*
X157129761Y-61697295D01*
X157129761Y-61697295D02*
X157053571Y-61735390D01*
X157053571Y-61735390D02*
X157015476Y-61773485D01*
X157015476Y-61773485D02*
X156977380Y-61849676D01*
X156977380Y-61849676D02*
X156977380Y-62040152D01*
X156977380Y-62040152D02*
X157015476Y-62116342D01*
X157015476Y-62116342D02*
X157053571Y-62154438D01*
X157053571Y-62154438D02*
X157129761Y-62192533D01*
X157129761Y-62192533D02*
X157282142Y-62192533D01*
X157282142Y-62192533D02*
X157358333Y-62154438D01*
X157358333Y-62154438D02*
X157396428Y-62116342D01*
X157396428Y-62116342D02*
X157434523Y-62040152D01*
X143873571Y-31255390D02*
X143797381Y-31217295D01*
X143797381Y-31217295D02*
X143683095Y-31217295D01*
X143683095Y-31217295D02*
X143568809Y-31255390D01*
X143568809Y-31255390D02*
X143492619Y-31331580D01*
X143492619Y-31331580D02*
X143454524Y-31407771D01*
X143454524Y-31407771D02*
X143416428Y-31560152D01*
X143416428Y-31560152D02*
X143416428Y-31674438D01*
X143416428Y-31674438D02*
X143454524Y-31826819D01*
X143454524Y-31826819D02*
X143492619Y-31903009D01*
X143492619Y-31903009D02*
X143568809Y-31979200D01*
X143568809Y-31979200D02*
X143683095Y-32017295D01*
X143683095Y-32017295D02*
X143759286Y-32017295D01*
X143759286Y-32017295D02*
X143873571Y-31979200D01*
X143873571Y-31979200D02*
X143911667Y-31941104D01*
X143911667Y-31941104D02*
X143911667Y-31674438D01*
X143911667Y-31674438D02*
X143759286Y-31674438D01*
X144254524Y-32017295D02*
X144254524Y-31217295D01*
X144254524Y-31217295D02*
X144559286Y-31217295D01*
X144559286Y-31217295D02*
X144635476Y-31255390D01*
X144635476Y-31255390D02*
X144673571Y-31293485D01*
X144673571Y-31293485D02*
X144711667Y-31369676D01*
X144711667Y-31369676D02*
X144711667Y-31483961D01*
X144711667Y-31483961D02*
X144673571Y-31560152D01*
X144673571Y-31560152D02*
X144635476Y-31598247D01*
X144635476Y-31598247D02*
X144559286Y-31636342D01*
X144559286Y-31636342D02*
X144254524Y-31636342D01*
X145016428Y-31293485D02*
X145054524Y-31255390D01*
X145054524Y-31255390D02*
X145130714Y-31217295D01*
X145130714Y-31217295D02*
X145321190Y-31217295D01*
X145321190Y-31217295D02*
X145397381Y-31255390D01*
X145397381Y-31255390D02*
X145435476Y-31293485D01*
X145435476Y-31293485D02*
X145473571Y-31369676D01*
X145473571Y-31369676D02*
X145473571Y-31445866D01*
X145473571Y-31445866D02*
X145435476Y-31560152D01*
X145435476Y-31560152D02*
X144978333Y-32017295D01*
X144978333Y-32017295D02*
X145473571Y-32017295D01*
X150085390Y-69774523D02*
X150047295Y-69850713D01*
X150047295Y-69850713D02*
X150047295Y-69964999D01*
X150047295Y-69964999D02*
X150085390Y-70079285D01*
X150085390Y-70079285D02*
X150161580Y-70155475D01*
X150161580Y-70155475D02*
X150237771Y-70193570D01*
X150237771Y-70193570D02*
X150390152Y-70231666D01*
X150390152Y-70231666D02*
X150504438Y-70231666D01*
X150504438Y-70231666D02*
X150656819Y-70193570D01*
X150656819Y-70193570D02*
X150733009Y-70155475D01*
X150733009Y-70155475D02*
X150809200Y-70079285D01*
X150809200Y-70079285D02*
X150847295Y-69964999D01*
X150847295Y-69964999D02*
X150847295Y-69888808D01*
X150847295Y-69888808D02*
X150809200Y-69774523D01*
X150809200Y-69774523D02*
X150771104Y-69736427D01*
X150771104Y-69736427D02*
X150504438Y-69736427D01*
X150504438Y-69736427D02*
X150504438Y-69888808D01*
X150847295Y-69393570D02*
X150047295Y-69393570D01*
X150047295Y-69393570D02*
X150847295Y-68936427D01*
X150847295Y-68936427D02*
X150047295Y-68936427D01*
X150847295Y-68555475D02*
X150047295Y-68555475D01*
X150047295Y-68555475D02*
X150047295Y-68364999D01*
X150047295Y-68364999D02*
X150085390Y-68250713D01*
X150085390Y-68250713D02*
X150161580Y-68174523D01*
X150161580Y-68174523D02*
X150237771Y-68136428D01*
X150237771Y-68136428D02*
X150390152Y-68098332D01*
X150390152Y-68098332D02*
X150504438Y-68098332D01*
X150504438Y-68098332D02*
X150656819Y-68136428D01*
X150656819Y-68136428D02*
X150733009Y-68174523D01*
X150733009Y-68174523D02*
X150809200Y-68250713D01*
X150809200Y-68250713D02*
X150847295Y-68364999D01*
X150847295Y-68364999D02*
X150847295Y-68555475D01*
X155072618Y-64275390D02*
X154996428Y-64237295D01*
X154996428Y-64237295D02*
X154882142Y-64237295D01*
X154882142Y-64237295D02*
X154767856Y-64275390D01*
X154767856Y-64275390D02*
X154691666Y-64351580D01*
X154691666Y-64351580D02*
X154653571Y-64427771D01*
X154653571Y-64427771D02*
X154615475Y-64580152D01*
X154615475Y-64580152D02*
X154615475Y-64694438D01*
X154615475Y-64694438D02*
X154653571Y-64846819D01*
X154653571Y-64846819D02*
X154691666Y-64923009D01*
X154691666Y-64923009D02*
X154767856Y-64999200D01*
X154767856Y-64999200D02*
X154882142Y-65037295D01*
X154882142Y-65037295D02*
X154958333Y-65037295D01*
X154958333Y-65037295D02*
X155072618Y-64999200D01*
X155072618Y-64999200D02*
X155110714Y-64961104D01*
X155110714Y-64961104D02*
X155110714Y-64694438D01*
X155110714Y-64694438D02*
X154958333Y-64694438D01*
X155453571Y-65037295D02*
X155453571Y-64237295D01*
X155453571Y-64237295D02*
X155758333Y-64237295D01*
X155758333Y-64237295D02*
X155834523Y-64275390D01*
X155834523Y-64275390D02*
X155872618Y-64313485D01*
X155872618Y-64313485D02*
X155910714Y-64389676D01*
X155910714Y-64389676D02*
X155910714Y-64503961D01*
X155910714Y-64503961D02*
X155872618Y-64580152D01*
X155872618Y-64580152D02*
X155834523Y-64618247D01*
X155834523Y-64618247D02*
X155758333Y-64656342D01*
X155758333Y-64656342D02*
X155453571Y-64656342D01*
X156672618Y-65037295D02*
X156215475Y-65037295D01*
X156444047Y-65037295D02*
X156444047Y-64237295D01*
X156444047Y-64237295D02*
X156367856Y-64351580D01*
X156367856Y-64351580D02*
X156291666Y-64427771D01*
X156291666Y-64427771D02*
X156215475Y-64465866D01*
X157129761Y-64580152D02*
X157053571Y-64542057D01*
X157053571Y-64542057D02*
X157015476Y-64503961D01*
X157015476Y-64503961D02*
X156977380Y-64427771D01*
X156977380Y-64427771D02*
X156977380Y-64389676D01*
X156977380Y-64389676D02*
X157015476Y-64313485D01*
X157015476Y-64313485D02*
X157053571Y-64275390D01*
X157053571Y-64275390D02*
X157129761Y-64237295D01*
X157129761Y-64237295D02*
X157282142Y-64237295D01*
X157282142Y-64237295D02*
X157358333Y-64275390D01*
X157358333Y-64275390D02*
X157396428Y-64313485D01*
X157396428Y-64313485D02*
X157434523Y-64389676D01*
X157434523Y-64389676D02*
X157434523Y-64427771D01*
X157434523Y-64427771D02*
X157396428Y-64503961D01*
X157396428Y-64503961D02*
X157358333Y-64542057D01*
X157358333Y-64542057D02*
X157282142Y-64580152D01*
X157282142Y-64580152D02*
X157129761Y-64580152D01*
X157129761Y-64580152D02*
X157053571Y-64618247D01*
X157053571Y-64618247D02*
X157015476Y-64656342D01*
X157015476Y-64656342D02*
X156977380Y-64732533D01*
X156977380Y-64732533D02*
X156977380Y-64884914D01*
X156977380Y-64884914D02*
X157015476Y-64961104D01*
X157015476Y-64961104D02*
X157053571Y-64999200D01*
X157053571Y-64999200D02*
X157129761Y-65037295D01*
X157129761Y-65037295D02*
X157282142Y-65037295D01*
X157282142Y-65037295D02*
X157358333Y-64999200D01*
X157358333Y-64999200D02*
X157396428Y-64961104D01*
X157396428Y-64961104D02*
X157434523Y-64884914D01*
X157434523Y-64884914D02*
X157434523Y-64732533D01*
X157434523Y-64732533D02*
X157396428Y-64656342D01*
X157396428Y-64656342D02*
X157358333Y-64618247D01*
X157358333Y-64618247D02*
X157282142Y-64580152D01*
X143873571Y-43955390D02*
X143797381Y-43917295D01*
X143797381Y-43917295D02*
X143683095Y-43917295D01*
X143683095Y-43917295D02*
X143568809Y-43955390D01*
X143568809Y-43955390D02*
X143492619Y-44031580D01*
X143492619Y-44031580D02*
X143454524Y-44107771D01*
X143454524Y-44107771D02*
X143416428Y-44260152D01*
X143416428Y-44260152D02*
X143416428Y-44374438D01*
X143416428Y-44374438D02*
X143454524Y-44526819D01*
X143454524Y-44526819D02*
X143492619Y-44603009D01*
X143492619Y-44603009D02*
X143568809Y-44679200D01*
X143568809Y-44679200D02*
X143683095Y-44717295D01*
X143683095Y-44717295D02*
X143759286Y-44717295D01*
X143759286Y-44717295D02*
X143873571Y-44679200D01*
X143873571Y-44679200D02*
X143911667Y-44641104D01*
X143911667Y-44641104D02*
X143911667Y-44374438D01*
X143911667Y-44374438D02*
X143759286Y-44374438D01*
X144254524Y-44717295D02*
X144254524Y-43917295D01*
X144254524Y-43917295D02*
X144559286Y-43917295D01*
X144559286Y-43917295D02*
X144635476Y-43955390D01*
X144635476Y-43955390D02*
X144673571Y-43993485D01*
X144673571Y-43993485D02*
X144711667Y-44069676D01*
X144711667Y-44069676D02*
X144711667Y-44183961D01*
X144711667Y-44183961D02*
X144673571Y-44260152D01*
X144673571Y-44260152D02*
X144635476Y-44298247D01*
X144635476Y-44298247D02*
X144559286Y-44336342D01*
X144559286Y-44336342D02*
X144254524Y-44336342D01*
X145397381Y-43917295D02*
X145245000Y-43917295D01*
X145245000Y-43917295D02*
X145168809Y-43955390D01*
X145168809Y-43955390D02*
X145130714Y-43993485D01*
X145130714Y-43993485D02*
X145054524Y-44107771D01*
X145054524Y-44107771D02*
X145016428Y-44260152D01*
X145016428Y-44260152D02*
X145016428Y-44564914D01*
X145016428Y-44564914D02*
X145054524Y-44641104D01*
X145054524Y-44641104D02*
X145092619Y-44679200D01*
X145092619Y-44679200D02*
X145168809Y-44717295D01*
X145168809Y-44717295D02*
X145321190Y-44717295D01*
X145321190Y-44717295D02*
X145397381Y-44679200D01*
X145397381Y-44679200D02*
X145435476Y-44641104D01*
X145435476Y-44641104D02*
X145473571Y-44564914D01*
X145473571Y-44564914D02*
X145473571Y-44374438D01*
X145473571Y-44374438D02*
X145435476Y-44298247D01*
X145435476Y-44298247D02*
X145397381Y-44260152D01*
X145397381Y-44260152D02*
X145321190Y-44222057D01*
X145321190Y-44222057D02*
X145168809Y-44222057D01*
X145168809Y-44222057D02*
X145092619Y-44260152D01*
X145092619Y-44260152D02*
X145054524Y-44298247D01*
X145054524Y-44298247D02*
X145016428Y-44374438D01*
X155072618Y-56665390D02*
X154996428Y-56627295D01*
X154996428Y-56627295D02*
X154882142Y-56627295D01*
X154882142Y-56627295D02*
X154767856Y-56665390D01*
X154767856Y-56665390D02*
X154691666Y-56741580D01*
X154691666Y-56741580D02*
X154653571Y-56817771D01*
X154653571Y-56817771D02*
X154615475Y-56970152D01*
X154615475Y-56970152D02*
X154615475Y-57084438D01*
X154615475Y-57084438D02*
X154653571Y-57236819D01*
X154653571Y-57236819D02*
X154691666Y-57313009D01*
X154691666Y-57313009D02*
X154767856Y-57389200D01*
X154767856Y-57389200D02*
X154882142Y-57427295D01*
X154882142Y-57427295D02*
X154958333Y-57427295D01*
X154958333Y-57427295D02*
X155072618Y-57389200D01*
X155072618Y-57389200D02*
X155110714Y-57351104D01*
X155110714Y-57351104D02*
X155110714Y-57084438D01*
X155110714Y-57084438D02*
X154958333Y-57084438D01*
X155453571Y-57427295D02*
X155453571Y-56627295D01*
X155453571Y-56627295D02*
X155758333Y-56627295D01*
X155758333Y-56627295D02*
X155834523Y-56665390D01*
X155834523Y-56665390D02*
X155872618Y-56703485D01*
X155872618Y-56703485D02*
X155910714Y-56779676D01*
X155910714Y-56779676D02*
X155910714Y-56893961D01*
X155910714Y-56893961D02*
X155872618Y-56970152D01*
X155872618Y-56970152D02*
X155834523Y-57008247D01*
X155834523Y-57008247D02*
X155758333Y-57046342D01*
X155758333Y-57046342D02*
X155453571Y-57046342D01*
X156215475Y-56703485D02*
X156253571Y-56665390D01*
X156253571Y-56665390D02*
X156329761Y-56627295D01*
X156329761Y-56627295D02*
X156520237Y-56627295D01*
X156520237Y-56627295D02*
X156596428Y-56665390D01*
X156596428Y-56665390D02*
X156634523Y-56703485D01*
X156634523Y-56703485D02*
X156672618Y-56779676D01*
X156672618Y-56779676D02*
X156672618Y-56855866D01*
X156672618Y-56855866D02*
X156634523Y-56970152D01*
X156634523Y-56970152D02*
X156177380Y-57427295D01*
X156177380Y-57427295D02*
X156672618Y-57427295D01*
X157434523Y-57427295D02*
X156977380Y-57427295D01*
X157205952Y-57427295D02*
X157205952Y-56627295D01*
X157205952Y-56627295D02*
X157129761Y-56741580D01*
X157129761Y-56741580D02*
X157053571Y-56817771D01*
X157053571Y-56817771D02*
X156977380Y-56855866D01*
X155072618Y-51575390D02*
X154996428Y-51537295D01*
X154996428Y-51537295D02*
X154882142Y-51537295D01*
X154882142Y-51537295D02*
X154767856Y-51575390D01*
X154767856Y-51575390D02*
X154691666Y-51651580D01*
X154691666Y-51651580D02*
X154653571Y-51727771D01*
X154653571Y-51727771D02*
X154615475Y-51880152D01*
X154615475Y-51880152D02*
X154615475Y-51994438D01*
X154615475Y-51994438D02*
X154653571Y-52146819D01*
X154653571Y-52146819D02*
X154691666Y-52223009D01*
X154691666Y-52223009D02*
X154767856Y-52299200D01*
X154767856Y-52299200D02*
X154882142Y-52337295D01*
X154882142Y-52337295D02*
X154958333Y-52337295D01*
X154958333Y-52337295D02*
X155072618Y-52299200D01*
X155072618Y-52299200D02*
X155110714Y-52261104D01*
X155110714Y-52261104D02*
X155110714Y-51994438D01*
X155110714Y-51994438D02*
X154958333Y-51994438D01*
X155453571Y-52337295D02*
X155453571Y-51537295D01*
X155453571Y-51537295D02*
X155758333Y-51537295D01*
X155758333Y-51537295D02*
X155834523Y-51575390D01*
X155834523Y-51575390D02*
X155872618Y-51613485D01*
X155872618Y-51613485D02*
X155910714Y-51689676D01*
X155910714Y-51689676D02*
X155910714Y-51803961D01*
X155910714Y-51803961D02*
X155872618Y-51880152D01*
X155872618Y-51880152D02*
X155834523Y-51918247D01*
X155834523Y-51918247D02*
X155758333Y-51956342D01*
X155758333Y-51956342D02*
X155453571Y-51956342D01*
X156215475Y-51613485D02*
X156253571Y-51575390D01*
X156253571Y-51575390D02*
X156329761Y-51537295D01*
X156329761Y-51537295D02*
X156520237Y-51537295D01*
X156520237Y-51537295D02*
X156596428Y-51575390D01*
X156596428Y-51575390D02*
X156634523Y-51613485D01*
X156634523Y-51613485D02*
X156672618Y-51689676D01*
X156672618Y-51689676D02*
X156672618Y-51765866D01*
X156672618Y-51765866D02*
X156634523Y-51880152D01*
X156634523Y-51880152D02*
X156177380Y-52337295D01*
X156177380Y-52337295D02*
X156672618Y-52337295D01*
X156977380Y-51613485D02*
X157015476Y-51575390D01*
X157015476Y-51575390D02*
X157091666Y-51537295D01*
X157091666Y-51537295D02*
X157282142Y-51537295D01*
X157282142Y-51537295D02*
X157358333Y-51575390D01*
X157358333Y-51575390D02*
X157396428Y-51613485D01*
X157396428Y-51613485D02*
X157434523Y-51689676D01*
X157434523Y-51689676D02*
X157434523Y-51765866D01*
X157434523Y-51765866D02*
X157396428Y-51880152D01*
X157396428Y-51880152D02*
X156939285Y-52337295D01*
X156939285Y-52337295D02*
X157434523Y-52337295D01*
X143835476Y-54115390D02*
X143759286Y-54077295D01*
X143759286Y-54077295D02*
X143645000Y-54077295D01*
X143645000Y-54077295D02*
X143530714Y-54115390D01*
X143530714Y-54115390D02*
X143454524Y-54191580D01*
X143454524Y-54191580D02*
X143416429Y-54267771D01*
X143416429Y-54267771D02*
X143378333Y-54420152D01*
X143378333Y-54420152D02*
X143378333Y-54534438D01*
X143378333Y-54534438D02*
X143416429Y-54686819D01*
X143416429Y-54686819D02*
X143454524Y-54763009D01*
X143454524Y-54763009D02*
X143530714Y-54839200D01*
X143530714Y-54839200D02*
X143645000Y-54877295D01*
X143645000Y-54877295D02*
X143721191Y-54877295D01*
X143721191Y-54877295D02*
X143835476Y-54839200D01*
X143835476Y-54839200D02*
X143873572Y-54801104D01*
X143873572Y-54801104D02*
X143873572Y-54534438D01*
X143873572Y-54534438D02*
X143721191Y-54534438D01*
X144216429Y-54877295D02*
X144216429Y-54077295D01*
X144216429Y-54077295D02*
X144673572Y-54877295D01*
X144673572Y-54877295D02*
X144673572Y-54077295D01*
X145054524Y-54877295D02*
X145054524Y-54077295D01*
X145054524Y-54077295D02*
X145245000Y-54077295D01*
X145245000Y-54077295D02*
X145359286Y-54115390D01*
X145359286Y-54115390D02*
X145435476Y-54191580D01*
X145435476Y-54191580D02*
X145473571Y-54267771D01*
X145473571Y-54267771D02*
X145511667Y-54420152D01*
X145511667Y-54420152D02*
X145511667Y-54534438D01*
X145511667Y-54534438D02*
X145473571Y-54686819D01*
X145473571Y-54686819D02*
X145435476Y-54763009D01*
X145435476Y-54763009D02*
X145359286Y-54839200D01*
X145359286Y-54839200D02*
X145245000Y-54877295D01*
X145245000Y-54877295D02*
X145054524Y-54877295D01*
X143842618Y-69355390D02*
X143766428Y-69317295D01*
X143766428Y-69317295D02*
X143652142Y-69317295D01*
X143652142Y-69317295D02*
X143537856Y-69355390D01*
X143537856Y-69355390D02*
X143461666Y-69431580D01*
X143461666Y-69431580D02*
X143423571Y-69507771D01*
X143423571Y-69507771D02*
X143385475Y-69660152D01*
X143385475Y-69660152D02*
X143385475Y-69774438D01*
X143385475Y-69774438D02*
X143423571Y-69926819D01*
X143423571Y-69926819D02*
X143461666Y-70003009D01*
X143461666Y-70003009D02*
X143537856Y-70079200D01*
X143537856Y-70079200D02*
X143652142Y-70117295D01*
X143652142Y-70117295D02*
X143728333Y-70117295D01*
X143728333Y-70117295D02*
X143842618Y-70079200D01*
X143842618Y-70079200D02*
X143880714Y-70041104D01*
X143880714Y-70041104D02*
X143880714Y-69774438D01*
X143880714Y-69774438D02*
X143728333Y-69774438D01*
X144223571Y-70117295D02*
X144223571Y-69317295D01*
X144223571Y-69317295D02*
X144528333Y-69317295D01*
X144528333Y-69317295D02*
X144604523Y-69355390D01*
X144604523Y-69355390D02*
X144642618Y-69393485D01*
X144642618Y-69393485D02*
X144680714Y-69469676D01*
X144680714Y-69469676D02*
X144680714Y-69583961D01*
X144680714Y-69583961D02*
X144642618Y-69660152D01*
X144642618Y-69660152D02*
X144604523Y-69698247D01*
X144604523Y-69698247D02*
X144528333Y-69736342D01*
X144528333Y-69736342D02*
X144223571Y-69736342D01*
X145442618Y-70117295D02*
X144985475Y-70117295D01*
X145214047Y-70117295D02*
X145214047Y-69317295D01*
X145214047Y-69317295D02*
X145137856Y-69431580D01*
X145137856Y-69431580D02*
X145061666Y-69507771D01*
X145061666Y-69507771D02*
X144985475Y-69545866D01*
X146128333Y-69583961D02*
X146128333Y-70117295D01*
X145937857Y-69279200D02*
X145747380Y-69850628D01*
X145747380Y-69850628D02*
X146242619Y-69850628D01*
X154903571Y-26137295D02*
X155170238Y-26937295D01*
X155170238Y-26937295D02*
X155436904Y-26137295D01*
X155665475Y-26899200D02*
X155779761Y-26937295D01*
X155779761Y-26937295D02*
X155970237Y-26937295D01*
X155970237Y-26937295D02*
X156046428Y-26899200D01*
X156046428Y-26899200D02*
X156084523Y-26861104D01*
X156084523Y-26861104D02*
X156122618Y-26784914D01*
X156122618Y-26784914D02*
X156122618Y-26708723D01*
X156122618Y-26708723D02*
X156084523Y-26632533D01*
X156084523Y-26632533D02*
X156046428Y-26594438D01*
X156046428Y-26594438D02*
X155970237Y-26556342D01*
X155970237Y-26556342D02*
X155817856Y-26518247D01*
X155817856Y-26518247D02*
X155741666Y-26480152D01*
X155741666Y-26480152D02*
X155703571Y-26442057D01*
X155703571Y-26442057D02*
X155665475Y-26365866D01*
X155665475Y-26365866D02*
X155665475Y-26289676D01*
X155665475Y-26289676D02*
X155703571Y-26213485D01*
X155703571Y-26213485D02*
X155741666Y-26175390D01*
X155741666Y-26175390D02*
X155817856Y-26137295D01*
X155817856Y-26137295D02*
X156008333Y-26137295D01*
X156008333Y-26137295D02*
X156122618Y-26175390D01*
X156617857Y-26556342D02*
X156617857Y-26937295D01*
X156351190Y-26137295D02*
X156617857Y-26556342D01*
X156617857Y-26556342D02*
X156884523Y-26137295D01*
X157113094Y-26899200D02*
X157227380Y-26937295D01*
X157227380Y-26937295D02*
X157417856Y-26937295D01*
X157417856Y-26937295D02*
X157494047Y-26899200D01*
X157494047Y-26899200D02*
X157532142Y-26861104D01*
X157532142Y-26861104D02*
X157570237Y-26784914D01*
X157570237Y-26784914D02*
X157570237Y-26708723D01*
X157570237Y-26708723D02*
X157532142Y-26632533D01*
X157532142Y-26632533D02*
X157494047Y-26594438D01*
X157494047Y-26594438D02*
X157417856Y-26556342D01*
X157417856Y-26556342D02*
X157265475Y-26518247D01*
X157265475Y-26518247D02*
X157189285Y-26480152D01*
X157189285Y-26480152D02*
X157151190Y-26442057D01*
X157151190Y-26442057D02*
X157113094Y-26365866D01*
X157113094Y-26365866D02*
X157113094Y-26289676D01*
X157113094Y-26289676D02*
X157151190Y-26213485D01*
X157151190Y-26213485D02*
X157189285Y-26175390D01*
X157189285Y-26175390D02*
X157265475Y-26137295D01*
X157265475Y-26137295D02*
X157455952Y-26137295D01*
X157455952Y-26137295D02*
X157570237Y-26175390D01*
X143842618Y-61735390D02*
X143766428Y-61697295D01*
X143766428Y-61697295D02*
X143652142Y-61697295D01*
X143652142Y-61697295D02*
X143537856Y-61735390D01*
X143537856Y-61735390D02*
X143461666Y-61811580D01*
X143461666Y-61811580D02*
X143423571Y-61887771D01*
X143423571Y-61887771D02*
X143385475Y-62040152D01*
X143385475Y-62040152D02*
X143385475Y-62154438D01*
X143385475Y-62154438D02*
X143423571Y-62306819D01*
X143423571Y-62306819D02*
X143461666Y-62383009D01*
X143461666Y-62383009D02*
X143537856Y-62459200D01*
X143537856Y-62459200D02*
X143652142Y-62497295D01*
X143652142Y-62497295D02*
X143728333Y-62497295D01*
X143728333Y-62497295D02*
X143842618Y-62459200D01*
X143842618Y-62459200D02*
X143880714Y-62421104D01*
X143880714Y-62421104D02*
X143880714Y-62154438D01*
X143880714Y-62154438D02*
X143728333Y-62154438D01*
X144223571Y-62497295D02*
X144223571Y-61697295D01*
X144223571Y-61697295D02*
X144528333Y-61697295D01*
X144528333Y-61697295D02*
X144604523Y-61735390D01*
X144604523Y-61735390D02*
X144642618Y-61773485D01*
X144642618Y-61773485D02*
X144680714Y-61849676D01*
X144680714Y-61849676D02*
X144680714Y-61963961D01*
X144680714Y-61963961D02*
X144642618Y-62040152D01*
X144642618Y-62040152D02*
X144604523Y-62078247D01*
X144604523Y-62078247D02*
X144528333Y-62116342D01*
X144528333Y-62116342D02*
X144223571Y-62116342D01*
X145442618Y-62497295D02*
X144985475Y-62497295D01*
X145214047Y-62497295D02*
X145214047Y-61697295D01*
X145214047Y-61697295D02*
X145137856Y-61811580D01*
X145137856Y-61811580D02*
X145061666Y-61887771D01*
X145061666Y-61887771D02*
X144985475Y-61925866D01*
X145747380Y-61773485D02*
X145785476Y-61735390D01*
X145785476Y-61735390D02*
X145861666Y-61697295D01*
X145861666Y-61697295D02*
X146052142Y-61697295D01*
X146052142Y-61697295D02*
X146128333Y-61735390D01*
X146128333Y-61735390D02*
X146166428Y-61773485D01*
X146166428Y-61773485D02*
X146204523Y-61849676D01*
X146204523Y-61849676D02*
X146204523Y-61925866D01*
X146204523Y-61925866D02*
X146166428Y-62040152D01*
X146166428Y-62040152D02*
X145709285Y-62497295D01*
X145709285Y-62497295D02*
X146204523Y-62497295D01*
X143873571Y-26165390D02*
X143797381Y-26127295D01*
X143797381Y-26127295D02*
X143683095Y-26127295D01*
X143683095Y-26127295D02*
X143568809Y-26165390D01*
X143568809Y-26165390D02*
X143492619Y-26241580D01*
X143492619Y-26241580D02*
X143454524Y-26317771D01*
X143454524Y-26317771D02*
X143416428Y-26470152D01*
X143416428Y-26470152D02*
X143416428Y-26584438D01*
X143416428Y-26584438D02*
X143454524Y-26736819D01*
X143454524Y-26736819D02*
X143492619Y-26813009D01*
X143492619Y-26813009D02*
X143568809Y-26889200D01*
X143568809Y-26889200D02*
X143683095Y-26927295D01*
X143683095Y-26927295D02*
X143759286Y-26927295D01*
X143759286Y-26927295D02*
X143873571Y-26889200D01*
X143873571Y-26889200D02*
X143911667Y-26851104D01*
X143911667Y-26851104D02*
X143911667Y-26584438D01*
X143911667Y-26584438D02*
X143759286Y-26584438D01*
X144254524Y-26927295D02*
X144254524Y-26127295D01*
X144254524Y-26127295D02*
X144559286Y-26127295D01*
X144559286Y-26127295D02*
X144635476Y-26165390D01*
X144635476Y-26165390D02*
X144673571Y-26203485D01*
X144673571Y-26203485D02*
X144711667Y-26279676D01*
X144711667Y-26279676D02*
X144711667Y-26393961D01*
X144711667Y-26393961D02*
X144673571Y-26470152D01*
X144673571Y-26470152D02*
X144635476Y-26508247D01*
X144635476Y-26508247D02*
X144559286Y-26546342D01*
X144559286Y-26546342D02*
X144254524Y-26546342D01*
X145473571Y-26927295D02*
X145016428Y-26927295D01*
X145245000Y-26927295D02*
X145245000Y-26127295D01*
X145245000Y-26127295D02*
X145168809Y-26241580D01*
X145168809Y-26241580D02*
X145092619Y-26317771D01*
X145092619Y-26317771D02*
X145016428Y-26355866D01*
X143842618Y-56655390D02*
X143766428Y-56617295D01*
X143766428Y-56617295D02*
X143652142Y-56617295D01*
X143652142Y-56617295D02*
X143537856Y-56655390D01*
X143537856Y-56655390D02*
X143461666Y-56731580D01*
X143461666Y-56731580D02*
X143423571Y-56807771D01*
X143423571Y-56807771D02*
X143385475Y-56960152D01*
X143385475Y-56960152D02*
X143385475Y-57074438D01*
X143385475Y-57074438D02*
X143423571Y-57226819D01*
X143423571Y-57226819D02*
X143461666Y-57303009D01*
X143461666Y-57303009D02*
X143537856Y-57379200D01*
X143537856Y-57379200D02*
X143652142Y-57417295D01*
X143652142Y-57417295D02*
X143728333Y-57417295D01*
X143728333Y-57417295D02*
X143842618Y-57379200D01*
X143842618Y-57379200D02*
X143880714Y-57341104D01*
X143880714Y-57341104D02*
X143880714Y-57074438D01*
X143880714Y-57074438D02*
X143728333Y-57074438D01*
X144223571Y-57417295D02*
X144223571Y-56617295D01*
X144223571Y-56617295D02*
X144528333Y-56617295D01*
X144528333Y-56617295D02*
X144604523Y-56655390D01*
X144604523Y-56655390D02*
X144642618Y-56693485D01*
X144642618Y-56693485D02*
X144680714Y-56769676D01*
X144680714Y-56769676D02*
X144680714Y-56883961D01*
X144680714Y-56883961D02*
X144642618Y-56960152D01*
X144642618Y-56960152D02*
X144604523Y-56998247D01*
X144604523Y-56998247D02*
X144528333Y-57036342D01*
X144528333Y-57036342D02*
X144223571Y-57036342D01*
X145442618Y-57417295D02*
X144985475Y-57417295D01*
X145214047Y-57417295D02*
X145214047Y-56617295D01*
X145214047Y-56617295D02*
X145137856Y-56731580D01*
X145137856Y-56731580D02*
X145061666Y-56807771D01*
X145061666Y-56807771D02*
X144985475Y-56845866D01*
X145937857Y-56617295D02*
X146014047Y-56617295D01*
X146014047Y-56617295D02*
X146090238Y-56655390D01*
X146090238Y-56655390D02*
X146128333Y-56693485D01*
X146128333Y-56693485D02*
X146166428Y-56769676D01*
X146166428Y-56769676D02*
X146204523Y-56922057D01*
X146204523Y-56922057D02*
X146204523Y-57112533D01*
X146204523Y-57112533D02*
X146166428Y-57264914D01*
X146166428Y-57264914D02*
X146128333Y-57341104D01*
X146128333Y-57341104D02*
X146090238Y-57379200D01*
X146090238Y-57379200D02*
X146014047Y-57417295D01*
X146014047Y-57417295D02*
X145937857Y-57417295D01*
X145937857Y-57417295D02*
X145861666Y-57379200D01*
X145861666Y-57379200D02*
X145823571Y-57341104D01*
X145823571Y-57341104D02*
X145785476Y-57264914D01*
X145785476Y-57264914D02*
X145747380Y-57112533D01*
X145747380Y-57112533D02*
X145747380Y-56922057D01*
X145747380Y-56922057D02*
X145785476Y-56769676D01*
X145785476Y-56769676D02*
X145823571Y-56693485D01*
X145823571Y-56693485D02*
X145861666Y-56655390D01*
X145861666Y-56655390D02*
X145937857Y-56617295D01*
X155784524Y-49797295D02*
X155517857Y-49416342D01*
X155327381Y-49797295D02*
X155327381Y-48997295D01*
X155327381Y-48997295D02*
X155632143Y-48997295D01*
X155632143Y-48997295D02*
X155708333Y-49035390D01*
X155708333Y-49035390D02*
X155746428Y-49073485D01*
X155746428Y-49073485D02*
X155784524Y-49149676D01*
X155784524Y-49149676D02*
X155784524Y-49263961D01*
X155784524Y-49263961D02*
X155746428Y-49340152D01*
X155746428Y-49340152D02*
X155708333Y-49378247D01*
X155708333Y-49378247D02*
X155632143Y-49416342D01*
X155632143Y-49416342D02*
X155327381Y-49416342D01*
X156127381Y-48997295D02*
X156127381Y-49644914D01*
X156127381Y-49644914D02*
X156165476Y-49721104D01*
X156165476Y-49721104D02*
X156203571Y-49759200D01*
X156203571Y-49759200D02*
X156279762Y-49797295D01*
X156279762Y-49797295D02*
X156432143Y-49797295D01*
X156432143Y-49797295D02*
X156508333Y-49759200D01*
X156508333Y-49759200D02*
X156546428Y-49721104D01*
X156546428Y-49721104D02*
X156584524Y-49644914D01*
X156584524Y-49644914D02*
X156584524Y-48997295D01*
X156965476Y-49797295D02*
X156965476Y-48997295D01*
X156965476Y-48997295D02*
X157422619Y-49797295D01*
X157422619Y-49797295D02*
X157422619Y-48997295D01*
X155072618Y-43965390D02*
X154996428Y-43927295D01*
X154996428Y-43927295D02*
X154882142Y-43927295D01*
X154882142Y-43927295D02*
X154767856Y-43965390D01*
X154767856Y-43965390D02*
X154691666Y-44041580D01*
X154691666Y-44041580D02*
X154653571Y-44117771D01*
X154653571Y-44117771D02*
X154615475Y-44270152D01*
X154615475Y-44270152D02*
X154615475Y-44384438D01*
X154615475Y-44384438D02*
X154653571Y-44536819D01*
X154653571Y-44536819D02*
X154691666Y-44613009D01*
X154691666Y-44613009D02*
X154767856Y-44689200D01*
X154767856Y-44689200D02*
X154882142Y-44727295D01*
X154882142Y-44727295D02*
X154958333Y-44727295D01*
X154958333Y-44727295D02*
X155072618Y-44689200D01*
X155072618Y-44689200D02*
X155110714Y-44651104D01*
X155110714Y-44651104D02*
X155110714Y-44384438D01*
X155110714Y-44384438D02*
X154958333Y-44384438D01*
X155453571Y-44727295D02*
X155453571Y-43927295D01*
X155453571Y-43927295D02*
X155758333Y-43927295D01*
X155758333Y-43927295D02*
X155834523Y-43965390D01*
X155834523Y-43965390D02*
X155872618Y-44003485D01*
X155872618Y-44003485D02*
X155910714Y-44079676D01*
X155910714Y-44079676D02*
X155910714Y-44193961D01*
X155910714Y-44193961D02*
X155872618Y-44270152D01*
X155872618Y-44270152D02*
X155834523Y-44308247D01*
X155834523Y-44308247D02*
X155758333Y-44346342D01*
X155758333Y-44346342D02*
X155453571Y-44346342D01*
X156215475Y-44003485D02*
X156253571Y-43965390D01*
X156253571Y-43965390D02*
X156329761Y-43927295D01*
X156329761Y-43927295D02*
X156520237Y-43927295D01*
X156520237Y-43927295D02*
X156596428Y-43965390D01*
X156596428Y-43965390D02*
X156634523Y-44003485D01*
X156634523Y-44003485D02*
X156672618Y-44079676D01*
X156672618Y-44079676D02*
X156672618Y-44155866D01*
X156672618Y-44155866D02*
X156634523Y-44270152D01*
X156634523Y-44270152D02*
X156177380Y-44727295D01*
X156177380Y-44727295D02*
X156672618Y-44727295D01*
X156939285Y-43927295D02*
X157472619Y-43927295D01*
X157472619Y-43927295D02*
X157129761Y-44727295D01*
X217360595Y-61622200D02*
X217503452Y-61669819D01*
X217503452Y-61669819D02*
X217741547Y-61669819D01*
X217741547Y-61669819D02*
X217836785Y-61622200D01*
X217836785Y-61622200D02*
X217884404Y-61574580D01*
X217884404Y-61574580D02*
X217932023Y-61479342D01*
X217932023Y-61479342D02*
X217932023Y-61384104D01*
X217932023Y-61384104D02*
X217884404Y-61288866D01*
X217884404Y-61288866D02*
X217836785Y-61241247D01*
X217836785Y-61241247D02*
X217741547Y-61193628D01*
X217741547Y-61193628D02*
X217551071Y-61146009D01*
X217551071Y-61146009D02*
X217455833Y-61098390D01*
X217455833Y-61098390D02*
X217408214Y-61050771D01*
X217408214Y-61050771D02*
X217360595Y-60955533D01*
X217360595Y-60955533D02*
X217360595Y-60860295D01*
X217360595Y-60860295D02*
X217408214Y-60765057D01*
X217408214Y-60765057D02*
X217455833Y-60717438D01*
X217455833Y-60717438D02*
X217551071Y-60669819D01*
X217551071Y-60669819D02*
X217789166Y-60669819D01*
X217789166Y-60669819D02*
X217932023Y-60717438D01*
X218265357Y-60669819D02*
X218884404Y-60669819D01*
X218884404Y-60669819D02*
X218551071Y-61050771D01*
X218551071Y-61050771D02*
X218693928Y-61050771D01*
X218693928Y-61050771D02*
X218789166Y-61098390D01*
X218789166Y-61098390D02*
X218836785Y-61146009D01*
X218836785Y-61146009D02*
X218884404Y-61241247D01*
X218884404Y-61241247D02*
X218884404Y-61479342D01*
X218884404Y-61479342D02*
X218836785Y-61574580D01*
X218836785Y-61574580D02*
X218789166Y-61622200D01*
X218789166Y-61622200D02*
X218693928Y-61669819D01*
X218693928Y-61669819D02*
X218408214Y-61669819D01*
X218408214Y-61669819D02*
X218312976Y-61622200D01*
X218312976Y-61622200D02*
X218265357Y-61574580D01*
X224723095Y-27869819D02*
X224723095Y-26869819D01*
X224723095Y-27346009D02*
X225294523Y-27346009D01*
X225294523Y-27869819D02*
X225294523Y-26869819D01*
X225675476Y-26869819D02*
X226294523Y-26869819D01*
X226294523Y-26869819D02*
X225961190Y-27250771D01*
X225961190Y-27250771D02*
X226104047Y-27250771D01*
X226104047Y-27250771D02*
X226199285Y-27298390D01*
X226199285Y-27298390D02*
X226246904Y-27346009D01*
X226246904Y-27346009D02*
X226294523Y-27441247D01*
X226294523Y-27441247D02*
X226294523Y-27679342D01*
X226294523Y-27679342D02*
X226246904Y-27774580D01*
X226246904Y-27774580D02*
X226199285Y-27822200D01*
X226199285Y-27822200D02*
X226104047Y-27869819D01*
X226104047Y-27869819D02*
X225818333Y-27869819D01*
X225818333Y-27869819D02*
X225723095Y-27822200D01*
X225723095Y-27822200D02*
X225675476Y-27774580D01*
X179260595Y-99722200D02*
X179403452Y-99769819D01*
X179403452Y-99769819D02*
X179641547Y-99769819D01*
X179641547Y-99769819D02*
X179736785Y-99722200D01*
X179736785Y-99722200D02*
X179784404Y-99674580D01*
X179784404Y-99674580D02*
X179832023Y-99579342D01*
X179832023Y-99579342D02*
X179832023Y-99484104D01*
X179832023Y-99484104D02*
X179784404Y-99388866D01*
X179784404Y-99388866D02*
X179736785Y-99341247D01*
X179736785Y-99341247D02*
X179641547Y-99293628D01*
X179641547Y-99293628D02*
X179451071Y-99246009D01*
X179451071Y-99246009D02*
X179355833Y-99198390D01*
X179355833Y-99198390D02*
X179308214Y-99150771D01*
X179308214Y-99150771D02*
X179260595Y-99055533D01*
X179260595Y-99055533D02*
X179260595Y-98960295D01*
X179260595Y-98960295D02*
X179308214Y-98865057D01*
X179308214Y-98865057D02*
X179355833Y-98817438D01*
X179355833Y-98817438D02*
X179451071Y-98769819D01*
X179451071Y-98769819D02*
X179689166Y-98769819D01*
X179689166Y-98769819D02*
X179832023Y-98817438D01*
X180165357Y-98769819D02*
X180832023Y-98769819D01*
X180832023Y-98769819D02*
X180403452Y-99769819D01*
X198310595Y-80672200D02*
X198453452Y-80719819D01*
X198453452Y-80719819D02*
X198691547Y-80719819D01*
X198691547Y-80719819D02*
X198786785Y-80672200D01*
X198786785Y-80672200D02*
X198834404Y-80624580D01*
X198834404Y-80624580D02*
X198882023Y-80529342D01*
X198882023Y-80529342D02*
X198882023Y-80434104D01*
X198882023Y-80434104D02*
X198834404Y-80338866D01*
X198834404Y-80338866D02*
X198786785Y-80291247D01*
X198786785Y-80291247D02*
X198691547Y-80243628D01*
X198691547Y-80243628D02*
X198501071Y-80196009D01*
X198501071Y-80196009D02*
X198405833Y-80148390D01*
X198405833Y-80148390D02*
X198358214Y-80100771D01*
X198358214Y-80100771D02*
X198310595Y-80005533D01*
X198310595Y-80005533D02*
X198310595Y-79910295D01*
X198310595Y-79910295D02*
X198358214Y-79815057D01*
X198358214Y-79815057D02*
X198405833Y-79767438D01*
X198405833Y-79767438D02*
X198501071Y-79719819D01*
X198501071Y-79719819D02*
X198739166Y-79719819D01*
X198739166Y-79719819D02*
X198882023Y-79767438D01*
X199786785Y-79719819D02*
X199310595Y-79719819D01*
X199310595Y-79719819D02*
X199262976Y-80196009D01*
X199262976Y-80196009D02*
X199310595Y-80148390D01*
X199310595Y-80148390D02*
X199405833Y-80100771D01*
X199405833Y-80100771D02*
X199643928Y-80100771D01*
X199643928Y-80100771D02*
X199739166Y-80148390D01*
X199739166Y-80148390D02*
X199786785Y-80196009D01*
X199786785Y-80196009D02*
X199834404Y-80291247D01*
X199834404Y-80291247D02*
X199834404Y-80529342D01*
X199834404Y-80529342D02*
X199786785Y-80624580D01*
X199786785Y-80624580D02*
X199739166Y-80672200D01*
X199739166Y-80672200D02*
X199643928Y-80719819D01*
X199643928Y-80719819D02*
X199405833Y-80719819D01*
X199405833Y-80719819D02*
X199310595Y-80672200D01*
X199310595Y-80672200D02*
X199262976Y-80624580D01*
X140723095Y-113119819D02*
X140723095Y-112119819D01*
X140723095Y-112596009D02*
X141294523Y-112596009D01*
X141294523Y-113119819D02*
X141294523Y-112119819D01*
X141723095Y-112215057D02*
X141770714Y-112167438D01*
X141770714Y-112167438D02*
X141865952Y-112119819D01*
X141865952Y-112119819D02*
X142104047Y-112119819D01*
X142104047Y-112119819D02*
X142199285Y-112167438D01*
X142199285Y-112167438D02*
X142246904Y-112215057D01*
X142246904Y-112215057D02*
X142294523Y-112310295D01*
X142294523Y-112310295D02*
X142294523Y-112405533D01*
X142294523Y-112405533D02*
X142246904Y-112548390D01*
X142246904Y-112548390D02*
X141675476Y-113119819D01*
X141675476Y-113119819D02*
X142294523Y-113119819D01*
X198310595Y-99722200D02*
X198453452Y-99769819D01*
X198453452Y-99769819D02*
X198691547Y-99769819D01*
X198691547Y-99769819D02*
X198786785Y-99722200D01*
X198786785Y-99722200D02*
X198834404Y-99674580D01*
X198834404Y-99674580D02*
X198882023Y-99579342D01*
X198882023Y-99579342D02*
X198882023Y-99484104D01*
X198882023Y-99484104D02*
X198834404Y-99388866D01*
X198834404Y-99388866D02*
X198786785Y-99341247D01*
X198786785Y-99341247D02*
X198691547Y-99293628D01*
X198691547Y-99293628D02*
X198501071Y-99246009D01*
X198501071Y-99246009D02*
X198405833Y-99198390D01*
X198405833Y-99198390D02*
X198358214Y-99150771D01*
X198358214Y-99150771D02*
X198310595Y-99055533D01*
X198310595Y-99055533D02*
X198310595Y-98960295D01*
X198310595Y-98960295D02*
X198358214Y-98865057D01*
X198358214Y-98865057D02*
X198405833Y-98817438D01*
X198405833Y-98817438D02*
X198501071Y-98769819D01*
X198501071Y-98769819D02*
X198739166Y-98769819D01*
X198739166Y-98769819D02*
X198882023Y-98817438D01*
X199453452Y-99198390D02*
X199358214Y-99150771D01*
X199358214Y-99150771D02*
X199310595Y-99103152D01*
X199310595Y-99103152D02*
X199262976Y-99007914D01*
X199262976Y-99007914D02*
X199262976Y-98960295D01*
X199262976Y-98960295D02*
X199310595Y-98865057D01*
X199310595Y-98865057D02*
X199358214Y-98817438D01*
X199358214Y-98817438D02*
X199453452Y-98769819D01*
X199453452Y-98769819D02*
X199643928Y-98769819D01*
X199643928Y-98769819D02*
X199739166Y-98817438D01*
X199739166Y-98817438D02*
X199786785Y-98865057D01*
X199786785Y-98865057D02*
X199834404Y-98960295D01*
X199834404Y-98960295D02*
X199834404Y-99007914D01*
X199834404Y-99007914D02*
X199786785Y-99103152D01*
X199786785Y-99103152D02*
X199739166Y-99150771D01*
X199739166Y-99150771D02*
X199643928Y-99198390D01*
X199643928Y-99198390D02*
X199453452Y-99198390D01*
X199453452Y-99198390D02*
X199358214Y-99246009D01*
X199358214Y-99246009D02*
X199310595Y-99293628D01*
X199310595Y-99293628D02*
X199262976Y-99388866D01*
X199262976Y-99388866D02*
X199262976Y-99579342D01*
X199262976Y-99579342D02*
X199310595Y-99674580D01*
X199310595Y-99674580D02*
X199358214Y-99722200D01*
X199358214Y-99722200D02*
X199453452Y-99769819D01*
X199453452Y-99769819D02*
X199643928Y-99769819D01*
X199643928Y-99769819D02*
X199739166Y-99722200D01*
X199739166Y-99722200D02*
X199786785Y-99674580D01*
X199786785Y-99674580D02*
X199834404Y-99579342D01*
X199834404Y-99579342D02*
X199834404Y-99388866D01*
X199834404Y-99388866D02*
X199786785Y-99293628D01*
X199786785Y-99293628D02*
X199739166Y-99246009D01*
X199739166Y-99246009D02*
X199643928Y-99198390D01*
X179260595Y-80672200D02*
X179403452Y-80719819D01*
X179403452Y-80719819D02*
X179641547Y-80719819D01*
X179641547Y-80719819D02*
X179736785Y-80672200D01*
X179736785Y-80672200D02*
X179784404Y-80624580D01*
X179784404Y-80624580D02*
X179832023Y-80529342D01*
X179832023Y-80529342D02*
X179832023Y-80434104D01*
X179832023Y-80434104D02*
X179784404Y-80338866D01*
X179784404Y-80338866D02*
X179736785Y-80291247D01*
X179736785Y-80291247D02*
X179641547Y-80243628D01*
X179641547Y-80243628D02*
X179451071Y-80196009D01*
X179451071Y-80196009D02*
X179355833Y-80148390D01*
X179355833Y-80148390D02*
X179308214Y-80100771D01*
X179308214Y-80100771D02*
X179260595Y-80005533D01*
X179260595Y-80005533D02*
X179260595Y-79910295D01*
X179260595Y-79910295D02*
X179308214Y-79815057D01*
X179308214Y-79815057D02*
X179355833Y-79767438D01*
X179355833Y-79767438D02*
X179451071Y-79719819D01*
X179451071Y-79719819D02*
X179689166Y-79719819D01*
X179689166Y-79719819D02*
X179832023Y-79767438D01*
X180689166Y-80053152D02*
X180689166Y-80719819D01*
X180451071Y-79672200D02*
X180212976Y-80386485D01*
X180212976Y-80386485D02*
X180832023Y-80386485D01*
X181092200Y-37048332D02*
X181139819Y-36905475D01*
X181139819Y-36905475D02*
X181139819Y-36667380D01*
X181139819Y-36667380D02*
X181092200Y-36572142D01*
X181092200Y-36572142D02*
X181044580Y-36524523D01*
X181044580Y-36524523D02*
X180949342Y-36476904D01*
X180949342Y-36476904D02*
X180854104Y-36476904D01*
X180854104Y-36476904D02*
X180758866Y-36524523D01*
X180758866Y-36524523D02*
X180711247Y-36572142D01*
X180711247Y-36572142D02*
X180663628Y-36667380D01*
X180663628Y-36667380D02*
X180616009Y-36857856D01*
X180616009Y-36857856D02*
X180568390Y-36953094D01*
X180568390Y-36953094D02*
X180520771Y-37000713D01*
X180520771Y-37000713D02*
X180425533Y-37048332D01*
X180425533Y-37048332D02*
X180330295Y-37048332D01*
X180330295Y-37048332D02*
X180235057Y-37000713D01*
X180235057Y-37000713D02*
X180187438Y-36953094D01*
X180187438Y-36953094D02*
X180139819Y-36857856D01*
X180139819Y-36857856D02*
X180139819Y-36619761D01*
X180139819Y-36619761D02*
X180187438Y-36476904D01*
X180139819Y-36143570D02*
X181139819Y-35905475D01*
X181139819Y-35905475D02*
X180425533Y-35714999D01*
X180425533Y-35714999D02*
X181139819Y-35524523D01*
X181139819Y-35524523D02*
X180139819Y-35286428D01*
X181139819Y-34381666D02*
X181139819Y-34953094D01*
X181139819Y-34667380D02*
X180139819Y-34667380D01*
X180139819Y-34667380D02*
X180282676Y-34762618D01*
X180282676Y-34762618D02*
X180377914Y-34857856D01*
X180377914Y-34857856D02*
X180425533Y-34953094D01*
X217360595Y-80672200D02*
X217503452Y-80719819D01*
X217503452Y-80719819D02*
X217741547Y-80719819D01*
X217741547Y-80719819D02*
X217836785Y-80672200D01*
X217836785Y-80672200D02*
X217884404Y-80624580D01*
X217884404Y-80624580D02*
X217932023Y-80529342D01*
X217932023Y-80529342D02*
X217932023Y-80434104D01*
X217932023Y-80434104D02*
X217884404Y-80338866D01*
X217884404Y-80338866D02*
X217836785Y-80291247D01*
X217836785Y-80291247D02*
X217741547Y-80243628D01*
X217741547Y-80243628D02*
X217551071Y-80196009D01*
X217551071Y-80196009D02*
X217455833Y-80148390D01*
X217455833Y-80148390D02*
X217408214Y-80100771D01*
X217408214Y-80100771D02*
X217360595Y-80005533D01*
X217360595Y-80005533D02*
X217360595Y-79910295D01*
X217360595Y-79910295D02*
X217408214Y-79815057D01*
X217408214Y-79815057D02*
X217455833Y-79767438D01*
X217455833Y-79767438D02*
X217551071Y-79719819D01*
X217551071Y-79719819D02*
X217789166Y-79719819D01*
X217789166Y-79719819D02*
X217932023Y-79767438D01*
X218789166Y-79719819D02*
X218598690Y-79719819D01*
X218598690Y-79719819D02*
X218503452Y-79767438D01*
X218503452Y-79767438D02*
X218455833Y-79815057D01*
X218455833Y-79815057D02*
X218360595Y-79957914D01*
X218360595Y-79957914D02*
X218312976Y-80148390D01*
X218312976Y-80148390D02*
X218312976Y-80529342D01*
X218312976Y-80529342D02*
X218360595Y-80624580D01*
X218360595Y-80624580D02*
X218408214Y-80672200D01*
X218408214Y-80672200D02*
X218503452Y-80719819D01*
X218503452Y-80719819D02*
X218693928Y-80719819D01*
X218693928Y-80719819D02*
X218789166Y-80672200D01*
X218789166Y-80672200D02*
X218836785Y-80624580D01*
X218836785Y-80624580D02*
X218884404Y-80529342D01*
X218884404Y-80529342D02*
X218884404Y-80291247D01*
X218884404Y-80291247D02*
X218836785Y-80196009D01*
X218836785Y-80196009D02*
X218789166Y-80148390D01*
X218789166Y-80148390D02*
X218693928Y-80100771D01*
X218693928Y-80100771D02*
X218503452Y-80100771D01*
X218503452Y-80100771D02*
X218408214Y-80148390D01*
X218408214Y-80148390D02*
X218360595Y-80196009D01*
X218360595Y-80196009D02*
X218312976Y-80291247D01*
X229723095Y-113119819D02*
X229723095Y-112119819D01*
X229723095Y-112596009D02*
X230294523Y-112596009D01*
X230294523Y-113119819D02*
X230294523Y-112119819D01*
X231199285Y-112453152D02*
X231199285Y-113119819D01*
X230961190Y-112072200D02*
X230723095Y-112786485D01*
X230723095Y-112786485D02*
X231342142Y-112786485D01*
X179260595Y-61622200D02*
X179403452Y-61669819D01*
X179403452Y-61669819D02*
X179641547Y-61669819D01*
X179641547Y-61669819D02*
X179736785Y-61622200D01*
X179736785Y-61622200D02*
X179784404Y-61574580D01*
X179784404Y-61574580D02*
X179832023Y-61479342D01*
X179832023Y-61479342D02*
X179832023Y-61384104D01*
X179832023Y-61384104D02*
X179784404Y-61288866D01*
X179784404Y-61288866D02*
X179736785Y-61241247D01*
X179736785Y-61241247D02*
X179641547Y-61193628D01*
X179641547Y-61193628D02*
X179451071Y-61146009D01*
X179451071Y-61146009D02*
X179355833Y-61098390D01*
X179355833Y-61098390D02*
X179308214Y-61050771D01*
X179308214Y-61050771D02*
X179260595Y-60955533D01*
X179260595Y-60955533D02*
X179260595Y-60860295D01*
X179260595Y-60860295D02*
X179308214Y-60765057D01*
X179308214Y-60765057D02*
X179355833Y-60717438D01*
X179355833Y-60717438D02*
X179451071Y-60669819D01*
X179451071Y-60669819D02*
X179689166Y-60669819D01*
X179689166Y-60669819D02*
X179832023Y-60717438D01*
X180784404Y-61669819D02*
X180212976Y-61669819D01*
X180498690Y-61669819D02*
X180498690Y-60669819D01*
X180498690Y-60669819D02*
X180403452Y-60812676D01*
X180403452Y-60812676D02*
X180308214Y-60907914D01*
X180308214Y-60907914D02*
X180212976Y-60955533D01*
X198310595Y-61622200D02*
X198453452Y-61669819D01*
X198453452Y-61669819D02*
X198691547Y-61669819D01*
X198691547Y-61669819D02*
X198786785Y-61622200D01*
X198786785Y-61622200D02*
X198834404Y-61574580D01*
X198834404Y-61574580D02*
X198882023Y-61479342D01*
X198882023Y-61479342D02*
X198882023Y-61384104D01*
X198882023Y-61384104D02*
X198834404Y-61288866D01*
X198834404Y-61288866D02*
X198786785Y-61241247D01*
X198786785Y-61241247D02*
X198691547Y-61193628D01*
X198691547Y-61193628D02*
X198501071Y-61146009D01*
X198501071Y-61146009D02*
X198405833Y-61098390D01*
X198405833Y-61098390D02*
X198358214Y-61050771D01*
X198358214Y-61050771D02*
X198310595Y-60955533D01*
X198310595Y-60955533D02*
X198310595Y-60860295D01*
X198310595Y-60860295D02*
X198358214Y-60765057D01*
X198358214Y-60765057D02*
X198405833Y-60717438D01*
X198405833Y-60717438D02*
X198501071Y-60669819D01*
X198501071Y-60669819D02*
X198739166Y-60669819D01*
X198739166Y-60669819D02*
X198882023Y-60717438D01*
X199262976Y-60765057D02*
X199310595Y-60717438D01*
X199310595Y-60717438D02*
X199405833Y-60669819D01*
X199405833Y-60669819D02*
X199643928Y-60669819D01*
X199643928Y-60669819D02*
X199739166Y-60717438D01*
X199739166Y-60717438D02*
X199786785Y-60765057D01*
X199786785Y-60765057D02*
X199834404Y-60860295D01*
X199834404Y-60860295D02*
X199834404Y-60955533D01*
X199834404Y-60955533D02*
X199786785Y-61098390D01*
X199786785Y-61098390D02*
X199215357Y-61669819D01*
X199215357Y-61669819D02*
X199834404Y-61669819D01*
X217360595Y-99722200D02*
X217503452Y-99769819D01*
X217503452Y-99769819D02*
X217741547Y-99769819D01*
X217741547Y-99769819D02*
X217836785Y-99722200D01*
X217836785Y-99722200D02*
X217884404Y-99674580D01*
X217884404Y-99674580D02*
X217932023Y-99579342D01*
X217932023Y-99579342D02*
X217932023Y-99484104D01*
X217932023Y-99484104D02*
X217884404Y-99388866D01*
X217884404Y-99388866D02*
X217836785Y-99341247D01*
X217836785Y-99341247D02*
X217741547Y-99293628D01*
X217741547Y-99293628D02*
X217551071Y-99246009D01*
X217551071Y-99246009D02*
X217455833Y-99198390D01*
X217455833Y-99198390D02*
X217408214Y-99150771D01*
X217408214Y-99150771D02*
X217360595Y-99055533D01*
X217360595Y-99055533D02*
X217360595Y-98960295D01*
X217360595Y-98960295D02*
X217408214Y-98865057D01*
X217408214Y-98865057D02*
X217455833Y-98817438D01*
X217455833Y-98817438D02*
X217551071Y-98769819D01*
X217551071Y-98769819D02*
X217789166Y-98769819D01*
X217789166Y-98769819D02*
X217932023Y-98817438D01*
X218408214Y-99769819D02*
X218598690Y-99769819D01*
X218598690Y-99769819D02*
X218693928Y-99722200D01*
X218693928Y-99722200D02*
X218741547Y-99674580D01*
X218741547Y-99674580D02*
X218836785Y-99531723D01*
X218836785Y-99531723D02*
X218884404Y-99341247D01*
X218884404Y-99341247D02*
X218884404Y-98960295D01*
X218884404Y-98960295D02*
X218836785Y-98865057D01*
X218836785Y-98865057D02*
X218789166Y-98817438D01*
X218789166Y-98817438D02*
X218693928Y-98769819D01*
X218693928Y-98769819D02*
X218503452Y-98769819D01*
X218503452Y-98769819D02*
X218408214Y-98817438D01*
X218408214Y-98817438D02*
X218360595Y-98865057D01*
X218360595Y-98865057D02*
X218312976Y-98960295D01*
X218312976Y-98960295D02*
X218312976Y-99198390D01*
X218312976Y-99198390D02*
X218360595Y-99293628D01*
X218360595Y-99293628D02*
X218408214Y-99341247D01*
X218408214Y-99341247D02*
X218503452Y-99388866D01*
X218503452Y-99388866D02*
X218693928Y-99388866D01*
X218693928Y-99388866D02*
X218789166Y-99341247D01*
X218789166Y-99341247D02*
X218836785Y-99293628D01*
X218836785Y-99293628D02*
X218884404Y-99198390D01*
X230492200Y-37048332D02*
X230539819Y-36905475D01*
X230539819Y-36905475D02*
X230539819Y-36667380D01*
X230539819Y-36667380D02*
X230492200Y-36572142D01*
X230492200Y-36572142D02*
X230444580Y-36524523D01*
X230444580Y-36524523D02*
X230349342Y-36476904D01*
X230349342Y-36476904D02*
X230254104Y-36476904D01*
X230254104Y-36476904D02*
X230158866Y-36524523D01*
X230158866Y-36524523D02*
X230111247Y-36572142D01*
X230111247Y-36572142D02*
X230063628Y-36667380D01*
X230063628Y-36667380D02*
X230016009Y-36857856D01*
X230016009Y-36857856D02*
X229968390Y-36953094D01*
X229968390Y-36953094D02*
X229920771Y-37000713D01*
X229920771Y-37000713D02*
X229825533Y-37048332D01*
X229825533Y-37048332D02*
X229730295Y-37048332D01*
X229730295Y-37048332D02*
X229635057Y-37000713D01*
X229635057Y-37000713D02*
X229587438Y-36953094D01*
X229587438Y-36953094D02*
X229539819Y-36857856D01*
X229539819Y-36857856D02*
X229539819Y-36619761D01*
X229539819Y-36619761D02*
X229587438Y-36476904D01*
X229539819Y-36143570D02*
X230539819Y-35905475D01*
X230539819Y-35905475D02*
X229825533Y-35714999D01*
X229825533Y-35714999D02*
X230539819Y-35524523D01*
X230539819Y-35524523D02*
X229539819Y-35286428D01*
X229635057Y-34953094D02*
X229587438Y-34905475D01*
X229587438Y-34905475D02*
X229539819Y-34810237D01*
X229539819Y-34810237D02*
X229539819Y-34572142D01*
X229539819Y-34572142D02*
X229587438Y-34476904D01*
X229587438Y-34476904D02*
X229635057Y-34429285D01*
X229635057Y-34429285D02*
X229730295Y-34381666D01*
X229730295Y-34381666D02*
X229825533Y-34381666D01*
X229825533Y-34381666D02*
X229968390Y-34429285D01*
X229968390Y-34429285D02*
X230539819Y-35000713D01*
X230539819Y-35000713D02*
X230539819Y-34381666D01*
X141098095Y-77119819D02*
X141098095Y-76119819D01*
X141098095Y-76596009D02*
X141669523Y-76596009D01*
X141669523Y-77119819D02*
X141669523Y-76119819D01*
X142669523Y-77119819D02*
X142098095Y-77119819D01*
X142383809Y-77119819D02*
X142383809Y-76119819D01*
X142383809Y-76119819D02*
X142288571Y-76262676D01*
X142288571Y-76262676D02*
X142193333Y-76357914D01*
X142193333Y-76357914D02*
X142098095Y-76405533D01*
%TO.C,U2*%
X139985000Y-22665000D02*
X139985000Y-73665000D01*
X139985000Y-22665000D02*
X160985000Y-22665000D01*
X139985000Y-25332000D02*
X142992000Y-25332000D01*
X142992000Y-25332000D02*
X142992000Y-22665000D01*
X160985000Y-22665000D02*
X160985000Y-73665000D01*
X160985000Y-73665000D02*
X139985000Y-73665000D01*
D13*
%TO.C,S3*%
X211022500Y-62115000D02*
X211022500Y-76315000D01*
X211022500Y-76315000D02*
X225222500Y-76315000D01*
X225222500Y-62115000D02*
X211022500Y-62115000D01*
X225222500Y-76315000D02*
X225222500Y-62115000D01*
%TO.C,S7*%
X172922500Y-100215000D02*
X172922500Y-114415000D01*
X172922500Y-114415000D02*
X187122500Y-114415000D01*
X187122500Y-100215000D02*
X172922500Y-100215000D01*
X187122500Y-114415000D02*
X187122500Y-100215000D01*
%TO.C,S5*%
X191972500Y-81165000D02*
X191972500Y-95365000D01*
X191972500Y-95365000D02*
X206172500Y-95365000D01*
X206172500Y-81165000D02*
X191972500Y-81165000D01*
X206172500Y-95365000D02*
X206172500Y-81165000D01*
%TO.C,S8*%
X191972500Y-100215000D02*
X191972500Y-114415000D01*
X191972500Y-114415000D02*
X206172500Y-114415000D01*
X206172500Y-100215000D02*
X191972500Y-100215000D01*
X206172500Y-114415000D02*
X206172500Y-100215000D01*
%TO.C,S4*%
X172922500Y-81165000D02*
X172922500Y-95365000D01*
X172922500Y-95365000D02*
X187122500Y-95365000D01*
X187122500Y-81165000D02*
X172922500Y-81165000D01*
X187122500Y-95365000D02*
X187122500Y-81165000D01*
%TO.C,SW1*%
X167585000Y-38415000D02*
X167585000Y-34315000D01*
X167585000Y-46515000D02*
X167585000Y-42415000D01*
X169985000Y-46515000D02*
X167585000Y-46515000D01*
X173485000Y-39915000D02*
X173485000Y-40915000D01*
X173985000Y-40415000D02*
X172985000Y-40415000D01*
X174785000Y-46515000D02*
X172185000Y-46515000D01*
X177285000Y-32915000D02*
X177585000Y-32615000D01*
X177585000Y-32615000D02*
X177585000Y-33215000D01*
X177585000Y-33215000D02*
X177285000Y-32915000D01*
X179385000Y-34315000D02*
X167585000Y-34315000D01*
X179385000Y-38415000D02*
X179385000Y-34315000D01*
X179385000Y-42415000D02*
X179385000Y-46515000D01*
X179385000Y-46515000D02*
X176985000Y-46515000D01*
X176485000Y-40415000D02*
G75*
G02*
X170485000Y-40415000I-3000000J0D01*
G01*
X170485000Y-40415000D02*
G75*
G02*
X176485000Y-40415000I3000000J0D01*
G01*
%TO.C,S6*%
X211022500Y-81165000D02*
X211022500Y-95365000D01*
X211022500Y-95365000D02*
X225222500Y-95365000D01*
X225222500Y-81165000D02*
X211022500Y-81165000D01*
X225222500Y-95365000D02*
X225222500Y-81165000D01*
D14*
%TO.C,D10*%
X221425000Y-52265000D02*
X222025000Y-52665000D01*
X221425000Y-52665000D02*
X220925000Y-52665000D01*
X221425000Y-53065000D02*
X221425000Y-52265000D01*
X222025000Y-52665000D02*
X221425000Y-53065000D01*
X222025000Y-53215000D02*
X222025000Y-52115000D01*
X222425000Y-52665000D02*
X222025000Y-52665000D01*
D13*
%TO.C,S1*%
X172922500Y-62115000D02*
X172922500Y-76315000D01*
X172922500Y-76315000D02*
X187122500Y-76315000D01*
X187122500Y-62115000D02*
X172922500Y-62115000D01*
X187122500Y-76315000D02*
X187122500Y-62115000D01*
%TO.C,S2*%
X191972500Y-62115000D02*
X191972500Y-76315000D01*
X191972500Y-76315000D02*
X206172500Y-76315000D01*
X206172500Y-62115000D02*
X191972500Y-62115000D01*
X206172500Y-76315000D02*
X206172500Y-62115000D01*
%TO.C,S9*%
X211022500Y-100215000D02*
X211022500Y-114415000D01*
X211022500Y-114415000D02*
X225222500Y-114415000D01*
X225222500Y-100215000D02*
X211022500Y-100215000D01*
X225222500Y-114415000D02*
X225222500Y-100215000D01*
D14*
%TO.C,D11*%
X173235000Y-52265000D02*
X173835000Y-52665000D01*
X173235000Y-52665000D02*
X172735000Y-52665000D01*
X173235000Y-53065000D02*
X173235000Y-52265000D01*
X173835000Y-52665000D02*
X173235000Y-53065000D01*
X173835000Y-53215000D02*
X173835000Y-52115000D01*
X174235000Y-52665000D02*
X173835000Y-52665000D01*
D13*
%TO.C,SW2*%
X216985000Y-38415000D02*
X216985000Y-34315000D01*
X216985000Y-46515000D02*
X216985000Y-42415000D01*
X219385000Y-46515000D02*
X216985000Y-46515000D01*
X222885000Y-39915000D02*
X222885000Y-40915000D01*
X223385000Y-40415000D02*
X222385000Y-40415000D01*
X224185000Y-46515000D02*
X221585000Y-46515000D01*
X226685000Y-32915000D02*
X226985000Y-32615000D01*
X226985000Y-32615000D02*
X226985000Y-33215000D01*
X226985000Y-33215000D02*
X226685000Y-32915000D01*
X228785000Y-34315000D02*
X216985000Y-34315000D01*
X228785000Y-38415000D02*
X228785000Y-34315000D01*
X228785000Y-42415000D02*
X228785000Y-46515000D01*
X228785000Y-46515000D02*
X226385000Y-46515000D01*
X225885000Y-40415000D02*
G75*
G02*
X219885000Y-40415000I-3000000J0D01*
G01*
X219885000Y-40415000D02*
G75*
G02*
X225885000Y-40415000I3000000J0D01*
G01*
%TD*%
M02*
