%TF.GenerationSoftware,KiCad,Pcbnew,8.0.6*%
%TF.CreationDate,2025-04-30T12:18:25-07:00*%
%TF.ProjectId,Media_Macro_Controller,4d656469-615f-44d6-9163-726f5f436f6e,rev?*%
%TF.SameCoordinates,Original*%
%TF.FileFunction,Legend,Bot*%
%TF.FilePolarity,Positive*%
%FSLAX46Y46*%
G04 Gerber Fmt 4.6, Leading zero omitted, Abs format (unit mm)*
G04 Created by KiCad (PCBNEW 8.0.6) date 2025-04-30 12:18:25*
%MOMM*%
%LPD*%
G01*
G04 APERTURE LIST*
%ADD10C,0.150000*%
%ADD11C,0.100000*%
G04 APERTURE END LIST*
D10*
X145016428Y-33795390D02*
X145092618Y-33757295D01*
X145092618Y-33757295D02*
X145206904Y-33757295D01*
X145206904Y-33757295D02*
X145321190Y-33795390D01*
X145321190Y-33795390D02*
X145397380Y-33871580D01*
X145397380Y-33871580D02*
X145435475Y-33947771D01*
X145435475Y-33947771D02*
X145473571Y-34100152D01*
X145473571Y-34100152D02*
X145473571Y-34214438D01*
X145473571Y-34214438D02*
X145435475Y-34366819D01*
X145435475Y-34366819D02*
X145397380Y-34443009D01*
X145397380Y-34443009D02*
X145321190Y-34519200D01*
X145321190Y-34519200D02*
X145206904Y-34557295D01*
X145206904Y-34557295D02*
X145130713Y-34557295D01*
X145130713Y-34557295D02*
X145016428Y-34519200D01*
X145016428Y-34519200D02*
X144978332Y-34481104D01*
X144978332Y-34481104D02*
X144978332Y-34214438D01*
X144978332Y-34214438D02*
X145130713Y-34214438D01*
X144635475Y-34557295D02*
X144635475Y-33757295D01*
X144635475Y-33757295D02*
X144330713Y-33757295D01*
X144330713Y-33757295D02*
X144254523Y-33795390D01*
X144254523Y-33795390D02*
X144216428Y-33833485D01*
X144216428Y-33833485D02*
X144178332Y-33909676D01*
X144178332Y-33909676D02*
X144178332Y-34023961D01*
X144178332Y-34023961D02*
X144216428Y-34100152D01*
X144216428Y-34100152D02*
X144254523Y-34138247D01*
X144254523Y-34138247D02*
X144330713Y-34176342D01*
X144330713Y-34176342D02*
X144635475Y-34176342D01*
X143911666Y-33757295D02*
X143416428Y-33757295D01*
X143416428Y-33757295D02*
X143683094Y-34062057D01*
X143683094Y-34062057D02*
X143568809Y-34062057D01*
X143568809Y-34062057D02*
X143492618Y-34100152D01*
X143492618Y-34100152D02*
X143454523Y-34138247D01*
X143454523Y-34138247D02*
X143416428Y-34214438D01*
X143416428Y-34214438D02*
X143416428Y-34404914D01*
X143416428Y-34404914D02*
X143454523Y-34481104D01*
X143454523Y-34481104D02*
X143492618Y-34519200D01*
X143492618Y-34519200D02*
X143568809Y-34557295D01*
X143568809Y-34557295D02*
X143797380Y-34557295D01*
X143797380Y-34557295D02*
X143873571Y-34519200D01*
X143873571Y-34519200D02*
X143911666Y-34481104D01*
X145747381Y-59195390D02*
X145823571Y-59157295D01*
X145823571Y-59157295D02*
X145937857Y-59157295D01*
X145937857Y-59157295D02*
X146052143Y-59195390D01*
X146052143Y-59195390D02*
X146128333Y-59271580D01*
X146128333Y-59271580D02*
X146166428Y-59347771D01*
X146166428Y-59347771D02*
X146204524Y-59500152D01*
X146204524Y-59500152D02*
X146204524Y-59614438D01*
X146204524Y-59614438D02*
X146166428Y-59766819D01*
X146166428Y-59766819D02*
X146128333Y-59843009D01*
X146128333Y-59843009D02*
X146052143Y-59919200D01*
X146052143Y-59919200D02*
X145937857Y-59957295D01*
X145937857Y-59957295D02*
X145861666Y-59957295D01*
X145861666Y-59957295D02*
X145747381Y-59919200D01*
X145747381Y-59919200D02*
X145709285Y-59881104D01*
X145709285Y-59881104D02*
X145709285Y-59614438D01*
X145709285Y-59614438D02*
X145861666Y-59614438D01*
X145366428Y-59957295D02*
X145366428Y-59157295D01*
X145366428Y-59157295D02*
X145061666Y-59157295D01*
X145061666Y-59157295D02*
X144985476Y-59195390D01*
X144985476Y-59195390D02*
X144947381Y-59233485D01*
X144947381Y-59233485D02*
X144909285Y-59309676D01*
X144909285Y-59309676D02*
X144909285Y-59423961D01*
X144909285Y-59423961D02*
X144947381Y-59500152D01*
X144947381Y-59500152D02*
X144985476Y-59538247D01*
X144985476Y-59538247D02*
X145061666Y-59576342D01*
X145061666Y-59576342D02*
X145366428Y-59576342D01*
X144147381Y-59957295D02*
X144604524Y-59957295D01*
X144375952Y-59957295D02*
X144375952Y-59157295D01*
X144375952Y-59157295D02*
X144452143Y-59271580D01*
X144452143Y-59271580D02*
X144528333Y-59347771D01*
X144528333Y-59347771D02*
X144604524Y-59385866D01*
X143385476Y-59957295D02*
X143842619Y-59957295D01*
X143614047Y-59957295D02*
X143614047Y-59157295D01*
X143614047Y-59157295D02*
X143690238Y-59271580D01*
X143690238Y-59271580D02*
X143766428Y-59347771D01*
X143766428Y-59347771D02*
X143842619Y-59385866D01*
X145747381Y-56655390D02*
X145823571Y-56617295D01*
X145823571Y-56617295D02*
X145937857Y-56617295D01*
X145937857Y-56617295D02*
X146052143Y-56655390D01*
X146052143Y-56655390D02*
X146128333Y-56731580D01*
X146128333Y-56731580D02*
X146166428Y-56807771D01*
X146166428Y-56807771D02*
X146204524Y-56960152D01*
X146204524Y-56960152D02*
X146204524Y-57074438D01*
X146204524Y-57074438D02*
X146166428Y-57226819D01*
X146166428Y-57226819D02*
X146128333Y-57303009D01*
X146128333Y-57303009D02*
X146052143Y-57379200D01*
X146052143Y-57379200D02*
X145937857Y-57417295D01*
X145937857Y-57417295D02*
X145861666Y-57417295D01*
X145861666Y-57417295D02*
X145747381Y-57379200D01*
X145747381Y-57379200D02*
X145709285Y-57341104D01*
X145709285Y-57341104D02*
X145709285Y-57074438D01*
X145709285Y-57074438D02*
X145861666Y-57074438D01*
X145366428Y-57417295D02*
X145366428Y-56617295D01*
X145366428Y-56617295D02*
X145061666Y-56617295D01*
X145061666Y-56617295D02*
X144985476Y-56655390D01*
X144985476Y-56655390D02*
X144947381Y-56693485D01*
X144947381Y-56693485D02*
X144909285Y-56769676D01*
X144909285Y-56769676D02*
X144909285Y-56883961D01*
X144909285Y-56883961D02*
X144947381Y-56960152D01*
X144947381Y-56960152D02*
X144985476Y-56998247D01*
X144985476Y-56998247D02*
X145061666Y-57036342D01*
X145061666Y-57036342D02*
X145366428Y-57036342D01*
X144147381Y-57417295D02*
X144604524Y-57417295D01*
X144375952Y-57417295D02*
X144375952Y-56617295D01*
X144375952Y-56617295D02*
X144452143Y-56731580D01*
X144452143Y-56731580D02*
X144528333Y-56807771D01*
X144528333Y-56807771D02*
X144604524Y-56845866D01*
X143652142Y-56617295D02*
X143575952Y-56617295D01*
X143575952Y-56617295D02*
X143499761Y-56655390D01*
X143499761Y-56655390D02*
X143461666Y-56693485D01*
X143461666Y-56693485D02*
X143423571Y-56769676D01*
X143423571Y-56769676D02*
X143385476Y-56922057D01*
X143385476Y-56922057D02*
X143385476Y-57112533D01*
X143385476Y-57112533D02*
X143423571Y-57264914D01*
X143423571Y-57264914D02*
X143461666Y-57341104D01*
X143461666Y-57341104D02*
X143499761Y-57379200D01*
X143499761Y-57379200D02*
X143575952Y-57417295D01*
X143575952Y-57417295D02*
X143652142Y-57417295D01*
X143652142Y-57417295D02*
X143728333Y-57379200D01*
X143728333Y-57379200D02*
X143766428Y-57341104D01*
X143766428Y-57341104D02*
X143804523Y-57264914D01*
X143804523Y-57264914D02*
X143842619Y-57112533D01*
X143842619Y-57112533D02*
X143842619Y-56922057D01*
X143842619Y-56922057D02*
X143804523Y-56769676D01*
X143804523Y-56769676D02*
X143766428Y-56693485D01*
X143766428Y-56693485D02*
X143728333Y-56655390D01*
X143728333Y-56655390D02*
X143652142Y-56617295D01*
X157515476Y-33757295D02*
X157020238Y-33757295D01*
X157020238Y-33757295D02*
X157286904Y-34062057D01*
X157286904Y-34062057D02*
X157172619Y-34062057D01*
X157172619Y-34062057D02*
X157096428Y-34100152D01*
X157096428Y-34100152D02*
X157058333Y-34138247D01*
X157058333Y-34138247D02*
X157020238Y-34214438D01*
X157020238Y-34214438D02*
X157020238Y-34404914D01*
X157020238Y-34404914D02*
X157058333Y-34481104D01*
X157058333Y-34481104D02*
X157096428Y-34519200D01*
X157096428Y-34519200D02*
X157172619Y-34557295D01*
X157172619Y-34557295D02*
X157401190Y-34557295D01*
X157401190Y-34557295D02*
X157477381Y-34519200D01*
X157477381Y-34519200D02*
X157515476Y-34481104D01*
X156791666Y-33757295D02*
X156524999Y-34557295D01*
X156524999Y-34557295D02*
X156258333Y-33757295D01*
X156067857Y-33757295D02*
X155572619Y-33757295D01*
X155572619Y-33757295D02*
X155839285Y-34062057D01*
X155839285Y-34062057D02*
X155725000Y-34062057D01*
X155725000Y-34062057D02*
X155648809Y-34100152D01*
X155648809Y-34100152D02*
X155610714Y-34138247D01*
X155610714Y-34138247D02*
X155572619Y-34214438D01*
X155572619Y-34214438D02*
X155572619Y-34404914D01*
X155572619Y-34404914D02*
X155610714Y-34481104D01*
X155610714Y-34481104D02*
X155648809Y-34519200D01*
X155648809Y-34519200D02*
X155725000Y-34557295D01*
X155725000Y-34557295D02*
X155953571Y-34557295D01*
X155953571Y-34557295D02*
X156029762Y-34519200D01*
X156029762Y-34519200D02*
X156067857Y-34481104D01*
X157517857Y-36868723D02*
X157136904Y-36868723D01*
X157594047Y-37097295D02*
X157327380Y-36297295D01*
X157327380Y-36297295D02*
X157060714Y-37097295D01*
X156794047Y-37097295D02*
X156794047Y-36297295D01*
X156794047Y-36297295D02*
X156603571Y-36297295D01*
X156603571Y-36297295D02*
X156489285Y-36335390D01*
X156489285Y-36335390D02*
X156413095Y-36411580D01*
X156413095Y-36411580D02*
X156375000Y-36487771D01*
X156375000Y-36487771D02*
X156336904Y-36640152D01*
X156336904Y-36640152D02*
X156336904Y-36754438D01*
X156336904Y-36754438D02*
X156375000Y-36906819D01*
X156375000Y-36906819D02*
X156413095Y-36983009D01*
X156413095Y-36983009D02*
X156489285Y-37059200D01*
X156489285Y-37059200D02*
X156603571Y-37097295D01*
X156603571Y-37097295D02*
X156794047Y-37097295D01*
X155536904Y-37021104D02*
X155575000Y-37059200D01*
X155575000Y-37059200D02*
X155689285Y-37097295D01*
X155689285Y-37097295D02*
X155765476Y-37097295D01*
X155765476Y-37097295D02*
X155879762Y-37059200D01*
X155879762Y-37059200D02*
X155955952Y-36983009D01*
X155955952Y-36983009D02*
X155994047Y-36906819D01*
X155994047Y-36906819D02*
X156032143Y-36754438D01*
X156032143Y-36754438D02*
X156032143Y-36640152D01*
X156032143Y-36640152D02*
X155994047Y-36487771D01*
X155994047Y-36487771D02*
X155955952Y-36411580D01*
X155955952Y-36411580D02*
X155879762Y-36335390D01*
X155879762Y-36335390D02*
X155765476Y-36297295D01*
X155765476Y-36297295D02*
X155689285Y-36297295D01*
X155689285Y-36297295D02*
X155575000Y-36335390D01*
X155575000Y-36335390D02*
X155536904Y-36373485D01*
X155384524Y-37173485D02*
X154775000Y-37173485D01*
X154698809Y-36297295D02*
X154432142Y-37097295D01*
X154432142Y-37097295D02*
X154165476Y-36297295D01*
X153441666Y-37097295D02*
X153708333Y-36716342D01*
X153898809Y-37097295D02*
X153898809Y-36297295D01*
X153898809Y-36297295D02*
X153594047Y-36297295D01*
X153594047Y-36297295D02*
X153517857Y-36335390D01*
X153517857Y-36335390D02*
X153479762Y-36373485D01*
X153479762Y-36373485D02*
X153441666Y-36449676D01*
X153441666Y-36449676D02*
X153441666Y-36563961D01*
X153441666Y-36563961D02*
X153479762Y-36640152D01*
X153479762Y-36640152D02*
X153517857Y-36678247D01*
X153517857Y-36678247D02*
X153594047Y-36716342D01*
X153594047Y-36716342D02*
X153898809Y-36716342D01*
X153098809Y-36678247D02*
X152832143Y-36678247D01*
X152717857Y-37097295D02*
X153098809Y-37097295D01*
X153098809Y-37097295D02*
X153098809Y-36297295D01*
X153098809Y-36297295D02*
X152717857Y-36297295D01*
X152108333Y-36678247D02*
X152374999Y-36678247D01*
X152374999Y-37097295D02*
X152374999Y-36297295D01*
X152374999Y-36297295D02*
X151994047Y-36297295D01*
X150085390Y-68555476D02*
X150047295Y-68479286D01*
X150047295Y-68479286D02*
X150047295Y-68365000D01*
X150047295Y-68365000D02*
X150085390Y-68250714D01*
X150085390Y-68250714D02*
X150161580Y-68174524D01*
X150161580Y-68174524D02*
X150237771Y-68136429D01*
X150237771Y-68136429D02*
X150390152Y-68098333D01*
X150390152Y-68098333D02*
X150504438Y-68098333D01*
X150504438Y-68098333D02*
X150656819Y-68136429D01*
X150656819Y-68136429D02*
X150733009Y-68174524D01*
X150733009Y-68174524D02*
X150809200Y-68250714D01*
X150809200Y-68250714D02*
X150847295Y-68365000D01*
X150847295Y-68365000D02*
X150847295Y-68441191D01*
X150847295Y-68441191D02*
X150809200Y-68555476D01*
X150809200Y-68555476D02*
X150771104Y-68593572D01*
X150771104Y-68593572D02*
X150504438Y-68593572D01*
X150504438Y-68593572D02*
X150504438Y-68441191D01*
X150847295Y-68936429D02*
X150047295Y-68936429D01*
X150047295Y-68936429D02*
X150847295Y-69393572D01*
X150847295Y-69393572D02*
X150047295Y-69393572D01*
X150847295Y-69774524D02*
X150047295Y-69774524D01*
X150047295Y-69774524D02*
X150047295Y-69965000D01*
X150047295Y-69965000D02*
X150085390Y-70079286D01*
X150085390Y-70079286D02*
X150161580Y-70155476D01*
X150161580Y-70155476D02*
X150237771Y-70193571D01*
X150237771Y-70193571D02*
X150390152Y-70231667D01*
X150390152Y-70231667D02*
X150504438Y-70231667D01*
X150504438Y-70231667D02*
X150656819Y-70193571D01*
X150656819Y-70193571D02*
X150733009Y-70155476D01*
X150733009Y-70155476D02*
X150809200Y-70079286D01*
X150809200Y-70079286D02*
X150847295Y-69965000D01*
X150847295Y-69965000D02*
X150847295Y-69774524D01*
X145016428Y-49035390D02*
X145092618Y-48997295D01*
X145092618Y-48997295D02*
X145206904Y-48997295D01*
X145206904Y-48997295D02*
X145321190Y-49035390D01*
X145321190Y-49035390D02*
X145397380Y-49111580D01*
X145397380Y-49111580D02*
X145435475Y-49187771D01*
X145435475Y-49187771D02*
X145473571Y-49340152D01*
X145473571Y-49340152D02*
X145473571Y-49454438D01*
X145473571Y-49454438D02*
X145435475Y-49606819D01*
X145435475Y-49606819D02*
X145397380Y-49683009D01*
X145397380Y-49683009D02*
X145321190Y-49759200D01*
X145321190Y-49759200D02*
X145206904Y-49797295D01*
X145206904Y-49797295D02*
X145130713Y-49797295D01*
X145130713Y-49797295D02*
X145016428Y-49759200D01*
X145016428Y-49759200D02*
X144978332Y-49721104D01*
X144978332Y-49721104D02*
X144978332Y-49454438D01*
X144978332Y-49454438D02*
X145130713Y-49454438D01*
X144635475Y-49797295D02*
X144635475Y-48997295D01*
X144635475Y-48997295D02*
X144330713Y-48997295D01*
X144330713Y-48997295D02*
X144254523Y-49035390D01*
X144254523Y-49035390D02*
X144216428Y-49073485D01*
X144216428Y-49073485D02*
X144178332Y-49149676D01*
X144178332Y-49149676D02*
X144178332Y-49263961D01*
X144178332Y-49263961D02*
X144216428Y-49340152D01*
X144216428Y-49340152D02*
X144254523Y-49378247D01*
X144254523Y-49378247D02*
X144330713Y-49416342D01*
X144330713Y-49416342D02*
X144635475Y-49416342D01*
X143721190Y-49340152D02*
X143797380Y-49302057D01*
X143797380Y-49302057D02*
X143835475Y-49263961D01*
X143835475Y-49263961D02*
X143873571Y-49187771D01*
X143873571Y-49187771D02*
X143873571Y-49149676D01*
X143873571Y-49149676D02*
X143835475Y-49073485D01*
X143835475Y-49073485D02*
X143797380Y-49035390D01*
X143797380Y-49035390D02*
X143721190Y-48997295D01*
X143721190Y-48997295D02*
X143568809Y-48997295D01*
X143568809Y-48997295D02*
X143492618Y-49035390D01*
X143492618Y-49035390D02*
X143454523Y-49073485D01*
X143454523Y-49073485D02*
X143416428Y-49149676D01*
X143416428Y-49149676D02*
X143416428Y-49187771D01*
X143416428Y-49187771D02*
X143454523Y-49263961D01*
X143454523Y-49263961D02*
X143492618Y-49302057D01*
X143492618Y-49302057D02*
X143568809Y-49340152D01*
X143568809Y-49340152D02*
X143721190Y-49340152D01*
X143721190Y-49340152D02*
X143797380Y-49378247D01*
X143797380Y-49378247D02*
X143835475Y-49416342D01*
X143835475Y-49416342D02*
X143873571Y-49492533D01*
X143873571Y-49492533D02*
X143873571Y-49644914D01*
X143873571Y-49644914D02*
X143835475Y-49721104D01*
X143835475Y-49721104D02*
X143797380Y-49759200D01*
X143797380Y-49759200D02*
X143721190Y-49797295D01*
X143721190Y-49797295D02*
X143568809Y-49797295D01*
X143568809Y-49797295D02*
X143492618Y-49759200D01*
X143492618Y-49759200D02*
X143454523Y-49721104D01*
X143454523Y-49721104D02*
X143416428Y-49644914D01*
X143416428Y-49644914D02*
X143416428Y-49492533D01*
X143416428Y-49492533D02*
X143454523Y-49416342D01*
X143454523Y-49416342D02*
X143492618Y-49378247D01*
X143492618Y-49378247D02*
X143568809Y-49340152D01*
X157646428Y-26137295D02*
X157379761Y-26937295D01*
X157379761Y-26937295D02*
X157113095Y-26137295D01*
X156884524Y-26899200D02*
X156770238Y-26937295D01*
X156770238Y-26937295D02*
X156579762Y-26937295D01*
X156579762Y-26937295D02*
X156503571Y-26899200D01*
X156503571Y-26899200D02*
X156465476Y-26861104D01*
X156465476Y-26861104D02*
X156427381Y-26784914D01*
X156427381Y-26784914D02*
X156427381Y-26708723D01*
X156427381Y-26708723D02*
X156465476Y-26632533D01*
X156465476Y-26632533D02*
X156503571Y-26594438D01*
X156503571Y-26594438D02*
X156579762Y-26556342D01*
X156579762Y-26556342D02*
X156732143Y-26518247D01*
X156732143Y-26518247D02*
X156808333Y-26480152D01*
X156808333Y-26480152D02*
X156846428Y-26442057D01*
X156846428Y-26442057D02*
X156884524Y-26365866D01*
X156884524Y-26365866D02*
X156884524Y-26289676D01*
X156884524Y-26289676D02*
X156846428Y-26213485D01*
X156846428Y-26213485D02*
X156808333Y-26175390D01*
X156808333Y-26175390D02*
X156732143Y-26137295D01*
X156732143Y-26137295D02*
X156541666Y-26137295D01*
X156541666Y-26137295D02*
X156427381Y-26175390D01*
X155932142Y-26556342D02*
X155932142Y-26937295D01*
X156198809Y-26137295D02*
X155932142Y-26556342D01*
X155932142Y-26556342D02*
X155665476Y-26137295D01*
X155436905Y-26899200D02*
X155322619Y-26937295D01*
X155322619Y-26937295D02*
X155132143Y-26937295D01*
X155132143Y-26937295D02*
X155055952Y-26899200D01*
X155055952Y-26899200D02*
X155017857Y-26861104D01*
X155017857Y-26861104D02*
X154979762Y-26784914D01*
X154979762Y-26784914D02*
X154979762Y-26708723D01*
X154979762Y-26708723D02*
X155017857Y-26632533D01*
X155017857Y-26632533D02*
X155055952Y-26594438D01*
X155055952Y-26594438D02*
X155132143Y-26556342D01*
X155132143Y-26556342D02*
X155284524Y-26518247D01*
X155284524Y-26518247D02*
X155360714Y-26480152D01*
X155360714Y-26480152D02*
X155398809Y-26442057D01*
X155398809Y-26442057D02*
X155436905Y-26365866D01*
X155436905Y-26365866D02*
X155436905Y-26289676D01*
X155436905Y-26289676D02*
X155398809Y-26213485D01*
X155398809Y-26213485D02*
X155360714Y-26175390D01*
X155360714Y-26175390D02*
X155284524Y-26137295D01*
X155284524Y-26137295D02*
X155094047Y-26137295D01*
X155094047Y-26137295D02*
X154979762Y-26175390D01*
X156984523Y-54115390D02*
X157060713Y-54077295D01*
X157060713Y-54077295D02*
X157174999Y-54077295D01*
X157174999Y-54077295D02*
X157289285Y-54115390D01*
X157289285Y-54115390D02*
X157365475Y-54191580D01*
X157365475Y-54191580D02*
X157403570Y-54267771D01*
X157403570Y-54267771D02*
X157441666Y-54420152D01*
X157441666Y-54420152D02*
X157441666Y-54534438D01*
X157441666Y-54534438D02*
X157403570Y-54686819D01*
X157403570Y-54686819D02*
X157365475Y-54763009D01*
X157365475Y-54763009D02*
X157289285Y-54839200D01*
X157289285Y-54839200D02*
X157174999Y-54877295D01*
X157174999Y-54877295D02*
X157098808Y-54877295D01*
X157098808Y-54877295D02*
X156984523Y-54839200D01*
X156984523Y-54839200D02*
X156946427Y-54801104D01*
X156946427Y-54801104D02*
X156946427Y-54534438D01*
X156946427Y-54534438D02*
X157098808Y-54534438D01*
X156603570Y-54877295D02*
X156603570Y-54077295D01*
X156603570Y-54077295D02*
X156146427Y-54877295D01*
X156146427Y-54877295D02*
X156146427Y-54077295D01*
X155765475Y-54877295D02*
X155765475Y-54077295D01*
X155765475Y-54077295D02*
X155574999Y-54077295D01*
X155574999Y-54077295D02*
X155460713Y-54115390D01*
X155460713Y-54115390D02*
X155384523Y-54191580D01*
X155384523Y-54191580D02*
X155346428Y-54267771D01*
X155346428Y-54267771D02*
X155308332Y-54420152D01*
X155308332Y-54420152D02*
X155308332Y-54534438D01*
X155308332Y-54534438D02*
X155346428Y-54686819D01*
X155346428Y-54686819D02*
X155384523Y-54763009D01*
X155384523Y-54763009D02*
X155460713Y-54839200D01*
X155460713Y-54839200D02*
X155574999Y-54877295D01*
X155574999Y-54877295D02*
X155765475Y-54877295D01*
X145054523Y-41415390D02*
X145130713Y-41377295D01*
X145130713Y-41377295D02*
X145244999Y-41377295D01*
X145244999Y-41377295D02*
X145359285Y-41415390D01*
X145359285Y-41415390D02*
X145435475Y-41491580D01*
X145435475Y-41491580D02*
X145473570Y-41567771D01*
X145473570Y-41567771D02*
X145511666Y-41720152D01*
X145511666Y-41720152D02*
X145511666Y-41834438D01*
X145511666Y-41834438D02*
X145473570Y-41986819D01*
X145473570Y-41986819D02*
X145435475Y-42063009D01*
X145435475Y-42063009D02*
X145359285Y-42139200D01*
X145359285Y-42139200D02*
X145244999Y-42177295D01*
X145244999Y-42177295D02*
X145168808Y-42177295D01*
X145168808Y-42177295D02*
X145054523Y-42139200D01*
X145054523Y-42139200D02*
X145016427Y-42101104D01*
X145016427Y-42101104D02*
X145016427Y-41834438D01*
X145016427Y-41834438D02*
X145168808Y-41834438D01*
X144673570Y-42177295D02*
X144673570Y-41377295D01*
X144673570Y-41377295D02*
X144216427Y-42177295D01*
X144216427Y-42177295D02*
X144216427Y-41377295D01*
X143835475Y-42177295D02*
X143835475Y-41377295D01*
X143835475Y-41377295D02*
X143644999Y-41377295D01*
X143644999Y-41377295D02*
X143530713Y-41415390D01*
X143530713Y-41415390D02*
X143454523Y-41491580D01*
X143454523Y-41491580D02*
X143416428Y-41567771D01*
X143416428Y-41567771D02*
X143378332Y-41720152D01*
X143378332Y-41720152D02*
X143378332Y-41834438D01*
X143378332Y-41834438D02*
X143416428Y-41986819D01*
X143416428Y-41986819D02*
X143454523Y-42063009D01*
X143454523Y-42063009D02*
X143530713Y-42139200D01*
X143530713Y-42139200D02*
X143644999Y-42177295D01*
X143644999Y-42177295D02*
X143835475Y-42177295D01*
X145016428Y-36335390D02*
X145092618Y-36297295D01*
X145092618Y-36297295D02*
X145206904Y-36297295D01*
X145206904Y-36297295D02*
X145321190Y-36335390D01*
X145321190Y-36335390D02*
X145397380Y-36411580D01*
X145397380Y-36411580D02*
X145435475Y-36487771D01*
X145435475Y-36487771D02*
X145473571Y-36640152D01*
X145473571Y-36640152D02*
X145473571Y-36754438D01*
X145473571Y-36754438D02*
X145435475Y-36906819D01*
X145435475Y-36906819D02*
X145397380Y-36983009D01*
X145397380Y-36983009D02*
X145321190Y-37059200D01*
X145321190Y-37059200D02*
X145206904Y-37097295D01*
X145206904Y-37097295D02*
X145130713Y-37097295D01*
X145130713Y-37097295D02*
X145016428Y-37059200D01*
X145016428Y-37059200D02*
X144978332Y-37021104D01*
X144978332Y-37021104D02*
X144978332Y-36754438D01*
X144978332Y-36754438D02*
X145130713Y-36754438D01*
X144635475Y-37097295D02*
X144635475Y-36297295D01*
X144635475Y-36297295D02*
X144330713Y-36297295D01*
X144330713Y-36297295D02*
X144254523Y-36335390D01*
X144254523Y-36335390D02*
X144216428Y-36373485D01*
X144216428Y-36373485D02*
X144178332Y-36449676D01*
X144178332Y-36449676D02*
X144178332Y-36563961D01*
X144178332Y-36563961D02*
X144216428Y-36640152D01*
X144216428Y-36640152D02*
X144254523Y-36678247D01*
X144254523Y-36678247D02*
X144330713Y-36716342D01*
X144330713Y-36716342D02*
X144635475Y-36716342D01*
X143492618Y-36563961D02*
X143492618Y-37097295D01*
X143683094Y-36259200D02*
X143873571Y-36830628D01*
X143873571Y-36830628D02*
X143378332Y-36830628D01*
X145016428Y-38875390D02*
X145092618Y-38837295D01*
X145092618Y-38837295D02*
X145206904Y-38837295D01*
X145206904Y-38837295D02*
X145321190Y-38875390D01*
X145321190Y-38875390D02*
X145397380Y-38951580D01*
X145397380Y-38951580D02*
X145435475Y-39027771D01*
X145435475Y-39027771D02*
X145473571Y-39180152D01*
X145473571Y-39180152D02*
X145473571Y-39294438D01*
X145473571Y-39294438D02*
X145435475Y-39446819D01*
X145435475Y-39446819D02*
X145397380Y-39523009D01*
X145397380Y-39523009D02*
X145321190Y-39599200D01*
X145321190Y-39599200D02*
X145206904Y-39637295D01*
X145206904Y-39637295D02*
X145130713Y-39637295D01*
X145130713Y-39637295D02*
X145016428Y-39599200D01*
X145016428Y-39599200D02*
X144978332Y-39561104D01*
X144978332Y-39561104D02*
X144978332Y-39294438D01*
X144978332Y-39294438D02*
X145130713Y-39294438D01*
X144635475Y-39637295D02*
X144635475Y-38837295D01*
X144635475Y-38837295D02*
X144330713Y-38837295D01*
X144330713Y-38837295D02*
X144254523Y-38875390D01*
X144254523Y-38875390D02*
X144216428Y-38913485D01*
X144216428Y-38913485D02*
X144178332Y-38989676D01*
X144178332Y-38989676D02*
X144178332Y-39103961D01*
X144178332Y-39103961D02*
X144216428Y-39180152D01*
X144216428Y-39180152D02*
X144254523Y-39218247D01*
X144254523Y-39218247D02*
X144330713Y-39256342D01*
X144330713Y-39256342D02*
X144635475Y-39256342D01*
X143454523Y-38837295D02*
X143835475Y-38837295D01*
X143835475Y-38837295D02*
X143873571Y-39218247D01*
X143873571Y-39218247D02*
X143835475Y-39180152D01*
X143835475Y-39180152D02*
X143759285Y-39142057D01*
X143759285Y-39142057D02*
X143568809Y-39142057D01*
X143568809Y-39142057D02*
X143492618Y-39180152D01*
X143492618Y-39180152D02*
X143454523Y-39218247D01*
X143454523Y-39218247D02*
X143416428Y-39294438D01*
X143416428Y-39294438D02*
X143416428Y-39484914D01*
X143416428Y-39484914D02*
X143454523Y-39561104D01*
X143454523Y-39561104D02*
X143492618Y-39599200D01*
X143492618Y-39599200D02*
X143568809Y-39637295D01*
X143568809Y-39637295D02*
X143759285Y-39637295D01*
X143759285Y-39637295D02*
X143835475Y-39599200D01*
X143835475Y-39599200D02*
X143873571Y-39561104D01*
X156977381Y-43965390D02*
X157053571Y-43927295D01*
X157053571Y-43927295D02*
X157167857Y-43927295D01*
X157167857Y-43927295D02*
X157282143Y-43965390D01*
X157282143Y-43965390D02*
X157358333Y-44041580D01*
X157358333Y-44041580D02*
X157396428Y-44117771D01*
X157396428Y-44117771D02*
X157434524Y-44270152D01*
X157434524Y-44270152D02*
X157434524Y-44384438D01*
X157434524Y-44384438D02*
X157396428Y-44536819D01*
X157396428Y-44536819D02*
X157358333Y-44613009D01*
X157358333Y-44613009D02*
X157282143Y-44689200D01*
X157282143Y-44689200D02*
X157167857Y-44727295D01*
X157167857Y-44727295D02*
X157091666Y-44727295D01*
X157091666Y-44727295D02*
X156977381Y-44689200D01*
X156977381Y-44689200D02*
X156939285Y-44651104D01*
X156939285Y-44651104D02*
X156939285Y-44384438D01*
X156939285Y-44384438D02*
X157091666Y-44384438D01*
X156596428Y-44727295D02*
X156596428Y-43927295D01*
X156596428Y-43927295D02*
X156291666Y-43927295D01*
X156291666Y-43927295D02*
X156215476Y-43965390D01*
X156215476Y-43965390D02*
X156177381Y-44003485D01*
X156177381Y-44003485D02*
X156139285Y-44079676D01*
X156139285Y-44079676D02*
X156139285Y-44193961D01*
X156139285Y-44193961D02*
X156177381Y-44270152D01*
X156177381Y-44270152D02*
X156215476Y-44308247D01*
X156215476Y-44308247D02*
X156291666Y-44346342D01*
X156291666Y-44346342D02*
X156596428Y-44346342D01*
X155834524Y-44003485D02*
X155796428Y-43965390D01*
X155796428Y-43965390D02*
X155720238Y-43927295D01*
X155720238Y-43927295D02*
X155529762Y-43927295D01*
X155529762Y-43927295D02*
X155453571Y-43965390D01*
X155453571Y-43965390D02*
X155415476Y-44003485D01*
X155415476Y-44003485D02*
X155377381Y-44079676D01*
X155377381Y-44079676D02*
X155377381Y-44155866D01*
X155377381Y-44155866D02*
X155415476Y-44270152D01*
X155415476Y-44270152D02*
X155872619Y-44727295D01*
X155872619Y-44727295D02*
X155377381Y-44727295D01*
X155110714Y-43927295D02*
X154577380Y-43927295D01*
X154577380Y-43927295D02*
X154920238Y-44727295D01*
X157434523Y-41948723D02*
X157053570Y-41948723D01*
X157510713Y-42177295D02*
X157244046Y-41377295D01*
X157244046Y-41377295D02*
X156977380Y-42177295D01*
X156291666Y-41415390D02*
X156367856Y-41377295D01*
X156367856Y-41377295D02*
X156482142Y-41377295D01*
X156482142Y-41377295D02*
X156596428Y-41415390D01*
X156596428Y-41415390D02*
X156672618Y-41491580D01*
X156672618Y-41491580D02*
X156710713Y-41567771D01*
X156710713Y-41567771D02*
X156748809Y-41720152D01*
X156748809Y-41720152D02*
X156748809Y-41834438D01*
X156748809Y-41834438D02*
X156710713Y-41986819D01*
X156710713Y-41986819D02*
X156672618Y-42063009D01*
X156672618Y-42063009D02*
X156596428Y-42139200D01*
X156596428Y-42139200D02*
X156482142Y-42177295D01*
X156482142Y-42177295D02*
X156405951Y-42177295D01*
X156405951Y-42177295D02*
X156291666Y-42139200D01*
X156291666Y-42139200D02*
X156253570Y-42101104D01*
X156253570Y-42101104D02*
X156253570Y-41834438D01*
X156253570Y-41834438D02*
X156405951Y-41834438D01*
X155910713Y-42177295D02*
X155910713Y-41377295D01*
X155910713Y-41377295D02*
X155453570Y-42177295D01*
X155453570Y-42177295D02*
X155453570Y-41377295D01*
X155072618Y-42177295D02*
X155072618Y-41377295D01*
X155072618Y-41377295D02*
X154882142Y-41377295D01*
X154882142Y-41377295D02*
X154767856Y-41415390D01*
X154767856Y-41415390D02*
X154691666Y-41491580D01*
X154691666Y-41491580D02*
X154653571Y-41567771D01*
X154653571Y-41567771D02*
X154615475Y-41720152D01*
X154615475Y-41720152D02*
X154615475Y-41834438D01*
X154615475Y-41834438D02*
X154653571Y-41986819D01*
X154653571Y-41986819D02*
X154691666Y-42063009D01*
X154691666Y-42063009D02*
X154767856Y-42139200D01*
X154767856Y-42139200D02*
X154882142Y-42177295D01*
X154882142Y-42177295D02*
X155072618Y-42177295D01*
X145016428Y-51575390D02*
X145092618Y-51537295D01*
X145092618Y-51537295D02*
X145206904Y-51537295D01*
X145206904Y-51537295D02*
X145321190Y-51575390D01*
X145321190Y-51575390D02*
X145397380Y-51651580D01*
X145397380Y-51651580D02*
X145435475Y-51727771D01*
X145435475Y-51727771D02*
X145473571Y-51880152D01*
X145473571Y-51880152D02*
X145473571Y-51994438D01*
X145473571Y-51994438D02*
X145435475Y-52146819D01*
X145435475Y-52146819D02*
X145397380Y-52223009D01*
X145397380Y-52223009D02*
X145321190Y-52299200D01*
X145321190Y-52299200D02*
X145206904Y-52337295D01*
X145206904Y-52337295D02*
X145130713Y-52337295D01*
X145130713Y-52337295D02*
X145016428Y-52299200D01*
X145016428Y-52299200D02*
X144978332Y-52261104D01*
X144978332Y-52261104D02*
X144978332Y-51994438D01*
X144978332Y-51994438D02*
X145130713Y-51994438D01*
X144635475Y-52337295D02*
X144635475Y-51537295D01*
X144635475Y-51537295D02*
X144330713Y-51537295D01*
X144330713Y-51537295D02*
X144254523Y-51575390D01*
X144254523Y-51575390D02*
X144216428Y-51613485D01*
X144216428Y-51613485D02*
X144178332Y-51689676D01*
X144178332Y-51689676D02*
X144178332Y-51803961D01*
X144178332Y-51803961D02*
X144216428Y-51880152D01*
X144216428Y-51880152D02*
X144254523Y-51918247D01*
X144254523Y-51918247D02*
X144330713Y-51956342D01*
X144330713Y-51956342D02*
X144635475Y-51956342D01*
X143797380Y-52337295D02*
X143644999Y-52337295D01*
X143644999Y-52337295D02*
X143568809Y-52299200D01*
X143568809Y-52299200D02*
X143530713Y-52261104D01*
X143530713Y-52261104D02*
X143454523Y-52146819D01*
X143454523Y-52146819D02*
X143416428Y-51994438D01*
X143416428Y-51994438D02*
X143416428Y-51689676D01*
X143416428Y-51689676D02*
X143454523Y-51613485D01*
X143454523Y-51613485D02*
X143492618Y-51575390D01*
X143492618Y-51575390D02*
X143568809Y-51537295D01*
X143568809Y-51537295D02*
X143721190Y-51537295D01*
X143721190Y-51537295D02*
X143797380Y-51575390D01*
X143797380Y-51575390D02*
X143835475Y-51613485D01*
X143835475Y-51613485D02*
X143873571Y-51689676D01*
X143873571Y-51689676D02*
X143873571Y-51880152D01*
X143873571Y-51880152D02*
X143835475Y-51956342D01*
X143835475Y-51956342D02*
X143797380Y-51994438D01*
X143797380Y-51994438D02*
X143721190Y-52032533D01*
X143721190Y-52032533D02*
X143568809Y-52032533D01*
X143568809Y-52032533D02*
X143492618Y-51994438D01*
X143492618Y-51994438D02*
X143454523Y-51956342D01*
X143454523Y-51956342D02*
X143416428Y-51880152D01*
X156977381Y-38875390D02*
X157053571Y-38837295D01*
X157053571Y-38837295D02*
X157167857Y-38837295D01*
X157167857Y-38837295D02*
X157282143Y-38875390D01*
X157282143Y-38875390D02*
X157358333Y-38951580D01*
X157358333Y-38951580D02*
X157396428Y-39027771D01*
X157396428Y-39027771D02*
X157434524Y-39180152D01*
X157434524Y-39180152D02*
X157434524Y-39294438D01*
X157434524Y-39294438D02*
X157396428Y-39446819D01*
X157396428Y-39446819D02*
X157358333Y-39523009D01*
X157358333Y-39523009D02*
X157282143Y-39599200D01*
X157282143Y-39599200D02*
X157167857Y-39637295D01*
X157167857Y-39637295D02*
X157091666Y-39637295D01*
X157091666Y-39637295D02*
X156977381Y-39599200D01*
X156977381Y-39599200D02*
X156939285Y-39561104D01*
X156939285Y-39561104D02*
X156939285Y-39294438D01*
X156939285Y-39294438D02*
X157091666Y-39294438D01*
X156596428Y-39637295D02*
X156596428Y-38837295D01*
X156596428Y-38837295D02*
X156291666Y-38837295D01*
X156291666Y-38837295D02*
X156215476Y-38875390D01*
X156215476Y-38875390D02*
X156177381Y-38913485D01*
X156177381Y-38913485D02*
X156139285Y-38989676D01*
X156139285Y-38989676D02*
X156139285Y-39103961D01*
X156139285Y-39103961D02*
X156177381Y-39180152D01*
X156177381Y-39180152D02*
X156215476Y-39218247D01*
X156215476Y-39218247D02*
X156291666Y-39256342D01*
X156291666Y-39256342D02*
X156596428Y-39256342D01*
X155834524Y-38913485D02*
X155796428Y-38875390D01*
X155796428Y-38875390D02*
X155720238Y-38837295D01*
X155720238Y-38837295D02*
X155529762Y-38837295D01*
X155529762Y-38837295D02*
X155453571Y-38875390D01*
X155453571Y-38875390D02*
X155415476Y-38913485D01*
X155415476Y-38913485D02*
X155377381Y-38989676D01*
X155377381Y-38989676D02*
X155377381Y-39065866D01*
X155377381Y-39065866D02*
X155415476Y-39180152D01*
X155415476Y-39180152D02*
X155872619Y-39637295D01*
X155872619Y-39637295D02*
X155377381Y-39637295D01*
X154920238Y-39180152D02*
X154996428Y-39142057D01*
X154996428Y-39142057D02*
X155034523Y-39103961D01*
X155034523Y-39103961D02*
X155072619Y-39027771D01*
X155072619Y-39027771D02*
X155072619Y-38989676D01*
X155072619Y-38989676D02*
X155034523Y-38913485D01*
X155034523Y-38913485D02*
X154996428Y-38875390D01*
X154996428Y-38875390D02*
X154920238Y-38837295D01*
X154920238Y-38837295D02*
X154767857Y-38837295D01*
X154767857Y-38837295D02*
X154691666Y-38875390D01*
X154691666Y-38875390D02*
X154653571Y-38913485D01*
X154653571Y-38913485D02*
X154615476Y-38989676D01*
X154615476Y-38989676D02*
X154615476Y-39027771D01*
X154615476Y-39027771D02*
X154653571Y-39103961D01*
X154653571Y-39103961D02*
X154691666Y-39142057D01*
X154691666Y-39142057D02*
X154767857Y-39180152D01*
X154767857Y-39180152D02*
X154920238Y-39180152D01*
X154920238Y-39180152D02*
X154996428Y-39218247D01*
X154996428Y-39218247D02*
X155034523Y-39256342D01*
X155034523Y-39256342D02*
X155072619Y-39332533D01*
X155072619Y-39332533D02*
X155072619Y-39484914D01*
X155072619Y-39484914D02*
X155034523Y-39561104D01*
X155034523Y-39561104D02*
X154996428Y-39599200D01*
X154996428Y-39599200D02*
X154920238Y-39637295D01*
X154920238Y-39637295D02*
X154767857Y-39637295D01*
X154767857Y-39637295D02*
X154691666Y-39599200D01*
X154691666Y-39599200D02*
X154653571Y-39561104D01*
X154653571Y-39561104D02*
X154615476Y-39484914D01*
X154615476Y-39484914D02*
X154615476Y-39332533D01*
X154615476Y-39332533D02*
X154653571Y-39256342D01*
X154653571Y-39256342D02*
X154691666Y-39218247D01*
X154691666Y-39218247D02*
X154767857Y-39180152D01*
X145016428Y-23635390D02*
X145092618Y-23597295D01*
X145092618Y-23597295D02*
X145206904Y-23597295D01*
X145206904Y-23597295D02*
X145321190Y-23635390D01*
X145321190Y-23635390D02*
X145397380Y-23711580D01*
X145397380Y-23711580D02*
X145435475Y-23787771D01*
X145435475Y-23787771D02*
X145473571Y-23940152D01*
X145473571Y-23940152D02*
X145473571Y-24054438D01*
X145473571Y-24054438D02*
X145435475Y-24206819D01*
X145435475Y-24206819D02*
X145397380Y-24283009D01*
X145397380Y-24283009D02*
X145321190Y-24359200D01*
X145321190Y-24359200D02*
X145206904Y-24397295D01*
X145206904Y-24397295D02*
X145130713Y-24397295D01*
X145130713Y-24397295D02*
X145016428Y-24359200D01*
X145016428Y-24359200D02*
X144978332Y-24321104D01*
X144978332Y-24321104D02*
X144978332Y-24054438D01*
X144978332Y-24054438D02*
X145130713Y-24054438D01*
X144635475Y-24397295D02*
X144635475Y-23597295D01*
X144635475Y-23597295D02*
X144330713Y-23597295D01*
X144330713Y-23597295D02*
X144254523Y-23635390D01*
X144254523Y-23635390D02*
X144216428Y-23673485D01*
X144216428Y-23673485D02*
X144178332Y-23749676D01*
X144178332Y-23749676D02*
X144178332Y-23863961D01*
X144178332Y-23863961D02*
X144216428Y-23940152D01*
X144216428Y-23940152D02*
X144254523Y-23978247D01*
X144254523Y-23978247D02*
X144330713Y-24016342D01*
X144330713Y-24016342D02*
X144635475Y-24016342D01*
X143683094Y-23597295D02*
X143606904Y-23597295D01*
X143606904Y-23597295D02*
X143530713Y-23635390D01*
X143530713Y-23635390D02*
X143492618Y-23673485D01*
X143492618Y-23673485D02*
X143454523Y-23749676D01*
X143454523Y-23749676D02*
X143416428Y-23902057D01*
X143416428Y-23902057D02*
X143416428Y-24092533D01*
X143416428Y-24092533D02*
X143454523Y-24244914D01*
X143454523Y-24244914D02*
X143492618Y-24321104D01*
X143492618Y-24321104D02*
X143530713Y-24359200D01*
X143530713Y-24359200D02*
X143606904Y-24397295D01*
X143606904Y-24397295D02*
X143683094Y-24397295D01*
X143683094Y-24397295D02*
X143759285Y-24359200D01*
X143759285Y-24359200D02*
X143797380Y-24321104D01*
X143797380Y-24321104D02*
X143835475Y-24244914D01*
X143835475Y-24244914D02*
X143873571Y-24092533D01*
X143873571Y-24092533D02*
X143873571Y-23902057D01*
X143873571Y-23902057D02*
X143835475Y-23749676D01*
X143835475Y-23749676D02*
X143797380Y-23673485D01*
X143797380Y-23673485D02*
X143759285Y-23635390D01*
X143759285Y-23635390D02*
X143683094Y-23597295D01*
X148269200Y-66605475D02*
X148307295Y-66719761D01*
X148307295Y-66719761D02*
X148307295Y-66910237D01*
X148307295Y-66910237D02*
X148269200Y-66986428D01*
X148269200Y-66986428D02*
X148231104Y-67024523D01*
X148231104Y-67024523D02*
X148154914Y-67062618D01*
X148154914Y-67062618D02*
X148078723Y-67062618D01*
X148078723Y-67062618D02*
X148002533Y-67024523D01*
X148002533Y-67024523D02*
X147964438Y-66986428D01*
X147964438Y-66986428D02*
X147926342Y-66910237D01*
X147926342Y-66910237D02*
X147888247Y-66757856D01*
X147888247Y-66757856D02*
X147850152Y-66681666D01*
X147850152Y-66681666D02*
X147812057Y-66643571D01*
X147812057Y-66643571D02*
X147735866Y-66605475D01*
X147735866Y-66605475D02*
X147659676Y-66605475D01*
X147659676Y-66605475D02*
X147583485Y-66643571D01*
X147583485Y-66643571D02*
X147545390Y-66681666D01*
X147545390Y-66681666D02*
X147507295Y-66757856D01*
X147507295Y-66757856D02*
X147507295Y-66948333D01*
X147507295Y-66948333D02*
X147545390Y-67062618D01*
X147507295Y-67329285D02*
X148307295Y-67519761D01*
X148307295Y-67519761D02*
X147735866Y-67672142D01*
X147735866Y-67672142D02*
X148307295Y-67824523D01*
X148307295Y-67824523D02*
X147507295Y-68015000D01*
X148231104Y-68776905D02*
X148269200Y-68738809D01*
X148269200Y-68738809D02*
X148307295Y-68624524D01*
X148307295Y-68624524D02*
X148307295Y-68548333D01*
X148307295Y-68548333D02*
X148269200Y-68434047D01*
X148269200Y-68434047D02*
X148193009Y-68357857D01*
X148193009Y-68357857D02*
X148116819Y-68319762D01*
X148116819Y-68319762D02*
X147964438Y-68281666D01*
X147964438Y-68281666D02*
X147850152Y-68281666D01*
X147850152Y-68281666D02*
X147697771Y-68319762D01*
X147697771Y-68319762D02*
X147621580Y-68357857D01*
X147621580Y-68357857D02*
X147545390Y-68434047D01*
X147545390Y-68434047D02*
X147507295Y-68548333D01*
X147507295Y-68548333D02*
X147507295Y-68624524D01*
X147507295Y-68624524D02*
X147545390Y-68738809D01*
X147545390Y-68738809D02*
X147583485Y-68776905D01*
X148307295Y-69500714D02*
X148307295Y-69119762D01*
X148307295Y-69119762D02*
X147507295Y-69119762D01*
X148307295Y-69767381D02*
X147507295Y-69767381D01*
X148307295Y-70224524D02*
X147850152Y-69881666D01*
X147507295Y-70224524D02*
X147964438Y-69767381D01*
X156977381Y-61735390D02*
X157053571Y-61697295D01*
X157053571Y-61697295D02*
X157167857Y-61697295D01*
X157167857Y-61697295D02*
X157282143Y-61735390D01*
X157282143Y-61735390D02*
X157358333Y-61811580D01*
X157358333Y-61811580D02*
X157396428Y-61887771D01*
X157396428Y-61887771D02*
X157434524Y-62040152D01*
X157434524Y-62040152D02*
X157434524Y-62154438D01*
X157434524Y-62154438D02*
X157396428Y-62306819D01*
X157396428Y-62306819D02*
X157358333Y-62383009D01*
X157358333Y-62383009D02*
X157282143Y-62459200D01*
X157282143Y-62459200D02*
X157167857Y-62497295D01*
X157167857Y-62497295D02*
X157091666Y-62497295D01*
X157091666Y-62497295D02*
X156977381Y-62459200D01*
X156977381Y-62459200D02*
X156939285Y-62421104D01*
X156939285Y-62421104D02*
X156939285Y-62154438D01*
X156939285Y-62154438D02*
X157091666Y-62154438D01*
X156596428Y-62497295D02*
X156596428Y-61697295D01*
X156596428Y-61697295D02*
X156291666Y-61697295D01*
X156291666Y-61697295D02*
X156215476Y-61735390D01*
X156215476Y-61735390D02*
X156177381Y-61773485D01*
X156177381Y-61773485D02*
X156139285Y-61849676D01*
X156139285Y-61849676D02*
X156139285Y-61963961D01*
X156139285Y-61963961D02*
X156177381Y-62040152D01*
X156177381Y-62040152D02*
X156215476Y-62078247D01*
X156215476Y-62078247D02*
X156291666Y-62116342D01*
X156291666Y-62116342D02*
X156596428Y-62116342D01*
X155377381Y-62497295D02*
X155834524Y-62497295D01*
X155605952Y-62497295D02*
X155605952Y-61697295D01*
X155605952Y-61697295D02*
X155682143Y-61811580D01*
X155682143Y-61811580D02*
X155758333Y-61887771D01*
X155758333Y-61887771D02*
X155834524Y-61925866D01*
X154996428Y-62497295D02*
X154844047Y-62497295D01*
X154844047Y-62497295D02*
X154767857Y-62459200D01*
X154767857Y-62459200D02*
X154729761Y-62421104D01*
X154729761Y-62421104D02*
X154653571Y-62306819D01*
X154653571Y-62306819D02*
X154615476Y-62154438D01*
X154615476Y-62154438D02*
X154615476Y-61849676D01*
X154615476Y-61849676D02*
X154653571Y-61773485D01*
X154653571Y-61773485D02*
X154691666Y-61735390D01*
X154691666Y-61735390D02*
X154767857Y-61697295D01*
X154767857Y-61697295D02*
X154920238Y-61697295D01*
X154920238Y-61697295D02*
X154996428Y-61735390D01*
X154996428Y-61735390D02*
X155034523Y-61773485D01*
X155034523Y-61773485D02*
X155072619Y-61849676D01*
X155072619Y-61849676D02*
X155072619Y-62040152D01*
X155072619Y-62040152D02*
X155034523Y-62116342D01*
X155034523Y-62116342D02*
X154996428Y-62154438D01*
X154996428Y-62154438D02*
X154920238Y-62192533D01*
X154920238Y-62192533D02*
X154767857Y-62192533D01*
X154767857Y-62192533D02*
X154691666Y-62154438D01*
X154691666Y-62154438D02*
X154653571Y-62116342D01*
X154653571Y-62116342D02*
X154615476Y-62040152D01*
X145054523Y-54115390D02*
X145130713Y-54077295D01*
X145130713Y-54077295D02*
X145244999Y-54077295D01*
X145244999Y-54077295D02*
X145359285Y-54115390D01*
X145359285Y-54115390D02*
X145435475Y-54191580D01*
X145435475Y-54191580D02*
X145473570Y-54267771D01*
X145473570Y-54267771D02*
X145511666Y-54420152D01*
X145511666Y-54420152D02*
X145511666Y-54534438D01*
X145511666Y-54534438D02*
X145473570Y-54686819D01*
X145473570Y-54686819D02*
X145435475Y-54763009D01*
X145435475Y-54763009D02*
X145359285Y-54839200D01*
X145359285Y-54839200D02*
X145244999Y-54877295D01*
X145244999Y-54877295D02*
X145168808Y-54877295D01*
X145168808Y-54877295D02*
X145054523Y-54839200D01*
X145054523Y-54839200D02*
X145016427Y-54801104D01*
X145016427Y-54801104D02*
X145016427Y-54534438D01*
X145016427Y-54534438D02*
X145168808Y-54534438D01*
X144673570Y-54877295D02*
X144673570Y-54077295D01*
X144673570Y-54077295D02*
X144216427Y-54877295D01*
X144216427Y-54877295D02*
X144216427Y-54077295D01*
X143835475Y-54877295D02*
X143835475Y-54077295D01*
X143835475Y-54077295D02*
X143644999Y-54077295D01*
X143644999Y-54077295D02*
X143530713Y-54115390D01*
X143530713Y-54115390D02*
X143454523Y-54191580D01*
X143454523Y-54191580D02*
X143416428Y-54267771D01*
X143416428Y-54267771D02*
X143378332Y-54420152D01*
X143378332Y-54420152D02*
X143378332Y-54534438D01*
X143378332Y-54534438D02*
X143416428Y-54686819D01*
X143416428Y-54686819D02*
X143454523Y-54763009D01*
X143454523Y-54763009D02*
X143530713Y-54839200D01*
X143530713Y-54839200D02*
X143644999Y-54877295D01*
X143644999Y-54877295D02*
X143835475Y-54877295D01*
X145016428Y-26165390D02*
X145092618Y-26127295D01*
X145092618Y-26127295D02*
X145206904Y-26127295D01*
X145206904Y-26127295D02*
X145321190Y-26165390D01*
X145321190Y-26165390D02*
X145397380Y-26241580D01*
X145397380Y-26241580D02*
X145435475Y-26317771D01*
X145435475Y-26317771D02*
X145473571Y-26470152D01*
X145473571Y-26470152D02*
X145473571Y-26584438D01*
X145473571Y-26584438D02*
X145435475Y-26736819D01*
X145435475Y-26736819D02*
X145397380Y-26813009D01*
X145397380Y-26813009D02*
X145321190Y-26889200D01*
X145321190Y-26889200D02*
X145206904Y-26927295D01*
X145206904Y-26927295D02*
X145130713Y-26927295D01*
X145130713Y-26927295D02*
X145016428Y-26889200D01*
X145016428Y-26889200D02*
X144978332Y-26851104D01*
X144978332Y-26851104D02*
X144978332Y-26584438D01*
X144978332Y-26584438D02*
X145130713Y-26584438D01*
X144635475Y-26927295D02*
X144635475Y-26127295D01*
X144635475Y-26127295D02*
X144330713Y-26127295D01*
X144330713Y-26127295D02*
X144254523Y-26165390D01*
X144254523Y-26165390D02*
X144216428Y-26203485D01*
X144216428Y-26203485D02*
X144178332Y-26279676D01*
X144178332Y-26279676D02*
X144178332Y-26393961D01*
X144178332Y-26393961D02*
X144216428Y-26470152D01*
X144216428Y-26470152D02*
X144254523Y-26508247D01*
X144254523Y-26508247D02*
X144330713Y-26546342D01*
X144330713Y-26546342D02*
X144635475Y-26546342D01*
X143416428Y-26927295D02*
X143873571Y-26927295D01*
X143644999Y-26927295D02*
X143644999Y-26127295D01*
X143644999Y-26127295D02*
X143721190Y-26241580D01*
X143721190Y-26241580D02*
X143797380Y-26317771D01*
X143797380Y-26317771D02*
X143873571Y-26355866D01*
X156977381Y-56665390D02*
X157053571Y-56627295D01*
X157053571Y-56627295D02*
X157167857Y-56627295D01*
X157167857Y-56627295D02*
X157282143Y-56665390D01*
X157282143Y-56665390D02*
X157358333Y-56741580D01*
X157358333Y-56741580D02*
X157396428Y-56817771D01*
X157396428Y-56817771D02*
X157434524Y-56970152D01*
X157434524Y-56970152D02*
X157434524Y-57084438D01*
X157434524Y-57084438D02*
X157396428Y-57236819D01*
X157396428Y-57236819D02*
X157358333Y-57313009D01*
X157358333Y-57313009D02*
X157282143Y-57389200D01*
X157282143Y-57389200D02*
X157167857Y-57427295D01*
X157167857Y-57427295D02*
X157091666Y-57427295D01*
X157091666Y-57427295D02*
X156977381Y-57389200D01*
X156977381Y-57389200D02*
X156939285Y-57351104D01*
X156939285Y-57351104D02*
X156939285Y-57084438D01*
X156939285Y-57084438D02*
X157091666Y-57084438D01*
X156596428Y-57427295D02*
X156596428Y-56627295D01*
X156596428Y-56627295D02*
X156291666Y-56627295D01*
X156291666Y-56627295D02*
X156215476Y-56665390D01*
X156215476Y-56665390D02*
X156177381Y-56703485D01*
X156177381Y-56703485D02*
X156139285Y-56779676D01*
X156139285Y-56779676D02*
X156139285Y-56893961D01*
X156139285Y-56893961D02*
X156177381Y-56970152D01*
X156177381Y-56970152D02*
X156215476Y-57008247D01*
X156215476Y-57008247D02*
X156291666Y-57046342D01*
X156291666Y-57046342D02*
X156596428Y-57046342D01*
X155834524Y-56703485D02*
X155796428Y-56665390D01*
X155796428Y-56665390D02*
X155720238Y-56627295D01*
X155720238Y-56627295D02*
X155529762Y-56627295D01*
X155529762Y-56627295D02*
X155453571Y-56665390D01*
X155453571Y-56665390D02*
X155415476Y-56703485D01*
X155415476Y-56703485D02*
X155377381Y-56779676D01*
X155377381Y-56779676D02*
X155377381Y-56855866D01*
X155377381Y-56855866D02*
X155415476Y-56970152D01*
X155415476Y-56970152D02*
X155872619Y-57427295D01*
X155872619Y-57427295D02*
X155377381Y-57427295D01*
X154615476Y-57427295D02*
X155072619Y-57427295D01*
X154844047Y-57427295D02*
X154844047Y-56627295D01*
X154844047Y-56627295D02*
X154920238Y-56741580D01*
X154920238Y-56741580D02*
X154996428Y-56817771D01*
X154996428Y-56817771D02*
X155072619Y-56855866D01*
X156977381Y-51575390D02*
X157053571Y-51537295D01*
X157053571Y-51537295D02*
X157167857Y-51537295D01*
X157167857Y-51537295D02*
X157282143Y-51575390D01*
X157282143Y-51575390D02*
X157358333Y-51651580D01*
X157358333Y-51651580D02*
X157396428Y-51727771D01*
X157396428Y-51727771D02*
X157434524Y-51880152D01*
X157434524Y-51880152D02*
X157434524Y-51994438D01*
X157434524Y-51994438D02*
X157396428Y-52146819D01*
X157396428Y-52146819D02*
X157358333Y-52223009D01*
X157358333Y-52223009D02*
X157282143Y-52299200D01*
X157282143Y-52299200D02*
X157167857Y-52337295D01*
X157167857Y-52337295D02*
X157091666Y-52337295D01*
X157091666Y-52337295D02*
X156977381Y-52299200D01*
X156977381Y-52299200D02*
X156939285Y-52261104D01*
X156939285Y-52261104D02*
X156939285Y-51994438D01*
X156939285Y-51994438D02*
X157091666Y-51994438D01*
X156596428Y-52337295D02*
X156596428Y-51537295D01*
X156596428Y-51537295D02*
X156291666Y-51537295D01*
X156291666Y-51537295D02*
X156215476Y-51575390D01*
X156215476Y-51575390D02*
X156177381Y-51613485D01*
X156177381Y-51613485D02*
X156139285Y-51689676D01*
X156139285Y-51689676D02*
X156139285Y-51803961D01*
X156139285Y-51803961D02*
X156177381Y-51880152D01*
X156177381Y-51880152D02*
X156215476Y-51918247D01*
X156215476Y-51918247D02*
X156291666Y-51956342D01*
X156291666Y-51956342D02*
X156596428Y-51956342D01*
X155834524Y-51613485D02*
X155796428Y-51575390D01*
X155796428Y-51575390D02*
X155720238Y-51537295D01*
X155720238Y-51537295D02*
X155529762Y-51537295D01*
X155529762Y-51537295D02*
X155453571Y-51575390D01*
X155453571Y-51575390D02*
X155415476Y-51613485D01*
X155415476Y-51613485D02*
X155377381Y-51689676D01*
X155377381Y-51689676D02*
X155377381Y-51765866D01*
X155377381Y-51765866D02*
X155415476Y-51880152D01*
X155415476Y-51880152D02*
X155872619Y-52337295D01*
X155872619Y-52337295D02*
X155377381Y-52337295D01*
X155072619Y-51613485D02*
X155034523Y-51575390D01*
X155034523Y-51575390D02*
X154958333Y-51537295D01*
X154958333Y-51537295D02*
X154767857Y-51537295D01*
X154767857Y-51537295D02*
X154691666Y-51575390D01*
X154691666Y-51575390D02*
X154653571Y-51613485D01*
X154653571Y-51613485D02*
X154615476Y-51689676D01*
X154615476Y-51689676D02*
X154615476Y-51765866D01*
X154615476Y-51765866D02*
X154653571Y-51880152D01*
X154653571Y-51880152D02*
X155110714Y-52337295D01*
X155110714Y-52337295D02*
X154615476Y-52337295D01*
X157134523Y-28715390D02*
X157210713Y-28677295D01*
X157210713Y-28677295D02*
X157324999Y-28677295D01*
X157324999Y-28677295D02*
X157439285Y-28715390D01*
X157439285Y-28715390D02*
X157515475Y-28791580D01*
X157515475Y-28791580D02*
X157553570Y-28867771D01*
X157553570Y-28867771D02*
X157591666Y-29020152D01*
X157591666Y-29020152D02*
X157591666Y-29134438D01*
X157591666Y-29134438D02*
X157553570Y-29286819D01*
X157553570Y-29286819D02*
X157515475Y-29363009D01*
X157515475Y-29363009D02*
X157439285Y-29439200D01*
X157439285Y-29439200D02*
X157324999Y-29477295D01*
X157324999Y-29477295D02*
X157248808Y-29477295D01*
X157248808Y-29477295D02*
X157134523Y-29439200D01*
X157134523Y-29439200D02*
X157096427Y-29401104D01*
X157096427Y-29401104D02*
X157096427Y-29134438D01*
X157096427Y-29134438D02*
X157248808Y-29134438D01*
X156753570Y-29477295D02*
X156753570Y-28677295D01*
X156753570Y-28677295D02*
X156296427Y-29477295D01*
X156296427Y-29477295D02*
X156296427Y-28677295D01*
X155915475Y-29477295D02*
X155915475Y-28677295D01*
X155915475Y-28677295D02*
X155724999Y-28677295D01*
X155724999Y-28677295D02*
X155610713Y-28715390D01*
X155610713Y-28715390D02*
X155534523Y-28791580D01*
X155534523Y-28791580D02*
X155496428Y-28867771D01*
X155496428Y-28867771D02*
X155458332Y-29020152D01*
X155458332Y-29020152D02*
X155458332Y-29134438D01*
X155458332Y-29134438D02*
X155496428Y-29286819D01*
X155496428Y-29286819D02*
X155534523Y-29363009D01*
X155534523Y-29363009D02*
X155610713Y-29439200D01*
X155610713Y-29439200D02*
X155724999Y-29477295D01*
X155724999Y-29477295D02*
X155915475Y-29477295D01*
X156984523Y-66815390D02*
X157060713Y-66777295D01*
X157060713Y-66777295D02*
X157174999Y-66777295D01*
X157174999Y-66777295D02*
X157289285Y-66815390D01*
X157289285Y-66815390D02*
X157365475Y-66891580D01*
X157365475Y-66891580D02*
X157403570Y-66967771D01*
X157403570Y-66967771D02*
X157441666Y-67120152D01*
X157441666Y-67120152D02*
X157441666Y-67234438D01*
X157441666Y-67234438D02*
X157403570Y-67386819D01*
X157403570Y-67386819D02*
X157365475Y-67463009D01*
X157365475Y-67463009D02*
X157289285Y-67539200D01*
X157289285Y-67539200D02*
X157174999Y-67577295D01*
X157174999Y-67577295D02*
X157098808Y-67577295D01*
X157098808Y-67577295D02*
X156984523Y-67539200D01*
X156984523Y-67539200D02*
X156946427Y-67501104D01*
X156946427Y-67501104D02*
X156946427Y-67234438D01*
X156946427Y-67234438D02*
X157098808Y-67234438D01*
X156603570Y-67577295D02*
X156603570Y-66777295D01*
X156603570Y-66777295D02*
X156146427Y-67577295D01*
X156146427Y-67577295D02*
X156146427Y-66777295D01*
X155765475Y-67577295D02*
X155765475Y-66777295D01*
X155765475Y-66777295D02*
X155574999Y-66777295D01*
X155574999Y-66777295D02*
X155460713Y-66815390D01*
X155460713Y-66815390D02*
X155384523Y-66891580D01*
X155384523Y-66891580D02*
X155346428Y-66967771D01*
X155346428Y-66967771D02*
X155308332Y-67120152D01*
X155308332Y-67120152D02*
X155308332Y-67234438D01*
X155308332Y-67234438D02*
X155346428Y-67386819D01*
X155346428Y-67386819D02*
X155384523Y-67463009D01*
X155384523Y-67463009D02*
X155460713Y-67539200D01*
X155460713Y-67539200D02*
X155574999Y-67577295D01*
X155574999Y-67577295D02*
X155765475Y-67577295D01*
X145747381Y-64275390D02*
X145823571Y-64237295D01*
X145823571Y-64237295D02*
X145937857Y-64237295D01*
X145937857Y-64237295D02*
X146052143Y-64275390D01*
X146052143Y-64275390D02*
X146128333Y-64351580D01*
X146128333Y-64351580D02*
X146166428Y-64427771D01*
X146166428Y-64427771D02*
X146204524Y-64580152D01*
X146204524Y-64580152D02*
X146204524Y-64694438D01*
X146204524Y-64694438D02*
X146166428Y-64846819D01*
X146166428Y-64846819D02*
X146128333Y-64923009D01*
X146128333Y-64923009D02*
X146052143Y-64999200D01*
X146052143Y-64999200D02*
X145937857Y-65037295D01*
X145937857Y-65037295D02*
X145861666Y-65037295D01*
X145861666Y-65037295D02*
X145747381Y-64999200D01*
X145747381Y-64999200D02*
X145709285Y-64961104D01*
X145709285Y-64961104D02*
X145709285Y-64694438D01*
X145709285Y-64694438D02*
X145861666Y-64694438D01*
X145366428Y-65037295D02*
X145366428Y-64237295D01*
X145366428Y-64237295D02*
X145061666Y-64237295D01*
X145061666Y-64237295D02*
X144985476Y-64275390D01*
X144985476Y-64275390D02*
X144947381Y-64313485D01*
X144947381Y-64313485D02*
X144909285Y-64389676D01*
X144909285Y-64389676D02*
X144909285Y-64503961D01*
X144909285Y-64503961D02*
X144947381Y-64580152D01*
X144947381Y-64580152D02*
X144985476Y-64618247D01*
X144985476Y-64618247D02*
X145061666Y-64656342D01*
X145061666Y-64656342D02*
X145366428Y-64656342D01*
X144147381Y-65037295D02*
X144604524Y-65037295D01*
X144375952Y-65037295D02*
X144375952Y-64237295D01*
X144375952Y-64237295D02*
X144452143Y-64351580D01*
X144452143Y-64351580D02*
X144528333Y-64427771D01*
X144528333Y-64427771D02*
X144604524Y-64465866D01*
X143880714Y-64237295D02*
X143385476Y-64237295D01*
X143385476Y-64237295D02*
X143652142Y-64542057D01*
X143652142Y-64542057D02*
X143537857Y-64542057D01*
X143537857Y-64542057D02*
X143461666Y-64580152D01*
X143461666Y-64580152D02*
X143423571Y-64618247D01*
X143423571Y-64618247D02*
X143385476Y-64694438D01*
X143385476Y-64694438D02*
X143385476Y-64884914D01*
X143385476Y-64884914D02*
X143423571Y-64961104D01*
X143423571Y-64961104D02*
X143461666Y-64999200D01*
X143461666Y-64999200D02*
X143537857Y-65037295D01*
X143537857Y-65037295D02*
X143766428Y-65037295D01*
X143766428Y-65037295D02*
X143842619Y-64999200D01*
X143842619Y-64999200D02*
X143880714Y-64961104D01*
X145747381Y-61735390D02*
X145823571Y-61697295D01*
X145823571Y-61697295D02*
X145937857Y-61697295D01*
X145937857Y-61697295D02*
X146052143Y-61735390D01*
X146052143Y-61735390D02*
X146128333Y-61811580D01*
X146128333Y-61811580D02*
X146166428Y-61887771D01*
X146166428Y-61887771D02*
X146204524Y-62040152D01*
X146204524Y-62040152D02*
X146204524Y-62154438D01*
X146204524Y-62154438D02*
X146166428Y-62306819D01*
X146166428Y-62306819D02*
X146128333Y-62383009D01*
X146128333Y-62383009D02*
X146052143Y-62459200D01*
X146052143Y-62459200D02*
X145937857Y-62497295D01*
X145937857Y-62497295D02*
X145861666Y-62497295D01*
X145861666Y-62497295D02*
X145747381Y-62459200D01*
X145747381Y-62459200D02*
X145709285Y-62421104D01*
X145709285Y-62421104D02*
X145709285Y-62154438D01*
X145709285Y-62154438D02*
X145861666Y-62154438D01*
X145366428Y-62497295D02*
X145366428Y-61697295D01*
X145366428Y-61697295D02*
X145061666Y-61697295D01*
X145061666Y-61697295D02*
X144985476Y-61735390D01*
X144985476Y-61735390D02*
X144947381Y-61773485D01*
X144947381Y-61773485D02*
X144909285Y-61849676D01*
X144909285Y-61849676D02*
X144909285Y-61963961D01*
X144909285Y-61963961D02*
X144947381Y-62040152D01*
X144947381Y-62040152D02*
X144985476Y-62078247D01*
X144985476Y-62078247D02*
X145061666Y-62116342D01*
X145061666Y-62116342D02*
X145366428Y-62116342D01*
X144147381Y-62497295D02*
X144604524Y-62497295D01*
X144375952Y-62497295D02*
X144375952Y-61697295D01*
X144375952Y-61697295D02*
X144452143Y-61811580D01*
X144452143Y-61811580D02*
X144528333Y-61887771D01*
X144528333Y-61887771D02*
X144604524Y-61925866D01*
X143842619Y-61773485D02*
X143804523Y-61735390D01*
X143804523Y-61735390D02*
X143728333Y-61697295D01*
X143728333Y-61697295D02*
X143537857Y-61697295D01*
X143537857Y-61697295D02*
X143461666Y-61735390D01*
X143461666Y-61735390D02*
X143423571Y-61773485D01*
X143423571Y-61773485D02*
X143385476Y-61849676D01*
X143385476Y-61849676D02*
X143385476Y-61925866D01*
X143385476Y-61925866D02*
X143423571Y-62040152D01*
X143423571Y-62040152D02*
X143880714Y-62497295D01*
X143880714Y-62497295D02*
X143385476Y-62497295D01*
X145016428Y-31255390D02*
X145092618Y-31217295D01*
X145092618Y-31217295D02*
X145206904Y-31217295D01*
X145206904Y-31217295D02*
X145321190Y-31255390D01*
X145321190Y-31255390D02*
X145397380Y-31331580D01*
X145397380Y-31331580D02*
X145435475Y-31407771D01*
X145435475Y-31407771D02*
X145473571Y-31560152D01*
X145473571Y-31560152D02*
X145473571Y-31674438D01*
X145473571Y-31674438D02*
X145435475Y-31826819D01*
X145435475Y-31826819D02*
X145397380Y-31903009D01*
X145397380Y-31903009D02*
X145321190Y-31979200D01*
X145321190Y-31979200D02*
X145206904Y-32017295D01*
X145206904Y-32017295D02*
X145130713Y-32017295D01*
X145130713Y-32017295D02*
X145016428Y-31979200D01*
X145016428Y-31979200D02*
X144978332Y-31941104D01*
X144978332Y-31941104D02*
X144978332Y-31674438D01*
X144978332Y-31674438D02*
X145130713Y-31674438D01*
X144635475Y-32017295D02*
X144635475Y-31217295D01*
X144635475Y-31217295D02*
X144330713Y-31217295D01*
X144330713Y-31217295D02*
X144254523Y-31255390D01*
X144254523Y-31255390D02*
X144216428Y-31293485D01*
X144216428Y-31293485D02*
X144178332Y-31369676D01*
X144178332Y-31369676D02*
X144178332Y-31483961D01*
X144178332Y-31483961D02*
X144216428Y-31560152D01*
X144216428Y-31560152D02*
X144254523Y-31598247D01*
X144254523Y-31598247D02*
X144330713Y-31636342D01*
X144330713Y-31636342D02*
X144635475Y-31636342D01*
X143873571Y-31293485D02*
X143835475Y-31255390D01*
X143835475Y-31255390D02*
X143759285Y-31217295D01*
X143759285Y-31217295D02*
X143568809Y-31217295D01*
X143568809Y-31217295D02*
X143492618Y-31255390D01*
X143492618Y-31255390D02*
X143454523Y-31293485D01*
X143454523Y-31293485D02*
X143416428Y-31369676D01*
X143416428Y-31369676D02*
X143416428Y-31445866D01*
X143416428Y-31445866D02*
X143454523Y-31560152D01*
X143454523Y-31560152D02*
X143911666Y-32017295D01*
X143911666Y-32017295D02*
X143416428Y-32017295D01*
X156977381Y-46495390D02*
X157053571Y-46457295D01*
X157053571Y-46457295D02*
X157167857Y-46457295D01*
X157167857Y-46457295D02*
X157282143Y-46495390D01*
X157282143Y-46495390D02*
X157358333Y-46571580D01*
X157358333Y-46571580D02*
X157396428Y-46647771D01*
X157396428Y-46647771D02*
X157434524Y-46800152D01*
X157434524Y-46800152D02*
X157434524Y-46914438D01*
X157434524Y-46914438D02*
X157396428Y-47066819D01*
X157396428Y-47066819D02*
X157358333Y-47143009D01*
X157358333Y-47143009D02*
X157282143Y-47219200D01*
X157282143Y-47219200D02*
X157167857Y-47257295D01*
X157167857Y-47257295D02*
X157091666Y-47257295D01*
X157091666Y-47257295D02*
X156977381Y-47219200D01*
X156977381Y-47219200D02*
X156939285Y-47181104D01*
X156939285Y-47181104D02*
X156939285Y-46914438D01*
X156939285Y-46914438D02*
X157091666Y-46914438D01*
X156596428Y-47257295D02*
X156596428Y-46457295D01*
X156596428Y-46457295D02*
X156291666Y-46457295D01*
X156291666Y-46457295D02*
X156215476Y-46495390D01*
X156215476Y-46495390D02*
X156177381Y-46533485D01*
X156177381Y-46533485D02*
X156139285Y-46609676D01*
X156139285Y-46609676D02*
X156139285Y-46723961D01*
X156139285Y-46723961D02*
X156177381Y-46800152D01*
X156177381Y-46800152D02*
X156215476Y-46838247D01*
X156215476Y-46838247D02*
X156291666Y-46876342D01*
X156291666Y-46876342D02*
X156596428Y-46876342D01*
X155834524Y-46533485D02*
X155796428Y-46495390D01*
X155796428Y-46495390D02*
X155720238Y-46457295D01*
X155720238Y-46457295D02*
X155529762Y-46457295D01*
X155529762Y-46457295D02*
X155453571Y-46495390D01*
X155453571Y-46495390D02*
X155415476Y-46533485D01*
X155415476Y-46533485D02*
X155377381Y-46609676D01*
X155377381Y-46609676D02*
X155377381Y-46685866D01*
X155377381Y-46685866D02*
X155415476Y-46800152D01*
X155415476Y-46800152D02*
X155872619Y-47257295D01*
X155872619Y-47257295D02*
X155377381Y-47257295D01*
X154691666Y-46457295D02*
X154844047Y-46457295D01*
X154844047Y-46457295D02*
X154920238Y-46495390D01*
X154920238Y-46495390D02*
X154958333Y-46533485D01*
X154958333Y-46533485D02*
X155034523Y-46647771D01*
X155034523Y-46647771D02*
X155072619Y-46800152D01*
X155072619Y-46800152D02*
X155072619Y-47104914D01*
X155072619Y-47104914D02*
X155034523Y-47181104D01*
X155034523Y-47181104D02*
X154996428Y-47219200D01*
X154996428Y-47219200D02*
X154920238Y-47257295D01*
X154920238Y-47257295D02*
X154767857Y-47257295D01*
X154767857Y-47257295D02*
X154691666Y-47219200D01*
X154691666Y-47219200D02*
X154653571Y-47181104D01*
X154653571Y-47181104D02*
X154615476Y-47104914D01*
X154615476Y-47104914D02*
X154615476Y-46914438D01*
X154615476Y-46914438D02*
X154653571Y-46838247D01*
X154653571Y-46838247D02*
X154691666Y-46800152D01*
X154691666Y-46800152D02*
X154767857Y-46762057D01*
X154767857Y-46762057D02*
X154920238Y-46762057D01*
X154920238Y-46762057D02*
X154996428Y-46800152D01*
X154996428Y-46800152D02*
X155034523Y-46838247D01*
X155034523Y-46838247D02*
X155072619Y-46914438D01*
X157741666Y-23597295D02*
X157474999Y-24397295D01*
X157474999Y-24397295D02*
X157208333Y-23597295D01*
X156675000Y-23978247D02*
X156560714Y-24016342D01*
X156560714Y-24016342D02*
X156522619Y-24054438D01*
X156522619Y-24054438D02*
X156484523Y-24130628D01*
X156484523Y-24130628D02*
X156484523Y-24244914D01*
X156484523Y-24244914D02*
X156522619Y-24321104D01*
X156522619Y-24321104D02*
X156560714Y-24359200D01*
X156560714Y-24359200D02*
X156636904Y-24397295D01*
X156636904Y-24397295D02*
X156941666Y-24397295D01*
X156941666Y-24397295D02*
X156941666Y-23597295D01*
X156941666Y-23597295D02*
X156675000Y-23597295D01*
X156675000Y-23597295D02*
X156598809Y-23635390D01*
X156598809Y-23635390D02*
X156560714Y-23673485D01*
X156560714Y-23673485D02*
X156522619Y-23749676D01*
X156522619Y-23749676D02*
X156522619Y-23825866D01*
X156522619Y-23825866D02*
X156560714Y-23902057D01*
X156560714Y-23902057D02*
X156598809Y-23940152D01*
X156598809Y-23940152D02*
X156675000Y-23978247D01*
X156675000Y-23978247D02*
X156941666Y-23978247D01*
X156141666Y-23597295D02*
X156141666Y-24244914D01*
X156141666Y-24244914D02*
X156103571Y-24321104D01*
X156103571Y-24321104D02*
X156065476Y-24359200D01*
X156065476Y-24359200D02*
X155989285Y-24397295D01*
X155989285Y-24397295D02*
X155836904Y-24397295D01*
X155836904Y-24397295D02*
X155760714Y-24359200D01*
X155760714Y-24359200D02*
X155722619Y-24321104D01*
X155722619Y-24321104D02*
X155684523Y-24244914D01*
X155684523Y-24244914D02*
X155684523Y-23597295D01*
X155341667Y-24359200D02*
X155227381Y-24397295D01*
X155227381Y-24397295D02*
X155036905Y-24397295D01*
X155036905Y-24397295D02*
X154960714Y-24359200D01*
X154960714Y-24359200D02*
X154922619Y-24321104D01*
X154922619Y-24321104D02*
X154884524Y-24244914D01*
X154884524Y-24244914D02*
X154884524Y-24168723D01*
X154884524Y-24168723D02*
X154922619Y-24092533D01*
X154922619Y-24092533D02*
X154960714Y-24054438D01*
X154960714Y-24054438D02*
X155036905Y-24016342D01*
X155036905Y-24016342D02*
X155189286Y-23978247D01*
X155189286Y-23978247D02*
X155265476Y-23940152D01*
X155265476Y-23940152D02*
X155303571Y-23902057D01*
X155303571Y-23902057D02*
X155341667Y-23825866D01*
X155341667Y-23825866D02*
X155341667Y-23749676D01*
X155341667Y-23749676D02*
X155303571Y-23673485D01*
X155303571Y-23673485D02*
X155265476Y-23635390D01*
X155265476Y-23635390D02*
X155189286Y-23597295D01*
X155189286Y-23597295D02*
X154998809Y-23597295D01*
X154998809Y-23597295D02*
X154884524Y-23635390D01*
X145747381Y-69355390D02*
X145823571Y-69317295D01*
X145823571Y-69317295D02*
X145937857Y-69317295D01*
X145937857Y-69317295D02*
X146052143Y-69355390D01*
X146052143Y-69355390D02*
X146128333Y-69431580D01*
X146128333Y-69431580D02*
X146166428Y-69507771D01*
X146166428Y-69507771D02*
X146204524Y-69660152D01*
X146204524Y-69660152D02*
X146204524Y-69774438D01*
X146204524Y-69774438D02*
X146166428Y-69926819D01*
X146166428Y-69926819D02*
X146128333Y-70003009D01*
X146128333Y-70003009D02*
X146052143Y-70079200D01*
X146052143Y-70079200D02*
X145937857Y-70117295D01*
X145937857Y-70117295D02*
X145861666Y-70117295D01*
X145861666Y-70117295D02*
X145747381Y-70079200D01*
X145747381Y-70079200D02*
X145709285Y-70041104D01*
X145709285Y-70041104D02*
X145709285Y-69774438D01*
X145709285Y-69774438D02*
X145861666Y-69774438D01*
X145366428Y-70117295D02*
X145366428Y-69317295D01*
X145366428Y-69317295D02*
X145061666Y-69317295D01*
X145061666Y-69317295D02*
X144985476Y-69355390D01*
X144985476Y-69355390D02*
X144947381Y-69393485D01*
X144947381Y-69393485D02*
X144909285Y-69469676D01*
X144909285Y-69469676D02*
X144909285Y-69583961D01*
X144909285Y-69583961D02*
X144947381Y-69660152D01*
X144947381Y-69660152D02*
X144985476Y-69698247D01*
X144985476Y-69698247D02*
X145061666Y-69736342D01*
X145061666Y-69736342D02*
X145366428Y-69736342D01*
X144147381Y-70117295D02*
X144604524Y-70117295D01*
X144375952Y-70117295D02*
X144375952Y-69317295D01*
X144375952Y-69317295D02*
X144452143Y-69431580D01*
X144452143Y-69431580D02*
X144528333Y-69507771D01*
X144528333Y-69507771D02*
X144604524Y-69545866D01*
X143461666Y-69583961D02*
X143461666Y-70117295D01*
X143652142Y-69279200D02*
X143842619Y-69850628D01*
X143842619Y-69850628D02*
X143347380Y-69850628D01*
X153349200Y-66719761D02*
X153387295Y-66834047D01*
X153387295Y-66834047D02*
X153387295Y-67024523D01*
X153387295Y-67024523D02*
X153349200Y-67100714D01*
X153349200Y-67100714D02*
X153311104Y-67138809D01*
X153311104Y-67138809D02*
X153234914Y-67176904D01*
X153234914Y-67176904D02*
X153158723Y-67176904D01*
X153158723Y-67176904D02*
X153082533Y-67138809D01*
X153082533Y-67138809D02*
X153044438Y-67100714D01*
X153044438Y-67100714D02*
X153006342Y-67024523D01*
X153006342Y-67024523D02*
X152968247Y-66872142D01*
X152968247Y-66872142D02*
X152930152Y-66795952D01*
X152930152Y-66795952D02*
X152892057Y-66757857D01*
X152892057Y-66757857D02*
X152815866Y-66719761D01*
X152815866Y-66719761D02*
X152739676Y-66719761D01*
X152739676Y-66719761D02*
X152663485Y-66757857D01*
X152663485Y-66757857D02*
X152625390Y-66795952D01*
X152625390Y-66795952D02*
X152587295Y-66872142D01*
X152587295Y-66872142D02*
X152587295Y-67062619D01*
X152587295Y-67062619D02*
X152625390Y-67176904D01*
X152587295Y-67443571D02*
X153387295Y-67634047D01*
X153387295Y-67634047D02*
X152815866Y-67786428D01*
X152815866Y-67786428D02*
X153387295Y-67938809D01*
X153387295Y-67938809D02*
X152587295Y-68129286D01*
X153387295Y-68434048D02*
X152587295Y-68434048D01*
X152587295Y-68434048D02*
X152587295Y-68624524D01*
X152587295Y-68624524D02*
X152625390Y-68738810D01*
X152625390Y-68738810D02*
X152701580Y-68815000D01*
X152701580Y-68815000D02*
X152777771Y-68853095D01*
X152777771Y-68853095D02*
X152930152Y-68891191D01*
X152930152Y-68891191D02*
X153044438Y-68891191D01*
X153044438Y-68891191D02*
X153196819Y-68853095D01*
X153196819Y-68853095D02*
X153273009Y-68815000D01*
X153273009Y-68815000D02*
X153349200Y-68738810D01*
X153349200Y-68738810D02*
X153387295Y-68624524D01*
X153387295Y-68624524D02*
X153387295Y-68434048D01*
X153387295Y-69234048D02*
X152587295Y-69234048D01*
X152587295Y-69767381D02*
X152587295Y-69919762D01*
X152587295Y-69919762D02*
X152625390Y-69995952D01*
X152625390Y-69995952D02*
X152701580Y-70072143D01*
X152701580Y-70072143D02*
X152853961Y-70110238D01*
X152853961Y-70110238D02*
X153120628Y-70110238D01*
X153120628Y-70110238D02*
X153273009Y-70072143D01*
X153273009Y-70072143D02*
X153349200Y-69995952D01*
X153349200Y-69995952D02*
X153387295Y-69919762D01*
X153387295Y-69919762D02*
X153387295Y-69767381D01*
X153387295Y-69767381D02*
X153349200Y-69691190D01*
X153349200Y-69691190D02*
X153273009Y-69615000D01*
X153273009Y-69615000D02*
X153120628Y-69576904D01*
X153120628Y-69576904D02*
X152853961Y-69576904D01*
X152853961Y-69576904D02*
X152701580Y-69615000D01*
X152701580Y-69615000D02*
X152625390Y-69691190D01*
X152625390Y-69691190D02*
X152587295Y-69767381D01*
X145054523Y-28715390D02*
X145130713Y-28677295D01*
X145130713Y-28677295D02*
X145244999Y-28677295D01*
X145244999Y-28677295D02*
X145359285Y-28715390D01*
X145359285Y-28715390D02*
X145435475Y-28791580D01*
X145435475Y-28791580D02*
X145473570Y-28867771D01*
X145473570Y-28867771D02*
X145511666Y-29020152D01*
X145511666Y-29020152D02*
X145511666Y-29134438D01*
X145511666Y-29134438D02*
X145473570Y-29286819D01*
X145473570Y-29286819D02*
X145435475Y-29363009D01*
X145435475Y-29363009D02*
X145359285Y-29439200D01*
X145359285Y-29439200D02*
X145244999Y-29477295D01*
X145244999Y-29477295D02*
X145168808Y-29477295D01*
X145168808Y-29477295D02*
X145054523Y-29439200D01*
X145054523Y-29439200D02*
X145016427Y-29401104D01*
X145016427Y-29401104D02*
X145016427Y-29134438D01*
X145016427Y-29134438D02*
X145168808Y-29134438D01*
X144673570Y-29477295D02*
X144673570Y-28677295D01*
X144673570Y-28677295D02*
X144216427Y-29477295D01*
X144216427Y-29477295D02*
X144216427Y-28677295D01*
X143835475Y-29477295D02*
X143835475Y-28677295D01*
X143835475Y-28677295D02*
X143644999Y-28677295D01*
X143644999Y-28677295D02*
X143530713Y-28715390D01*
X143530713Y-28715390D02*
X143454523Y-28791580D01*
X143454523Y-28791580D02*
X143416428Y-28867771D01*
X143416428Y-28867771D02*
X143378332Y-29020152D01*
X143378332Y-29020152D02*
X143378332Y-29134438D01*
X143378332Y-29134438D02*
X143416428Y-29286819D01*
X143416428Y-29286819D02*
X143454523Y-29363009D01*
X143454523Y-29363009D02*
X143530713Y-29439200D01*
X143530713Y-29439200D02*
X143644999Y-29477295D01*
X143644999Y-29477295D02*
X143835475Y-29477295D01*
X145016428Y-43955390D02*
X145092618Y-43917295D01*
X145092618Y-43917295D02*
X145206904Y-43917295D01*
X145206904Y-43917295D02*
X145321190Y-43955390D01*
X145321190Y-43955390D02*
X145397380Y-44031580D01*
X145397380Y-44031580D02*
X145435475Y-44107771D01*
X145435475Y-44107771D02*
X145473571Y-44260152D01*
X145473571Y-44260152D02*
X145473571Y-44374438D01*
X145473571Y-44374438D02*
X145435475Y-44526819D01*
X145435475Y-44526819D02*
X145397380Y-44603009D01*
X145397380Y-44603009D02*
X145321190Y-44679200D01*
X145321190Y-44679200D02*
X145206904Y-44717295D01*
X145206904Y-44717295D02*
X145130713Y-44717295D01*
X145130713Y-44717295D02*
X145016428Y-44679200D01*
X145016428Y-44679200D02*
X144978332Y-44641104D01*
X144978332Y-44641104D02*
X144978332Y-44374438D01*
X144978332Y-44374438D02*
X145130713Y-44374438D01*
X144635475Y-44717295D02*
X144635475Y-43917295D01*
X144635475Y-43917295D02*
X144330713Y-43917295D01*
X144330713Y-43917295D02*
X144254523Y-43955390D01*
X144254523Y-43955390D02*
X144216428Y-43993485D01*
X144216428Y-43993485D02*
X144178332Y-44069676D01*
X144178332Y-44069676D02*
X144178332Y-44183961D01*
X144178332Y-44183961D02*
X144216428Y-44260152D01*
X144216428Y-44260152D02*
X144254523Y-44298247D01*
X144254523Y-44298247D02*
X144330713Y-44336342D01*
X144330713Y-44336342D02*
X144635475Y-44336342D01*
X143492618Y-43917295D02*
X143644999Y-43917295D01*
X143644999Y-43917295D02*
X143721190Y-43955390D01*
X143721190Y-43955390D02*
X143759285Y-43993485D01*
X143759285Y-43993485D02*
X143835475Y-44107771D01*
X143835475Y-44107771D02*
X143873571Y-44260152D01*
X143873571Y-44260152D02*
X143873571Y-44564914D01*
X143873571Y-44564914D02*
X143835475Y-44641104D01*
X143835475Y-44641104D02*
X143797380Y-44679200D01*
X143797380Y-44679200D02*
X143721190Y-44717295D01*
X143721190Y-44717295D02*
X143568809Y-44717295D01*
X143568809Y-44717295D02*
X143492618Y-44679200D01*
X143492618Y-44679200D02*
X143454523Y-44641104D01*
X143454523Y-44641104D02*
X143416428Y-44564914D01*
X143416428Y-44564914D02*
X143416428Y-44374438D01*
X143416428Y-44374438D02*
X143454523Y-44298247D01*
X143454523Y-44298247D02*
X143492618Y-44260152D01*
X143492618Y-44260152D02*
X143568809Y-44222057D01*
X143568809Y-44222057D02*
X143721190Y-44222057D01*
X143721190Y-44222057D02*
X143797380Y-44260152D01*
X143797380Y-44260152D02*
X143835475Y-44298247D01*
X143835475Y-44298247D02*
X143873571Y-44374438D01*
X156977381Y-59195390D02*
X157053571Y-59157295D01*
X157053571Y-59157295D02*
X157167857Y-59157295D01*
X157167857Y-59157295D02*
X157282143Y-59195390D01*
X157282143Y-59195390D02*
X157358333Y-59271580D01*
X157358333Y-59271580D02*
X157396428Y-59347771D01*
X157396428Y-59347771D02*
X157434524Y-59500152D01*
X157434524Y-59500152D02*
X157434524Y-59614438D01*
X157434524Y-59614438D02*
X157396428Y-59766819D01*
X157396428Y-59766819D02*
X157358333Y-59843009D01*
X157358333Y-59843009D02*
X157282143Y-59919200D01*
X157282143Y-59919200D02*
X157167857Y-59957295D01*
X157167857Y-59957295D02*
X157091666Y-59957295D01*
X157091666Y-59957295D02*
X156977381Y-59919200D01*
X156977381Y-59919200D02*
X156939285Y-59881104D01*
X156939285Y-59881104D02*
X156939285Y-59614438D01*
X156939285Y-59614438D02*
X157091666Y-59614438D01*
X156596428Y-59957295D02*
X156596428Y-59157295D01*
X156596428Y-59157295D02*
X156291666Y-59157295D01*
X156291666Y-59157295D02*
X156215476Y-59195390D01*
X156215476Y-59195390D02*
X156177381Y-59233485D01*
X156177381Y-59233485D02*
X156139285Y-59309676D01*
X156139285Y-59309676D02*
X156139285Y-59423961D01*
X156139285Y-59423961D02*
X156177381Y-59500152D01*
X156177381Y-59500152D02*
X156215476Y-59538247D01*
X156215476Y-59538247D02*
X156291666Y-59576342D01*
X156291666Y-59576342D02*
X156596428Y-59576342D01*
X155834524Y-59233485D02*
X155796428Y-59195390D01*
X155796428Y-59195390D02*
X155720238Y-59157295D01*
X155720238Y-59157295D02*
X155529762Y-59157295D01*
X155529762Y-59157295D02*
X155453571Y-59195390D01*
X155453571Y-59195390D02*
X155415476Y-59233485D01*
X155415476Y-59233485D02*
X155377381Y-59309676D01*
X155377381Y-59309676D02*
X155377381Y-59385866D01*
X155377381Y-59385866D02*
X155415476Y-59500152D01*
X155415476Y-59500152D02*
X155872619Y-59957295D01*
X155872619Y-59957295D02*
X155377381Y-59957295D01*
X154882142Y-59157295D02*
X154805952Y-59157295D01*
X154805952Y-59157295D02*
X154729761Y-59195390D01*
X154729761Y-59195390D02*
X154691666Y-59233485D01*
X154691666Y-59233485D02*
X154653571Y-59309676D01*
X154653571Y-59309676D02*
X154615476Y-59462057D01*
X154615476Y-59462057D02*
X154615476Y-59652533D01*
X154615476Y-59652533D02*
X154653571Y-59804914D01*
X154653571Y-59804914D02*
X154691666Y-59881104D01*
X154691666Y-59881104D02*
X154729761Y-59919200D01*
X154729761Y-59919200D02*
X154805952Y-59957295D01*
X154805952Y-59957295D02*
X154882142Y-59957295D01*
X154882142Y-59957295D02*
X154958333Y-59919200D01*
X154958333Y-59919200D02*
X154996428Y-59881104D01*
X154996428Y-59881104D02*
X155034523Y-59804914D01*
X155034523Y-59804914D02*
X155072619Y-59652533D01*
X155072619Y-59652533D02*
X155072619Y-59462057D01*
X155072619Y-59462057D02*
X155034523Y-59309676D01*
X155034523Y-59309676D02*
X154996428Y-59233485D01*
X154996428Y-59233485D02*
X154958333Y-59195390D01*
X154958333Y-59195390D02*
X154882142Y-59157295D01*
X156977381Y-71895390D02*
X157053571Y-71857295D01*
X157053571Y-71857295D02*
X157167857Y-71857295D01*
X157167857Y-71857295D02*
X157282143Y-71895390D01*
X157282143Y-71895390D02*
X157358333Y-71971580D01*
X157358333Y-71971580D02*
X157396428Y-72047771D01*
X157396428Y-72047771D02*
X157434524Y-72200152D01*
X157434524Y-72200152D02*
X157434524Y-72314438D01*
X157434524Y-72314438D02*
X157396428Y-72466819D01*
X157396428Y-72466819D02*
X157358333Y-72543009D01*
X157358333Y-72543009D02*
X157282143Y-72619200D01*
X157282143Y-72619200D02*
X157167857Y-72657295D01*
X157167857Y-72657295D02*
X157091666Y-72657295D01*
X157091666Y-72657295D02*
X156977381Y-72619200D01*
X156977381Y-72619200D02*
X156939285Y-72581104D01*
X156939285Y-72581104D02*
X156939285Y-72314438D01*
X156939285Y-72314438D02*
X157091666Y-72314438D01*
X156596428Y-72657295D02*
X156596428Y-71857295D01*
X156596428Y-71857295D02*
X156291666Y-71857295D01*
X156291666Y-71857295D02*
X156215476Y-71895390D01*
X156215476Y-71895390D02*
X156177381Y-71933485D01*
X156177381Y-71933485D02*
X156139285Y-72009676D01*
X156139285Y-72009676D02*
X156139285Y-72123961D01*
X156139285Y-72123961D02*
X156177381Y-72200152D01*
X156177381Y-72200152D02*
X156215476Y-72238247D01*
X156215476Y-72238247D02*
X156291666Y-72276342D01*
X156291666Y-72276342D02*
X156596428Y-72276342D01*
X155377381Y-72657295D02*
X155834524Y-72657295D01*
X155605952Y-72657295D02*
X155605952Y-71857295D01*
X155605952Y-71857295D02*
X155682143Y-71971580D01*
X155682143Y-71971580D02*
X155758333Y-72047771D01*
X155758333Y-72047771D02*
X155834524Y-72085866D01*
X154691666Y-71857295D02*
X154844047Y-71857295D01*
X154844047Y-71857295D02*
X154920238Y-71895390D01*
X154920238Y-71895390D02*
X154958333Y-71933485D01*
X154958333Y-71933485D02*
X155034523Y-72047771D01*
X155034523Y-72047771D02*
X155072619Y-72200152D01*
X155072619Y-72200152D02*
X155072619Y-72504914D01*
X155072619Y-72504914D02*
X155034523Y-72581104D01*
X155034523Y-72581104D02*
X154996428Y-72619200D01*
X154996428Y-72619200D02*
X154920238Y-72657295D01*
X154920238Y-72657295D02*
X154767857Y-72657295D01*
X154767857Y-72657295D02*
X154691666Y-72619200D01*
X154691666Y-72619200D02*
X154653571Y-72581104D01*
X154653571Y-72581104D02*
X154615476Y-72504914D01*
X154615476Y-72504914D02*
X154615476Y-72314438D01*
X154615476Y-72314438D02*
X154653571Y-72238247D01*
X154653571Y-72238247D02*
X154691666Y-72200152D01*
X154691666Y-72200152D02*
X154767857Y-72162057D01*
X154767857Y-72162057D02*
X154920238Y-72162057D01*
X154920238Y-72162057D02*
X154996428Y-72200152D01*
X154996428Y-72200152D02*
X155034523Y-72238247D01*
X155034523Y-72238247D02*
X155072619Y-72314438D01*
X145016428Y-46465390D02*
X145092618Y-46427295D01*
X145092618Y-46427295D02*
X145206904Y-46427295D01*
X145206904Y-46427295D02*
X145321190Y-46465390D01*
X145321190Y-46465390D02*
X145397380Y-46541580D01*
X145397380Y-46541580D02*
X145435475Y-46617771D01*
X145435475Y-46617771D02*
X145473571Y-46770152D01*
X145473571Y-46770152D02*
X145473571Y-46884438D01*
X145473571Y-46884438D02*
X145435475Y-47036819D01*
X145435475Y-47036819D02*
X145397380Y-47113009D01*
X145397380Y-47113009D02*
X145321190Y-47189200D01*
X145321190Y-47189200D02*
X145206904Y-47227295D01*
X145206904Y-47227295D02*
X145130713Y-47227295D01*
X145130713Y-47227295D02*
X145016428Y-47189200D01*
X145016428Y-47189200D02*
X144978332Y-47151104D01*
X144978332Y-47151104D02*
X144978332Y-46884438D01*
X144978332Y-46884438D02*
X145130713Y-46884438D01*
X144635475Y-47227295D02*
X144635475Y-46427295D01*
X144635475Y-46427295D02*
X144330713Y-46427295D01*
X144330713Y-46427295D02*
X144254523Y-46465390D01*
X144254523Y-46465390D02*
X144216428Y-46503485D01*
X144216428Y-46503485D02*
X144178332Y-46579676D01*
X144178332Y-46579676D02*
X144178332Y-46693961D01*
X144178332Y-46693961D02*
X144216428Y-46770152D01*
X144216428Y-46770152D02*
X144254523Y-46808247D01*
X144254523Y-46808247D02*
X144330713Y-46846342D01*
X144330713Y-46846342D02*
X144635475Y-46846342D01*
X143911666Y-46427295D02*
X143378332Y-46427295D01*
X143378332Y-46427295D02*
X143721190Y-47227295D01*
X156977381Y-64275390D02*
X157053571Y-64237295D01*
X157053571Y-64237295D02*
X157167857Y-64237295D01*
X157167857Y-64237295D02*
X157282143Y-64275390D01*
X157282143Y-64275390D02*
X157358333Y-64351580D01*
X157358333Y-64351580D02*
X157396428Y-64427771D01*
X157396428Y-64427771D02*
X157434524Y-64580152D01*
X157434524Y-64580152D02*
X157434524Y-64694438D01*
X157434524Y-64694438D02*
X157396428Y-64846819D01*
X157396428Y-64846819D02*
X157358333Y-64923009D01*
X157358333Y-64923009D02*
X157282143Y-64999200D01*
X157282143Y-64999200D02*
X157167857Y-65037295D01*
X157167857Y-65037295D02*
X157091666Y-65037295D01*
X157091666Y-65037295D02*
X156977381Y-64999200D01*
X156977381Y-64999200D02*
X156939285Y-64961104D01*
X156939285Y-64961104D02*
X156939285Y-64694438D01*
X156939285Y-64694438D02*
X157091666Y-64694438D01*
X156596428Y-65037295D02*
X156596428Y-64237295D01*
X156596428Y-64237295D02*
X156291666Y-64237295D01*
X156291666Y-64237295D02*
X156215476Y-64275390D01*
X156215476Y-64275390D02*
X156177381Y-64313485D01*
X156177381Y-64313485D02*
X156139285Y-64389676D01*
X156139285Y-64389676D02*
X156139285Y-64503961D01*
X156139285Y-64503961D02*
X156177381Y-64580152D01*
X156177381Y-64580152D02*
X156215476Y-64618247D01*
X156215476Y-64618247D02*
X156291666Y-64656342D01*
X156291666Y-64656342D02*
X156596428Y-64656342D01*
X155377381Y-65037295D02*
X155834524Y-65037295D01*
X155605952Y-65037295D02*
X155605952Y-64237295D01*
X155605952Y-64237295D02*
X155682143Y-64351580D01*
X155682143Y-64351580D02*
X155758333Y-64427771D01*
X155758333Y-64427771D02*
X155834524Y-64465866D01*
X154920238Y-64580152D02*
X154996428Y-64542057D01*
X154996428Y-64542057D02*
X155034523Y-64503961D01*
X155034523Y-64503961D02*
X155072619Y-64427771D01*
X155072619Y-64427771D02*
X155072619Y-64389676D01*
X155072619Y-64389676D02*
X155034523Y-64313485D01*
X155034523Y-64313485D02*
X154996428Y-64275390D01*
X154996428Y-64275390D02*
X154920238Y-64237295D01*
X154920238Y-64237295D02*
X154767857Y-64237295D01*
X154767857Y-64237295D02*
X154691666Y-64275390D01*
X154691666Y-64275390D02*
X154653571Y-64313485D01*
X154653571Y-64313485D02*
X154615476Y-64389676D01*
X154615476Y-64389676D02*
X154615476Y-64427771D01*
X154615476Y-64427771D02*
X154653571Y-64503961D01*
X154653571Y-64503961D02*
X154691666Y-64542057D01*
X154691666Y-64542057D02*
X154767857Y-64580152D01*
X154767857Y-64580152D02*
X154920238Y-64580152D01*
X154920238Y-64580152D02*
X154996428Y-64618247D01*
X154996428Y-64618247D02*
X155034523Y-64656342D01*
X155034523Y-64656342D02*
X155072619Y-64732533D01*
X155072619Y-64732533D02*
X155072619Y-64884914D01*
X155072619Y-64884914D02*
X155034523Y-64961104D01*
X155034523Y-64961104D02*
X154996428Y-64999200D01*
X154996428Y-64999200D02*
X154920238Y-65037295D01*
X154920238Y-65037295D02*
X154767857Y-65037295D01*
X154767857Y-65037295D02*
X154691666Y-64999200D01*
X154691666Y-64999200D02*
X154653571Y-64961104D01*
X154653571Y-64961104D02*
X154615476Y-64884914D01*
X154615476Y-64884914D02*
X154615476Y-64732533D01*
X154615476Y-64732533D02*
X154653571Y-64656342D01*
X154653571Y-64656342D02*
X154691666Y-64618247D01*
X154691666Y-64618247D02*
X154767857Y-64580152D01*
X156965475Y-49797295D02*
X157232142Y-49416342D01*
X157422618Y-49797295D02*
X157422618Y-48997295D01*
X157422618Y-48997295D02*
X157117856Y-48997295D01*
X157117856Y-48997295D02*
X157041666Y-49035390D01*
X157041666Y-49035390D02*
X157003571Y-49073485D01*
X157003571Y-49073485D02*
X156965475Y-49149676D01*
X156965475Y-49149676D02*
X156965475Y-49263961D01*
X156965475Y-49263961D02*
X157003571Y-49340152D01*
X157003571Y-49340152D02*
X157041666Y-49378247D01*
X157041666Y-49378247D02*
X157117856Y-49416342D01*
X157117856Y-49416342D02*
X157422618Y-49416342D01*
X156622618Y-48997295D02*
X156622618Y-49644914D01*
X156622618Y-49644914D02*
X156584523Y-49721104D01*
X156584523Y-49721104D02*
X156546428Y-49759200D01*
X156546428Y-49759200D02*
X156470237Y-49797295D01*
X156470237Y-49797295D02*
X156317856Y-49797295D01*
X156317856Y-49797295D02*
X156241666Y-49759200D01*
X156241666Y-49759200D02*
X156203571Y-49721104D01*
X156203571Y-49721104D02*
X156165475Y-49644914D01*
X156165475Y-49644914D02*
X156165475Y-48997295D01*
X155784523Y-49797295D02*
X155784523Y-48997295D01*
X155784523Y-48997295D02*
X155327380Y-49797295D01*
X155327380Y-49797295D02*
X155327380Y-48997295D01*
X157601190Y-31217295D02*
X157105952Y-31217295D01*
X157105952Y-31217295D02*
X157372618Y-31522057D01*
X157372618Y-31522057D02*
X157258333Y-31522057D01*
X157258333Y-31522057D02*
X157182142Y-31560152D01*
X157182142Y-31560152D02*
X157144047Y-31598247D01*
X157144047Y-31598247D02*
X157105952Y-31674438D01*
X157105952Y-31674438D02*
X157105952Y-31864914D01*
X157105952Y-31864914D02*
X157144047Y-31941104D01*
X157144047Y-31941104D02*
X157182142Y-31979200D01*
X157182142Y-31979200D02*
X157258333Y-32017295D01*
X157258333Y-32017295D02*
X157486904Y-32017295D01*
X157486904Y-32017295D02*
X157563095Y-31979200D01*
X157563095Y-31979200D02*
X157601190Y-31941104D01*
X156877380Y-31217295D02*
X156610713Y-32017295D01*
X156610713Y-32017295D02*
X156344047Y-31217295D01*
X156153571Y-31217295D02*
X155658333Y-31217295D01*
X155658333Y-31217295D02*
X155924999Y-31522057D01*
X155924999Y-31522057D02*
X155810714Y-31522057D01*
X155810714Y-31522057D02*
X155734523Y-31560152D01*
X155734523Y-31560152D02*
X155696428Y-31598247D01*
X155696428Y-31598247D02*
X155658333Y-31674438D01*
X155658333Y-31674438D02*
X155658333Y-31864914D01*
X155658333Y-31864914D02*
X155696428Y-31941104D01*
X155696428Y-31941104D02*
X155734523Y-31979200D01*
X155734523Y-31979200D02*
X155810714Y-32017295D01*
X155810714Y-32017295D02*
X156039285Y-32017295D01*
X156039285Y-32017295D02*
X156115476Y-31979200D01*
X156115476Y-31979200D02*
X156153571Y-31941104D01*
X155505952Y-32093485D02*
X154896428Y-32093485D01*
X154705951Y-31598247D02*
X154439285Y-31598247D01*
X154324999Y-32017295D02*
X154705951Y-32017295D01*
X154705951Y-32017295D02*
X154705951Y-31217295D01*
X154705951Y-31217295D02*
X154324999Y-31217295D01*
X153982141Y-32017295D02*
X153982141Y-31217295D01*
X153982141Y-31217295D02*
X153524998Y-32017295D01*
X153524998Y-32017295D02*
X153524998Y-31217295D01*
X145054523Y-66815390D02*
X145130713Y-66777295D01*
X145130713Y-66777295D02*
X145244999Y-66777295D01*
X145244999Y-66777295D02*
X145359285Y-66815390D01*
X145359285Y-66815390D02*
X145435475Y-66891580D01*
X145435475Y-66891580D02*
X145473570Y-66967771D01*
X145473570Y-66967771D02*
X145511666Y-67120152D01*
X145511666Y-67120152D02*
X145511666Y-67234438D01*
X145511666Y-67234438D02*
X145473570Y-67386819D01*
X145473570Y-67386819D02*
X145435475Y-67463009D01*
X145435475Y-67463009D02*
X145359285Y-67539200D01*
X145359285Y-67539200D02*
X145244999Y-67577295D01*
X145244999Y-67577295D02*
X145168808Y-67577295D01*
X145168808Y-67577295D02*
X145054523Y-67539200D01*
X145054523Y-67539200D02*
X145016427Y-67501104D01*
X145016427Y-67501104D02*
X145016427Y-67234438D01*
X145016427Y-67234438D02*
X145168808Y-67234438D01*
X144673570Y-67577295D02*
X144673570Y-66777295D01*
X144673570Y-66777295D02*
X144216427Y-67577295D01*
X144216427Y-67577295D02*
X144216427Y-66777295D01*
X143835475Y-67577295D02*
X143835475Y-66777295D01*
X143835475Y-66777295D02*
X143644999Y-66777295D01*
X143644999Y-66777295D02*
X143530713Y-66815390D01*
X143530713Y-66815390D02*
X143454523Y-66891580D01*
X143454523Y-66891580D02*
X143416428Y-66967771D01*
X143416428Y-66967771D02*
X143378332Y-67120152D01*
X143378332Y-67120152D02*
X143378332Y-67234438D01*
X143378332Y-67234438D02*
X143416428Y-67386819D01*
X143416428Y-67386819D02*
X143454523Y-67463009D01*
X143454523Y-67463009D02*
X143530713Y-67539200D01*
X143530713Y-67539200D02*
X143644999Y-67577295D01*
X143644999Y-67577295D02*
X143835475Y-67577295D01*
X145747381Y-71895390D02*
X145823571Y-71857295D01*
X145823571Y-71857295D02*
X145937857Y-71857295D01*
X145937857Y-71857295D02*
X146052143Y-71895390D01*
X146052143Y-71895390D02*
X146128333Y-71971580D01*
X146128333Y-71971580D02*
X146166428Y-72047771D01*
X146166428Y-72047771D02*
X146204524Y-72200152D01*
X146204524Y-72200152D02*
X146204524Y-72314438D01*
X146204524Y-72314438D02*
X146166428Y-72466819D01*
X146166428Y-72466819D02*
X146128333Y-72543009D01*
X146128333Y-72543009D02*
X146052143Y-72619200D01*
X146052143Y-72619200D02*
X145937857Y-72657295D01*
X145937857Y-72657295D02*
X145861666Y-72657295D01*
X145861666Y-72657295D02*
X145747381Y-72619200D01*
X145747381Y-72619200D02*
X145709285Y-72581104D01*
X145709285Y-72581104D02*
X145709285Y-72314438D01*
X145709285Y-72314438D02*
X145861666Y-72314438D01*
X145366428Y-72657295D02*
X145366428Y-71857295D01*
X145366428Y-71857295D02*
X145061666Y-71857295D01*
X145061666Y-71857295D02*
X144985476Y-71895390D01*
X144985476Y-71895390D02*
X144947381Y-71933485D01*
X144947381Y-71933485D02*
X144909285Y-72009676D01*
X144909285Y-72009676D02*
X144909285Y-72123961D01*
X144909285Y-72123961D02*
X144947381Y-72200152D01*
X144947381Y-72200152D02*
X144985476Y-72238247D01*
X144985476Y-72238247D02*
X145061666Y-72276342D01*
X145061666Y-72276342D02*
X145366428Y-72276342D01*
X144147381Y-72657295D02*
X144604524Y-72657295D01*
X144375952Y-72657295D02*
X144375952Y-71857295D01*
X144375952Y-71857295D02*
X144452143Y-71971580D01*
X144452143Y-71971580D02*
X144528333Y-72047771D01*
X144528333Y-72047771D02*
X144604524Y-72085866D01*
X143423571Y-71857295D02*
X143804523Y-71857295D01*
X143804523Y-71857295D02*
X143842619Y-72238247D01*
X143842619Y-72238247D02*
X143804523Y-72200152D01*
X143804523Y-72200152D02*
X143728333Y-72162057D01*
X143728333Y-72162057D02*
X143537857Y-72162057D01*
X143537857Y-72162057D02*
X143461666Y-72200152D01*
X143461666Y-72200152D02*
X143423571Y-72238247D01*
X143423571Y-72238247D02*
X143385476Y-72314438D01*
X143385476Y-72314438D02*
X143385476Y-72504914D01*
X143385476Y-72504914D02*
X143423571Y-72581104D01*
X143423571Y-72581104D02*
X143461666Y-72619200D01*
X143461666Y-72619200D02*
X143537857Y-72657295D01*
X143537857Y-72657295D02*
X143728333Y-72657295D01*
X143728333Y-72657295D02*
X143804523Y-72619200D01*
X143804523Y-72619200D02*
X143842619Y-72581104D01*
X156977381Y-69355390D02*
X157053571Y-69317295D01*
X157053571Y-69317295D02*
X157167857Y-69317295D01*
X157167857Y-69317295D02*
X157282143Y-69355390D01*
X157282143Y-69355390D02*
X157358333Y-69431580D01*
X157358333Y-69431580D02*
X157396428Y-69507771D01*
X157396428Y-69507771D02*
X157434524Y-69660152D01*
X157434524Y-69660152D02*
X157434524Y-69774438D01*
X157434524Y-69774438D02*
X157396428Y-69926819D01*
X157396428Y-69926819D02*
X157358333Y-70003009D01*
X157358333Y-70003009D02*
X157282143Y-70079200D01*
X157282143Y-70079200D02*
X157167857Y-70117295D01*
X157167857Y-70117295D02*
X157091666Y-70117295D01*
X157091666Y-70117295D02*
X156977381Y-70079200D01*
X156977381Y-70079200D02*
X156939285Y-70041104D01*
X156939285Y-70041104D02*
X156939285Y-69774438D01*
X156939285Y-69774438D02*
X157091666Y-69774438D01*
X156596428Y-70117295D02*
X156596428Y-69317295D01*
X156596428Y-69317295D02*
X156291666Y-69317295D01*
X156291666Y-69317295D02*
X156215476Y-69355390D01*
X156215476Y-69355390D02*
X156177381Y-69393485D01*
X156177381Y-69393485D02*
X156139285Y-69469676D01*
X156139285Y-69469676D02*
X156139285Y-69583961D01*
X156139285Y-69583961D02*
X156177381Y-69660152D01*
X156177381Y-69660152D02*
X156215476Y-69698247D01*
X156215476Y-69698247D02*
X156291666Y-69736342D01*
X156291666Y-69736342D02*
X156596428Y-69736342D01*
X155377381Y-70117295D02*
X155834524Y-70117295D01*
X155605952Y-70117295D02*
X155605952Y-69317295D01*
X155605952Y-69317295D02*
X155682143Y-69431580D01*
X155682143Y-69431580D02*
X155758333Y-69507771D01*
X155758333Y-69507771D02*
X155834524Y-69545866D01*
X155110714Y-69317295D02*
X154577380Y-69317295D01*
X154577380Y-69317295D02*
X154920238Y-70117295D01*
%TO.C,U2*%
X139985000Y-22665000D02*
X139985000Y-73665000D01*
X139985000Y-73665000D02*
X160985000Y-73665000D01*
X157978000Y-25332000D02*
X157978000Y-22665000D01*
X160985000Y-22665000D02*
X139985000Y-22665000D01*
X160985000Y-22665000D02*
X160985000Y-73665000D01*
X160985000Y-25332000D02*
X157978000Y-25332000D01*
D11*
%TO.C,D1*%
X208047500Y-69565000D02*
X209147500Y-69565000D01*
X208197500Y-68965000D02*
X208997500Y-68965000D01*
X208597500Y-68465000D02*
X208597500Y-68965000D01*
X208597500Y-69565000D02*
X208197500Y-68965000D01*
X208597500Y-69565000D02*
X208597500Y-69965000D01*
X208997500Y-68965000D02*
X208597500Y-69565000D01*
%TO.C,D4*%
X188997500Y-88615000D02*
X190097500Y-88615000D01*
X189147500Y-88015000D02*
X189947500Y-88015000D01*
X189547500Y-87515000D02*
X189547500Y-88015000D01*
X189547500Y-88615000D02*
X189147500Y-88015000D01*
X189547500Y-88615000D02*
X189547500Y-89015000D01*
X189947500Y-88015000D02*
X189547500Y-88615000D01*
%TO.C,D7*%
X188997500Y-107665000D02*
X190097500Y-107665000D01*
X189147500Y-107065000D02*
X189947500Y-107065000D01*
X189547500Y-106565000D02*
X189547500Y-107065000D01*
X189547500Y-107665000D02*
X189147500Y-107065000D01*
X189547500Y-107665000D02*
X189547500Y-108065000D01*
X189947500Y-107065000D02*
X189547500Y-107665000D01*
%TO.C,D8*%
X208047500Y-107665000D02*
X209147500Y-107665000D01*
X208197500Y-107065000D02*
X208997500Y-107065000D01*
X208597500Y-106565000D02*
X208597500Y-107065000D01*
X208597500Y-107665000D02*
X208197500Y-107065000D01*
X208597500Y-107665000D02*
X208597500Y-108065000D01*
X208997500Y-107065000D02*
X208597500Y-107665000D01*
%TO.C,D5*%
X208047500Y-88615000D02*
X209147500Y-88615000D01*
X208197500Y-88015000D02*
X208997500Y-88015000D01*
X208597500Y-87515000D02*
X208597500Y-88015000D01*
X208597500Y-88615000D02*
X208197500Y-88015000D01*
X208597500Y-88615000D02*
X208597500Y-89015000D01*
X208997500Y-88015000D02*
X208597500Y-88615000D01*
%TO.C,D2*%
X188997500Y-69565000D02*
X190097500Y-69565000D01*
X189147500Y-68965000D02*
X189947500Y-68965000D01*
X189547500Y-68465000D02*
X189547500Y-68965000D01*
X189547500Y-69565000D02*
X189147500Y-68965000D01*
X189547500Y-69565000D02*
X189547500Y-69965000D01*
X189947500Y-68965000D02*
X189547500Y-69565000D01*
%TO.C,D9*%
X227097500Y-107665000D02*
X228197500Y-107665000D01*
X227247500Y-107065000D02*
X228047500Y-107065000D01*
X227647500Y-106565000D02*
X227647500Y-107065000D01*
X227647500Y-107665000D02*
X227247500Y-107065000D01*
X227647500Y-107665000D02*
X227647500Y-108065000D01*
X228047500Y-107065000D02*
X227647500Y-107665000D01*
%TO.C,D6*%
X227097500Y-88615000D02*
X228197500Y-88615000D01*
X227247500Y-88015000D02*
X228047500Y-88015000D01*
X227647500Y-87515000D02*
X227647500Y-88015000D01*
X227647500Y-88615000D02*
X227247500Y-88015000D01*
X227647500Y-88615000D02*
X227647500Y-89015000D01*
X228047500Y-88015000D02*
X227647500Y-88615000D01*
%TO.C,D3*%
X227097500Y-69565000D02*
X228197500Y-69565000D01*
X227247500Y-68965000D02*
X228047500Y-68965000D01*
X227647500Y-68465000D02*
X227647500Y-68965000D01*
X227647500Y-69565000D02*
X227247500Y-68965000D01*
X227647500Y-69565000D02*
X227647500Y-69965000D01*
X228047500Y-68965000D02*
X227647500Y-69565000D01*
%TD*%
M02*
